<?xml version="1.0" encoding="UTF-8" standalone="no"?>
<!-- Created with Inkscape (http://www.inkscape.org/) -->

<svg
   width="100"
   height="100"
   viewBox="0 0 26.458333 26.458333"
   version="1.1"
   id="svg1"
   xml:space="preserve"
   inkscape:version="1.4.3 (0d15f75042, 2025-12-25)"
   sodipodi:docname="drawing.svg"
   xmlns:inkscape="http://www.inkscape.org/namespaces/inkscape"
   xmlns:sodipodi="http://sodipodi.sourceforge.net/DTD/sodipodi-0.dtd"
   xmlns="http://www.w3.org/2000/svg"
   xmlns:svg="http://www.w3.org/2000/svg"><sodipodi:namedview
     id="namedview1"
     pagecolor="#ffffff"
     bordercolor="#000000"
     borderopacity="0.25"
     inkscape:showpageshadow="2"
     inkscape:pageopacity="0.0"
     inkscape:pagecheckerboard="0"
     inkscape:deskcolor="#d1d1d1"
     inkscape:document-units="px"
     inkscape:zoom="5.9661422"
     inkscape:cx="63.022299"
     inkscape:cy="98.220924"
     inkscape:window-width="2874"
     inkscape:window-height="1889"
     inkscape:window-x="0"
     inkscape:window-y="25"
     inkscape:window-maximized="1"
     inkscape:current-layer="layer1" /><defs
     id="defs1" /><g
     inkscape:label="Layer 1"
     inkscape:groupmode="layer"
     id="layer1"><rect
       style="fill:#c1d9ed;stroke-width:0.223779;fill-opacity:1"
       id="rect1"
       width="26.458332"
       height="3.175"
       x="6.9388939e-18"
       y="22.225" /><rect
       style="fill:#c1d9ed;fill-opacity:1;stroke-width:0.447558"
       id="rect1-2"
       width="15.875"
       height="21.166666"
       x="5.2916665"
       y="1.3229166" /><g
       id="g1"
       transform="matrix(0.15179493,0,0,0.15179493,8.963647,-6.229256)"><path
         d="m -1.8028096,67.291795 c 0.84666663,0.105834 1.32291663,-0.423333 4.3656249,1.084792 3.0427083,1.481667 11.0066667,6.19125 13.8641667,7.884583 2.8575,1.693333 1.878541,1.084792 3.307291,2.248958 1.402292,1.164167 3.862917,3.81 5.23875,4.815417 1.375834,0.978958 2.037292,1.084792 3.01625,1.137708 0.978959,0.02646 1.164167,0.343959 2.883959,-0.873125 1.719791,-1.217083 3.65125,-3.889375 7.46125,-6.429375 3.809999,-2.54 12.197291,-7.196666 15.345833,-8.757708 3.175,-1.5875 2.804583,-0.661458 3.65125,-0.661458 0.846666,0 1.031875,0.370417 1.455208,0.687917 0.396875,0.343958 0.661458,0.529166 1.005417,1.27 0.343958,0.740833 0.687916,1.11125 1.005416,3.174999 0.343959,2.037292 0.661459,6.852709 1.005417,9.2075 0.370417,2.328334 0.635,3.33375 1.137708,4.841875 0.47625,1.534584 0.687917,2.143125 1.772709,4.28625 1.084791,2.116667 3.651249,6.402917 4.709583,8.493125 1.031875,2.090207 1.190625,2.725207 1.561041,4.074587 0.370417,1.34937 0.582084,2.69875 0.635,4.02166 0.07937,1.32292 0.132292,2.19604 -0.238125,3.88938 -0.370416,1.69333 -0.423333,2.64583 -2.037291,6.29708 -1.5875,3.65125 -4.788958,10.66271 -7.62,15.63688 -2.831042,4.97416 -7.249583,11.27125 -9.339792,14.20812 -2.090208,2.93688 -2.037291,2.32833 -3.201458,3.41313 -1.190625,1.05833 -2.090208,1.93145 -3.862917,3.01625 -1.772708,1.08479 -4.444999,2.64583 -6.799791,3.51895 -2.328333,0.84667 -4.7625,1.42875 -7.276042,1.66688 -2.513541,0.26458 -5.265208,0.18521 -7.77875,-0.18521 -2.513541,-0.39687 -5.027083,-1.16417 -7.249583,-2.09021 -2.2225,-0.92604 -4.180416,-2.11666 -6.058958,-3.46604 -1.8785418,-1.32292 -2.4077084,-0.92604 -5.2122917,-4.57729 -2.778125,-3.67771 -8.3343749,-11.7475 -11.5093749,-17.33021 -3.1749999,-5.60917 -6.0854164,-12.83229 -7.5141664,-16.21896 -1.42875,-3.36021 -0.873125,-2.75166 -1.084792,-4.10104 -0.211666,-1.32292 -0.449791,-2.11667 -0.211666,-3.88937 0.238125,-1.74625 0.47625,-3.86292 1.640416,-6.61459 1.164167,-2.778122 4.1804168,-7.593538 5.3445835,-9.94833 1.1641666,-2.328333 1.2435416,-2.592917 1.6933333,-4.101042 0.47625,-1.481666 0.7408333,-2.328333 1.1377083,-4.841875 0.3704167,-2.513541 0.6614583,-7.831666 1.1641666,-10.212916 0.5291667,-2.407708 1.508125,-3.360208 1.9314584,-4.1275 0.4497916,-0.767292 -0.15875,-0.555625 0.6614583,-0.449792 z"
         fill="#3d207a"
         id="path4"
         style="stroke-width:0.264583" /><path
         d="m -1.3265596,68.747004 c 0.7408333,0.07937 1.00541662,-0.529167 3.9422916,0.899583 2.936875,1.455208 10.900833,6.111875 13.705416,7.77875 2.831042,1.640416 1.74625,1.005416 3.122084,2.169583 1.375833,1.164167 3.730625,3.81 5.159375,4.815417 1.42875,1.005416 2.275416,1.217083 3.360208,1.27 1.11125,0.02646 1.481667,0.264583 3.254375,-0.978959 1.772708,-1.243541 3.677708,-3.995208 7.381875,-6.482291 3.704166,-2.487084 11.853333,-6.932083 14.869583,-8.466667 3.042708,-1.534583 2.38125,-0.846666 3.254375,-0.714375 0.899583,0.132292 1.5875,0.767292 2.090208,1.534584 0.502709,0.767291 0.555625,0.423333 0.978959,3.042708 0.449791,2.619375 1.084791,9.816041 1.666875,12.673541 0.555625,2.883959 0.396875,1.878542 1.719791,4.60375 1.322917,2.725209 4.947708,9.075208 6.138333,11.747502 1.164167,2.67229 0.820209,2.88396 0.9525,4.31271 0.132292,1.42875 0.238125,2.48708 -0.15875,4.25979 -0.396875,1.77271 -0.635,3.12208 -2.248958,6.35 -1.5875,3.22791 -4.60375,9.04875 -7.355416,12.99104 -2.725209,3.96875 -6.641042,8.09625 -9.075209,10.76854 -2.460625,2.67229 -3.624791,3.73063 -5.609166,5.23875 -1.984375,1.48167 -4.153959,2.75167 -6.323542,3.73063 -2.169583,0.9525 -4.497916,1.66687 -6.746875,2.06375 -2.275416,0.39687 -4.550833,0.5027 -6.852708,0.3175 -2.301875,-0.18521 -4.7625,-0.7673 -6.905625,-1.48167 -2.116667,-0.71438 -4.021667,-1.66688 -5.900208,-2.80458 -1.852083,-1.13771 -2.8575,-1.66688 -5.2652084,-3.99521 -2.38125,-2.32834 -6.85270826,-7.3025 -9.1016666,-9.94834 -2.2489583,-2.64583 -2.4341666,-2.77812 -4.3391666,-5.97958 -1.905,-3.20146 -5.6885414,-10.34521 -7.0643744,-13.22917 -1.375834,-2.88395 -0.9525,-2.69875 -1.190625,-4.02166 -0.211667,-1.32292 -0.423334,-2.16959 -0.185209,-3.83646 0.211667,-1.69333 0.449792,-3.57188 1.561042,-6.21771 1.137708,-2.619374 4.0481248,-7.249582 5.2122914,-9.551457 1.1641667,-2.301875 1.2964584,-2.804583 1.7727084,-4.28625 0.47625,-1.508125 0.7143749,-2.275416 1.0583333,-4.683125 0.3439583,-2.407708 0.5820833,-7.567083 1.031875,-9.816041 0.4233333,-2.248958 1.2435416,-3.01625 1.5874999,-3.704167 0.3704167,-0.687916 -0.2116666,-0.47625 0.5027084,-0.370416 z"
         fill="#5c2590"
         id="path5"
         style="stroke-width:0.264583" /><path
         d="m -0.10947631,70.943045 c 0.58208333,0.105834 0.39687499,-0.502708 3.09562501,0.820209 2.6722916,1.296458 10.3716663,5.503333 13.0439583,7.011458 2.645833,1.534583 1.5875,0.926041 2.936875,2.090208 1.375833,1.137708 3.757083,3.836458 5.23875,4.868333 1.508125,1.031875 2.54,1.27 3.757083,1.349375 1.190625,0.05292 1.640417,0.291042 3.4925,-0.978958 1.852083,-1.27 4.021667,-4.259792 7.62,-6.614583 3.598333,-2.354792 11.138958,-6.19125 13.890625,-7.567084 2.778125,-1.375833 1.957916,-0.767291 2.69875,-0.687916 0.767291,0.105833 1.349375,0.582083 1.772708,1.217083 0.423333,0.635 0.423333,0.132292 0.846667,2.54 0.423333,2.434167 1.084791,9.260417 1.666875,12.012083 0.582083,2.778125 0.47625,1.905 1.74625,4.577292 1.27,2.672292 4.788958,8.863545 5.926666,11.429995 1.11125,2.56646 0.740833,2.61938 0.846667,3.91584 0.132291,1.29646 0.264583,2.16958 -0.132292,3.83646 -0.396875,1.64041 -0.608541,3.01625 -2.2225,6.08541 -1.613958,3.09563 -5.132916,9.04875 -7.46125,12.3825 -2.328333,3.36021 -4.365625,5.47688 -6.535208,7.75229 -2.169583,2.30188 -4.418542,4.41855 -6.455833,5.97959 -2.06375,1.56104 -3.783542,2.48708 -5.87375,3.38666 -2.090208,0.89959 -4.392083,1.56105 -6.693958,1.95792 -2.275417,0.37042 -4.709584,0.47625 -7.037917,0.3175 -2.328333,-0.15875 -4.815417,-0.635 -6.905625,-1.27 -2.116667,-0.635 -3.915833,-1.48167 -5.688541,-2.51354 -1.799167,-1.03188 -3.01625,-1.82563 -5.0535421,-3.67771 -2.06375,-1.82562 -5.1858333,-5.05354 -7.1966666,-7.35542 -2.01083327,-2.30187 -2.9104166,-3.28083 -4.9212499,-6.45583 -2.0108333,-3.175 -5.7943749,-9.92187 -7.1702084,-12.62062 -1.375833,-2.69875 -0.899583,-2.38125 -1.137708,-3.57188 -0.238125,-1.19062 -0.449792,-2.03729 -0.264583,-3.62479 0.185208,-1.56104 0.02646,-2.56646 1.402291,-5.82083 1.3758335,-3.254379 5.5297918,-10.636253 6.8527084,-13.70542 1.3229167,-3.042708 0.7408333,-2.354792 1.0847917,-4.630208 0.3439583,-2.248959 0.5820833,-6.932084 0.9789583,-8.942917 0.4233333,-2.037292 1.1377083,-2.592916 1.45520829,-3.175 0.29104167,-0.582083 -0.18520833,-0.396875 0.396875,-0.3175 z"
         fill="#7e2a8e"
         id="path6"
         style="stroke-width:0.264583" /><path
         d="m 2.060107,75.94367 c 0.6085417,0 1.190625,-0.449792 3.33375,0.238125 2.1166666,0.687917 7.276042,2.831042 9.392708,3.836458 2.143125,0.978959 1.905,0.926042 3.413125,2.143125 1.481667,1.217084 4.312708,4.101042 5.582708,5.132917 1.27,1.031875 1.375834,0.820208 2.06375,1.058333 0.714375,0.238125 1.402292,0.343959 2.090209,0.370417 0.714375,0 1.402291,-0.07937 2.116666,-0.264583 0.687917,-0.211667 0.661459,0.15875 2.116667,-0.9525 1.42875,-1.137709 4.60375,-4.392084 6.482292,-5.794375 1.878541,-1.402292 2.592916,-1.640417 4.788958,-2.592917 2.2225,-0.978958 6.773333,-2.672292 8.519583,-3.175 1.74625,-0.502708 1.375833,-0.07937 1.905,0.15875 0.555625,0.211667 0.502708,-1.11125 1.322917,1.190625 0.846666,2.301875 1.931458,8.281458 3.65125,12.647083 1.719791,4.392084 5.423958,10.768542 6.6675,13.599582 1.243541,2.83104 0.635,2.2225 0.740833,3.36021 0.105833,1.13771 0.238125,1.95792 -0.132292,3.46604 -0.343958,1.48167 -0.396875,2.51354 -2.010833,5.52979 -1.640417,3.04271 -5.423958,9.26042 -7.752292,12.62063 -2.301875,3.38666 -4.180416,5.45041 -6.164791,7.59354 -2.010834,2.14312 -3.915834,3.88937 -5.820834,5.29167 -1.878541,1.42875 -3.624791,2.35479 -5.556249,3.175 -1.957917,0.79375 -4.021667,1.34937 -6.138334,1.69333 -2.143125,0.3175 -4.445,0.42333 -6.614583,0.26458 -2.196042,-0.13229 -4.550833,-0.635 -6.482292,-1.19062 -1.931458,-0.58209 -3.466041,-1.29646 -5.159374,-2.24896 -1.666875,-0.97896 -3.122084,-1.98438 -4.8947921,-3.57188 -1.7727083,-1.5875 -3.9158333,-3.83645 -5.7149999,-5.92666 -1.7727083,-2.11667 -2.91041666,-3.43959 -5.000625,-6.64104 -2.0637499,-3.22792 -6.0060416,-9.94834 -7.4347915,-12.62063 -1.4287505,-2.67229 -0.8995834,-2.24896 -1.1377084,-3.38667 -0.2381251,-1.1377 -0.4497921,-1.95791 -0.2645831,-3.43958 0.1587498,-1.48167 0.052917,-2.46062 1.3229165,-5.45042 1.2699999,-2.989787 4.7624999,-8.625412 6.2706249,-12.488328 1.50812497,-3.862917 2.06374996,-8.493125 2.75166662,-10.715625 C 1.0017737,76.631587 1.3721903,76.710962 1.663232,76.234712 1.9542737,75.732003 1.425107,75.94367 2.060107,75.94367 Z"
         fill="#a52e7a"
         id="path7"
         style="stroke-width:0.264583" /><path
         d="m 5.235107,80.441587 c 0.7143749,-0.02646 2.4606249,-0.291042 3.9687499,-0.05292 1.5081251,0.238125 3.7041671,0.926042 5.0535421,1.481667 1.375833,0.555625 1.666874,0.740833 3.122083,1.905 1.481666,1.164166 4.048125,3.96875 5.741458,5.08 1.693333,1.084791 3.280833,1.296458 4.418542,1.534583 1.164166,0.211667 1.666875,0 2.487083,-0.211667 0.820208,-0.185208 0.846667,0.238125 2.460625,-0.9525 1.640417,-1.164166 5.23875,-4.736041 7.276042,-6.138333 2.063749,-1.375833 3.704166,-1.772708 5.079999,-2.248958 1.375834,-0.449792 2.2225,-0.502709 3.201459,-0.555625 0.9525,-0.07937 1.799166,0 2.54,0.185208 0.740833,0.211667 1.349375,0.555625 1.905,1.031875 0.555625,0.47625 0.555625,0.02646 1.402291,1.825625 0.846667,1.799167 2.169584,5.635625 3.65125,8.969375 1.508125,3.33375 4.28625,8.519583 5.291667,11.033123 1.031875,2.48709 0.767292,2.69875 0.846667,3.9423 0.07937,1.27 0.132291,2.11666 -0.3175,3.62479 -0.449792,1.48166 -0.238125,1.71979 -2.38125,5.31812 -2.143125,3.59834 -7.831667,12.51479 -10.4775,16.24542 -2.672292,3.73062 -3.65125,4.47146 -5.503334,6.13833 -1.852083,1.66688 -3.704166,2.91042 -5.609166,3.91584 -1.905,0.97895 -3.81,1.5875 -5.87375,2.01083 -2.06375,0.42333 -4.392083,0.60854 -6.561667,0.52917 -2.143125,-0.0794 -4.365625,-0.4498 -6.323541,-1.03188 -1.957917,-0.58208 -3.81,-1.48167 -5.476875,-2.46062 -1.666875,-0.97896 -2.963333,-2.06375 -4.471458,-3.46605 -1.4816671,-1.42875 -1.8256254,-1.21708 -4.4714587,-5.05354 -2.6722917,-3.81 -9.2604166,-13.94354 -11.5358332,-17.83291 -2.2489583,-3.88938 -1.7727083,-3.65125 -2.0108333,-5.50334 -0.2645833,-1.85208 -1.0847917,-1.29646 0.47625,-5.60916 1.5875,-4.312715 7.22312488,-16.562923 8.9429165,-20.26709 1.6933333,-3.704166 0.79375,-1.455208 1.27,-1.984375 C 3.806357,81.314709 4.520732,80.891375 4.838232,80.65325 5.1292736,80.415125 4.4942736,80.4945 5.235107,80.441584 Z"
         fill="#c83465"
         id="path8"
         style="stroke-width:0.264583" /><path
         d="m 7.8544819,83.193253 c 0.555625,-0.02646 2.0108333,-0.185208 3.0691671,-0.02646 1.058333,0.15875 1.349375,-0.264583 3.254375,0.9525 1.904999,1.190625 6.058958,4.974167 8.175624,6.297083 2.116667,1.349375 3.307292,1.402292 4.550834,1.640417 1.27,0.264583 2.06375,0.07938 3.01625,-0.07937 0.978958,-0.15875 1.005416,0.291042 2.804583,-0.899583 1.799167,-1.190625 5.900208,-4.92125 7.990417,-6.244167 2.090208,-1.296458 3.386666,-1.402292 4.603749,-1.666875 1.217084,-0.264583 1.931459,-0.105833 2.751667,0.05292 0.820208,0.15875 1.561042,0.423333 2.2225,0.873125 0.661458,0.423333 1.243542,0.978958 1.825625,1.74625 0.555625,0.79375 0.264583,-0.07938 1.5875,2.883958 1.349375,2.963333 5.265208,11.800419 6.429375,14.948959 1.164167,3.14854 0.582083,2.61938 0.555625,3.91584 0,1.27 -0.238125,2.56645 -0.635,3.81 -0.423333,1.24354 0.608542,-0.3175 -1.825625,3.65125 -2.407708,3.96875 -9.789583,15.98083 -12.7,20.10833 -2.936875,4.1275 -3.122083,3.43958 -4.841875,4.68312 -1.719791,1.24355 -3.677708,2.11667 -5.450416,2.75167 -1.772709,0.635 -3.413125,0.89958 -5.23875,1.03188 -1.799167,0.13229 -3.836459,0.0529 -5.609167,-0.21167 -1.74625,-0.26458 -3.360208,-0.71438 -4.947708,-1.37583 -1.561042,-0.68792 -3.227917,-1.74625 -4.497917,-2.64584 -1.243541,-0.92604 -2.06375,-1.77271 -3.01625,-2.80458 -0.9525,-1.03188 -0.132291,0.52917 -2.6722914,-3.41313 -2.5135417,-3.96875 -10.18645823,-16.08666 -12.4618749,-20.32 -2.2754166,-4.23333 -1.2170833,-3.28083 -1.2435416,-5.08 -0.026458,-1.7727 -0.2645834,-2.16958 1.0583333,-5.66208 1.349375,-3.518961 5.4768749,-12.408961 6.9056249,-15.319377 1.42875,-2.910417 1.031875,-1.5875 1.7197917,-2.169584 0.6614583,-0.582083 1.8256249,-1.084791 2.2754166,-1.322916 0.4233333,-0.238125 -0.238125,-0.07937 0.3439583,-0.105834 z"
         fill="#e04550"
         id="path9"
         style="stroke-width:0.264583" /><path
         d="m 9.1244819,85.759712 c 0.4233333,-0.02646 1.5081251,-0.132292 2.2489581,-0.05292 0.740834,0.105833 0.423334,-0.502708 2.2225,0.608542 1.825625,1.11125 6.720417,4.894791 8.625417,6.111875 1.905,1.190625 1.799166,0.820208 2.778125,1.058333 1.005416,0.238125 2.090208,0.396875 3.122083,0.396875 1.031875,0 2.116667,-0.15875 3.122083,-0.396875 0.978959,-0.238125 0.873125,0.132292 2.778125,-1.058333 1.905,-1.217084 6.799792,-5.000625 8.625417,-6.111875 1.799166,-1.11125 1.508125,-0.502709 2.2225,-0.608542 0.714375,-0.07937 1.42875,-0.05292 2.116666,0.07937 0.661459,0.132292 1.296459,0.370417 1.878542,0.714375 0.608542,0.370417 0.846667,0.211667 1.666875,1.455208 0.79375,1.243542 2.06375,3.307292 3.201458,6.0325 1.137709,2.725209 2.963334,7.937495 3.571875,10.265835 0.635,2.32833 0.264584,2.59291 0.132292,3.75708 -0.132292,1.19062 0.529167,0.79375 -0.899583,3.28083 -1.402292,2.48709 -5.185834,7.59354 -7.593542,11.66813 -2.407708,4.07458 -5.027083,9.97479 -6.852708,12.72646 -1.825625,2.75166 -2.592917,2.83104 -4.101042,3.83645 -1.481666,1.03188 -3.307291,1.74625 -4.92125,2.19605 -1.613958,0.47625 -3.175,0.60854 -4.709583,0.635 -1.534583,0.0264 -3.122083,-0.15875 -4.550833,-0.47625 -1.42875,-0.3175 -2.831042,-0.82021 -4.074584,-1.45521 -1.243541,-0.66146 -2.275416,-1.29646 -3.439583,-2.40771 -1.137708,-1.08479 -1.957916,-1.74625 -3.439583,-4.20688 -1.455208,-2.46061 -3.1750001,-6.77332 -5.3445834,-10.5304 C 5.314482,119.547 1.1605237,114.1495 -0.29468464,111.292 -1.749893,108.4345 -1.353018,108.06409 -1.273643,106.13263 c 0.079375,-1.905 0.39687503,-3.46604 1.42875002,-6.297085 C 1.1605237,97.004503 3.7534403,91.315962 4.838232,89.172837 c 1.0847916,-2.116667 1.1112499,-1.5875 1.7991666,-2.143125 0.6614583,-0.555625 1.7991666,-0.978959 2.2225,-1.190625 0.396875,-0.211667 -0.15875,-0.05292 0.2645833,-0.07938 z"
         fill="#ec6530"
         id="path10"
         style="stroke-width:0.264583" /><path
         d="m 10.024065,88.48492 c 0.661459,0.07937 1.640417,-0.396875 3.704167,0.635 2.06375,1.005417 6.323541,4.365625 8.73125,5.450417 2.38125,1.084791 3.783541,1.084791 5.662083,1.084791 1.878542,0 3.307292,0 5.662083,-1.084791 2.38125,-1.084792 6.50875,-4.365625 8.5725,-5.371042 2.037292,-1.005417 2.804583,-0.687917 3.704167,-0.714375 0.899583,-0.02646 1.137708,0.264583 1.666875,0.582083 0.529166,0.291042 0.820208,0.291042 1.481666,1.27 0.687917,0.9525 1.852084,2.989792 2.54,4.577292 0.714375,1.561042 1.296459,3.386667 1.719792,4.894791 0.396875,1.481664 0.661458,2.804584 0.767292,4.074584 0.105833,1.27 0.07937,2.40771 -0.07937,3.54542 -0.185209,1.11125 0.714375,0.44979 -0.926042,3.14854 -1.666875,2.69875 -6.50875,8.78416 -8.942917,13.0175 -2.434166,4.20687 -4.233333,9.76312 -5.688541,12.30312 -1.481667,2.54 -1.931458,2.16959 -3.122083,2.93688 -1.217084,0.79375 -2.831042,1.34937 -4.074584,1.69333 -1.27,0.34396 -2.301875,0.39688 -3.4925,0.37042 -1.217083,-0.0265 -2.54,-0.21167 -3.677708,-0.52917 -1.137708,-0.29104 -2.196042,-0.76729 -3.122083,-1.32292 -0.9525,-0.55562 -1.693334,-1.08479 -2.487084,-2.01083 -0.820208,-0.89958 -1.243541,-1.19062 -2.354791,-3.46604 -1.137709,-2.24896 -2.487083,-6.82625 -4.392083,-10.16 -1.9314588,-3.30729 -5.6356254,-7.64646 -7.117292,-9.81604 -1.508125,-2.16959 -1.349375,-1.77271 -1.825625,-3.20146 -0.4497917,-1.42875 -1.031875,-3.41313 -0.9789583,-5.3975 0.026458,-1.95792 0.4497916,-4.10104 1.1906249,-6.402917 0.7408334,-2.301875 2.4077084,-5.847291 3.2014583,-7.381875 0.79375,-1.508125 1.0054167,-1.296458 1.5875,-1.74625 0.5820833,-0.449791 1.5345833,-0.767291 1.8785417,-0.9525 0.3439584,-0.15875 -0.4497917,-0.132291 0.2116664,-0.02646 z"
         fill="#f08828"
         id="path11"
         style="stroke-width:0.264583" /><path
         d="m 10.73844,91.898045 c 0.555625,0.07937 1.217084,-0.3175 3.175,0.47625 1.957917,0.79375 6.164792,3.439583 8.546042,4.312708 2.354791,0.873125 3.730625,0.926042 5.662083,0.926042 1.931458,-0.02646 3.4925,-0.132292 5.87375,-0.978958 2.354792,-0.873125 6.482292,-3.466042 8.334375,-4.259792 1.878541,-0.79375 1.957916,-0.635 2.831041,-0.529167 0.873125,0.132292 1.719792,0.449792 2.460625,1.190625 0.740834,0.714375 1.481667,2.06375 2.010834,3.201459 0.502708,1.137708 0.846666,2.381249 1.11125,3.624791 0.264583,1.243537 0.449791,2.619377 0.502708,3.836457 0.02646,1.19063 -0.05292,2.32833 -0.264583,3.38667 -0.185209,1.05833 -0.396875,1.87854 -0.926042,2.96333 -0.529167,1.08479 -0.449792,1.24354 -2.2225,3.59833 -1.772708,2.3548 -6.297083,6.90563 -8.466666,10.58334 -2.196042,3.67771 -3.518959,9.26041 -4.630209,11.50937 -1.11125,2.24896 -1.243541,1.45521 -2.010833,1.95792 -0.740833,0.50271 -1.322917,0.89958 -2.54,1.05833 -1.190625,0.15875 -3.624792,0.0265 -4.736042,-0.15875 -1.11125,-0.18521 -1.322916,-0.50271 -1.931458,-0.89958 -0.608542,-0.39688 -1.137708,-0.84667 -1.666875,-1.50813 -0.529167,-0.66145 -0.873125,-1.05833 -1.455208,-2.51354 -0.582084,-1.45521 -1.375834,-4.65666 -1.984375,-6.21771 -0.582084,-1.5875 0.15875,-0.89958 -1.534584,-3.22791 -1.693333,-2.32834 -6.773333,-8.30792 -8.5724994,-10.74209 -1.825625,-2.4077 -1.7197917,-2.35479 -2.2754167,-3.81 -0.5556249,-1.42875 -0.9524999,-3.06916 -1.0318749,-4.84187 -0.052917,-1.77271 0.238125,-3.99521 0.7143749,-5.820834 0.4497917,-1.799166 1.5345834,-3.942291 2.0902084,-5.000624 0.5556249,-1.058334 0.7672916,-0.978959 1.2170833,-1.322917 0.47625,-0.343958 1.2435414,-0.635 1.5345834,-0.767292 0.291042,-0.132291 -0.370417,-0.105833 0.185208,-0.02646 z"
         fill="#f5a623"
         id="path12"
         style="stroke-width:0.264583" /><path
         d="m 12.061357,96.210753 c 0.502708,0.02646 0.978958,-0.343958 2.8575,0.185209 1.878541,0.502708 6.19125,2.301874 8.41375,2.857499 2.196041,0.582084 3.122083,0.555625 4.788958,0.529167 1.666875,-0.02646 3.069167,-0.05292 5.23875,-0.608542 2.169583,-0.582083 6.058958,-2.222499 7.77875,-2.725208 1.719791,-0.529166 1.719791,-0.423333 2.487083,-0.3175 0.767292,0.07937 1.561042,0.396875 2.143125,0.873125 0.582083,0.47625 0.978958,0.740834 1.349375,2.010833 0.370417,1.270004 0.9525,3.757084 0.873125,5.556254 -0.07937,1.82562 -0.555625,3.62479 -1.349375,5.23875 -0.767292,1.64041 -1.190625,2.19604 -3.386667,4.55083 -2.169583,2.35479 -7.858124,7.48771 -9.736666,9.57792 -1.878542,2.0902 -1.005417,1.42875 -1.534583,2.96333 -0.529167,1.53458 -1.031875,4.97417 -1.613959,6.29708 -0.555625,1.34938 -1.243541,1.45521 -1.799166,1.69334 -0.555625,0.23812 -1.031875,0.0264 -1.481667,-0.23813 -0.423333,-0.23812 -0.661458,0.0265 -1.137708,-1.27 -0.47625,-1.29646 -1.137709,-4.89479 -1.693334,-6.48229 -0.555625,-1.61396 0.291042,-0.9525 -1.640416,-3.12208 -1.957917,-2.14313 -7.77875,-7.38188 -10.027708,-9.81605 -2.2225,-2.46062 -2.6193754,-3.41312 -3.3337504,-4.86833 -0.714375,-1.42875 -0.8466667,-2.43417 -0.9525,-3.81 -0.1058333,-1.37583 0,-3.175 0.2645833,-4.445 0.238125,-1.269999 0.7408333,-2.407707 1.2964583,-3.174998 0.5556248,-0.767292 1.6668748,-1.164167 2.0108338,-1.42875 0.370416,-0.238125 -0.3175,-0.05292 0.185208,-0.02646 z"
         fill="#f8cc50"
         id="path13"
         style="stroke-width:0.264583" /><path
         d="m 15.924273,101.84638 c 0.423334,-0.0529 0.423334,-0.29104 2.328334,-0.15875 1.905,0.15875 5.715,1.00541 9.075208,1.00541 3.360208,0 8.784167,-0.97895 11.138958,-1.03187 2.354792,-0.0529 2.301875,0.37042 2.936875,0.68792 0.661458,0.29104 0.714375,0.66145 0.926042,1.19062 0.185208,0.50271 0.47625,0.92604 0.3175,1.87854 -0.185209,0.9525 -0.502709,2.59292 -1.322917,3.83646 -0.846666,1.21708 -2.248958,2.56646 -3.65125,3.4925 -1.375833,0.9525 -3.254375,1.71979 -4.683125,2.19604 -1.42875,0.47625 -2.513541,0.58209 -3.836458,0.66146 -1.349375,0.0529 -2.883958,-0.0265 -4.180417,-0.26458 -1.322916,-0.21167 -2.513541,-0.58209 -3.677708,-1.08479 -1.164167,-0.50271 -2.328333,-1.16417 -3.360208,-1.93146 -1.031875,-0.79375 -2.090209,-1.79917 -2.778125,-2.77813 -0.714375,-0.9525 -1.217083,-2.03729 -1.42875,-3.04271 -0.211667,-1.00541 -0.132292,-2.19604 0.185208,-2.96333 0.343959,-0.76729 1.481667,-1.34937 1.799167,-1.64042 0.343958,-0.29104 -0.211667,-0.0264 0.211666,-0.0529 z"
         fill="#fae878"
         id="path14"
         style="stroke-width:0.264583" /></g></g></svg>
