<?xml version="1.0" encoding="UTF-8" standalone="no"?>
<!-- Created with Inkscape (http://www.inkscape.org/) -->

<svg
   width="500"
   height="500"
   viewBox="0 0 132.29166 132.29166"
   version="1.1"
   id="svg1"
   xml:space="preserve"
   xmlns:xlink="http://www.w3.org/1999/xlink"
   xmlns="http://www.w3.org/2000/svg"
   xmlns:svg="http://www.w3.org/2000/svg"><defs
     id="defs1"><linearGradient
       id="headerGradient"
       x1="66.145828"
       y1="0"
       x2="66.145828"
       y2="62.084065"
       gradientUnits="userSpaceOnUse"><stop
         offset="0"
         style="stop-color:#eef4fb;stop-opacity:1;"
         id="stop3" /><stop
         offset="1"
         style="stop-color:#d9e5f4;stop-opacity:1;"
         id="stop4" /></linearGradient><linearGradient
       id="bandGradient"
       x1="0"
       y1="54.018993"
       x2="132.29166"
       y2="68.19204"
       gradientUnits="userSpaceOnUse"><stop
         offset="0"
         style="stop-color:#c9d9ec;stop-opacity:1;"
         id="stop5" /><stop
         offset="0.5"
         style="stop-color:#bfd2e9;stop-opacity:1;"
         id="stop6" /><stop
         offset="1"
         style="stop-color:#c9d9ec;stop-opacity:1;"
         id="stop7" /></linearGradient><linearGradient
       id="panelGradient"
       x1="66.145828"
       y1="15.2"
       x2="66.145828"
       y2="60.6"
       gradientUnits="userSpaceOnUse"><stop
         offset="0"
         style="stop-color:#c6d7ed;stop-opacity:0.72;"
         id="stop8" /><stop
         offset="1"
         style="stop-color:#d6e3f4;stop-opacity:0.36;"
         id="stop9" /></linearGradient><radialGradient
       id="heroGlow"
       cx="66.145828"
       cy="41.8"
       r="24.5"
       gradientUnits="userSpaceOnUse"><stop
         offset="0"
         style="stop-color:#ffffff;stop-opacity:0.98;"
         id="stop10" /><stop
         offset="0.54"
         style="stop-color:#f8fbff;stop-opacity:0.82;"
         id="stop11" /><stop
         offset="1"
         style="stop-color:#dce7f4;stop-opacity:0;"
         id="stop12" /></radialGradient><radialGradient
       id="faceFill"
       gradientTransform="scale(1.0023538,0.99765168)"
       cx="13.19809"
       cy="9.6999143"
       fx="13.19809"
       fy="9.6999143"
       r="2.0265951"
       gradientUnits="userSpaceOnUse"><stop
         offset="0"
         style="stop-color:#fffdfa;stop-opacity:0.95;"
         id="stop13" /><stop
         offset="1"
         style="stop-color:#fdf4d7;stop-opacity:0.45;"
         id="stop14" /></radialGradient><linearGradient
       xlink:href="#bandGradient"
       id="linearGradient1"
       gradientUnits="userSpaceOnUse"
       x1="0"
       y1="54.018993"
       x2="132.29166"
       y2="68.19204" /><linearGradient
       xlink:href="#bandGradient"
       id="linearGradient2"
       gradientUnits="userSpaceOnUse"
       x1="0"
       y1="54.018993"
       x2="132.29166"
       y2="68.19204" /></defs><path
     id="rect15-9-9"
     style="fill:url(#headerGradient);fill-opacity:1;stroke:none;stroke-width:0.161662;stroke-opacity:1"
     d="M 30.574361,0 V 44.744039 H 0 V 62.084065 H 132.29166 V 44.744039 H 101.22121 V 0 Z" /><path
     style="fill:#86888d;fill-opacity:1;stroke-width:0.469936"
     d="m 86.872365,122.09091 c -0.06815,-0.023 -0.2787,-0.076 -0.4679,-0.11805 -0.42625,-0.0947 -0.83338,-0.49 -0.83338,-0.80901 0,-0.13195 0.14085,-0.40845 0.31305,-0.61438 0.1884,-0.22535 0.2624,-0.40595 0.1859,-0.45355 -0.1898,-0.11805 -0.1534,-0.63558 0.057,-0.81135 0.1612,-0.13465 0.15345,-0.193 -0.06195,-0.4687 -0.4852,-0.62089 -0.16915,-1.62229 0.60672,-1.92234 0.19635,-0.0759 0.80177,-0.0916 1.532855,-0.0395 1.07267,0.0763 1.20832,0.1124 1.20832,0.32195 0,0.15075 -0.0872,0.23605 -0.2413,0.23605 -0.2007,0 -0.2381,0.081 -0.2222,0.4815 0.0345,0.87429 -0.51726,1.38751 -1.49646,1.39161 -0.25115,0.001 -0.533525,0.0509 -0.627455,0.1108 -0.3364,0.2145 0.0055,0.37095 1.002205,0.45845 0.82119,0.0721 1.067145,0.14345 1.299095,0.37695 0.37575,0.3782 0.37195,0.92316 -0.009,1.28328 -0.4516,0.42705 -1.72044,0.75278 -2.24558,0.57645 z m 1.52881,-0.86274 c 0.1549,-0.1559 0.1706,-0.2537 0.0673,-0.4193 -0.16815,-0.26955 -1.57857,-0.3753 -1.860775,-0.13955 -0.2687,0.22445 -0.15505,0.64751 0.2027,0.75448 0.47345,0.14155 1.36467,0.032 1.59078,-0.19565 z m -0.4542,-2.65052 c 0.461,-0.41995 0.12365,-1.16575 -0.527305,-1.16575 -0.44285,0 -0.73323,0.29745 -0.73323,0.75118 0,0.58375 0.789705,0.84346 1.260535,0.41455 z m -38.260358,3.29021 c -0.03345,-0.0878 -0.04565,-1.25259 -0.02705,-2.58846 l 0.03375,-2.42886 0.285664,-0.041 c 0.157111,-0.0225 0.359456,0.021 0.449656,0.0962 0.1148,0.0959 0.26385,0.0988 0.49695,0.01 0.521565,-0.1996 1.332424,-0.14971 1.751955,0.10779 1.05805,0.64945 1.054009,2.59577 -0.007,3.25567 -0.4946,0.30771 -1.567211,0.34685 -1.799021,0.0657 -0.26345,-0.31956 -0.37295,-0.0798 -0.37295,0.81682 v 0.86586 h -0.375649 c -0.206621,0 -0.403056,-0.0718 -0.436526,-0.1596 z m 2.611448,-2.36073 c 0.2856,-0.3416 0.32495,-0.48145 0.27105,-0.96266 -0.11945,-1.0668 -1.02092,-1.45958 -1.7245,-0.75138 -0.3525,0.35485 -0.3735,0.426 -0.30365,1.02915 0.08785,0.75804 0.3931,1.08456 1.01394,1.08456 0.3081,0 0.49145,-0.0986 0.74312,-0.3997 z m -24.292554,0.82257 c -1.072779,-0.58787 -1.466469,-1.33728 -1.40605,-2.67647 0.03885,-0.86152 0.08569,-1.02023 0.42681,-1.44654 0.622147,-0.77754 1.193599,-1.03576 2.297483,-1.03816 0.864997,-0.002 0.997581,0.033 1.540496,0.40336 0.811645,0.55393 1.107026,1.16139 1.107026,2.2766 0,1.07832 -0.29497,1.71272 -1.044026,2.24542 -0.46651,0.33175 -0.641082,0.37795 -1.538091,0.40685 -0.750222,0.024 -1.107991,-0.02 -1.383648,-0.1711 z m 2.011357,-0.61513 c 0.748537,-0.30794 0.96297,-0.70959 0.96297,-1.80369 0,-0.76725 -0.0496,-1.00556 -0.27563,-1.32454 -0.365275,-0.51544 -0.88338,-0.71688 -1.652521,-0.64249 -1.149241,0.11115 -1.789793,1.16587 -1.484925,2.44507 0.165021,0.6924 0.47476,1.08952 1.044516,1.33914 0.508001,0.2226 0.83954,0.2194 1.405588,-0.0135 z m 3.906985,0.66003 c -0.24942,-0.31715 -1.396598,-3.38511 -1.301546,-3.48079 0.05417,-0.0546 0.25612,-0.0567 0.44877,-0.005 0.302165,0.0814 0.409615,0.24795 0.782257,1.21302 0.23759,0.61529 0.470465,1.15948 0.5175,1.2093 0.04705,0.05 0.29793,-0.46945 0.557552,-1.15389 0.470505,-1.24044 0.47341,-1.24448 0.895258,-1.24448 0.232775,0 0.423225,0.0255 0.423225,0.0563 0,0.0527 -0.603361,1.46757 -1.130112,2.65004 -0.128215,0.28785 -0.23312,0.57653 -0.23312,0.64157 0,0.27251 -0.763774,0.36301 -0.959784,0.11375 z m 3.569962,-0.072 c -1.20862,-0.65245 -1.162942,-2.73269 0.07305,-3.32673 0.4728,-0.22725 1.35611,-0.2412 1.774539,-0.028 0.437125,0.22265 0.871234,0.92928 0.871234,1.41818 v 0.41814 h -1.363232 c -1.259475,0 -1.363235,0.018 -1.363235,0.2384 0,0.3295 0.692025,0.88548 1.093901,0.87884 0.18221,-0.003 0.541744,-0.0811 0.798955,-0.17345 0.42475,-0.15255 0.47876,-0.1471 0.588668,0.0596 0.177835,0.33445 0.161335,0.3645 -0.308765,0.56223 -0.602026,0.2532 -1.651026,0.23035 -2.165116,-0.047 z m 1.851309,-2.20459 c 0,-0.32915 -0.47233,-0.6861 -0.907871,-0.6861 -0.444555,0 -1.044396,0.49555 -0.894785,0.73924 0.04585,0.0747 0.46315,0.13401 0.942458,0.13401 0.682001,0 0.860198,-0.039 0.860198,-0.18711 z m 1.688893,2.24196 c -0.04275,-0.11224 -0.0778,-0.92923 -0.0778,-1.81555 v -1.61148 h 0.433755 c 0.311835,0 0.433755,0.0551 0.433755,0.19615 0,0.1626 0.05585,0.15195 0.32654,-0.0624 0.179595,-0.14219 0.490025,-0.25854 0.689846,-0.25854 0.322195,0 0.35887,0.0385 0.324095,0.3386 -0.0315,0.2722 -0.120895,0.3553 -0.455695,0.42365 -0.705518,0.1441 -0.815859,0.35674 -0.884784,1.70531 -0.06119,1.19712 -0.06606,1.21286 -0.386945,1.25032 -0.21176,0.0245 -0.35208,-0.033 -0.40277,-0.16615 z m 2.860907,0.11316 c -0.04855,-0.049 -0.08831,-1.28646 -0.08831,-2.75013 v -2.66126 h 0.43617 0.436175 l -0.0334,2.71321 -0.0334,2.71321 -0.314465,0.037 c -0.17295,0.0205 -0.354205,-0.004 -0.40277,-0.052 z m 1.826976,-0.22876 c -0.35426,-0.3566 -0.405785,-0.98924 -0.114645,-1.40763 0.219085,-0.31485 0.88277,-0.5299 1.638422,-0.5309 0.429085,-4.7e-4 0.526704,-0.0435 0.526704,-0.23085 0,-0.4358 -0.433295,-0.68608 -1.019646,-0.58896 -0.906607,0.15015 -1.015631,0.14215 -1.060026,-0.0781 -0.12587,-0.62432 2.03064,-0.82892 2.608971,-0.2475 0.25089,0.2522 0.280015,0.42055 0.317335,1.83392 l 0.0411,1.5562 H 48.34634 c -0.172575,0 -0.361795,-0.0864 -0.42048,-0.19195 -0.09593,-0.17255 -0.143516,-0.1726 -0.470901,-0.001 -0.57626,0.30245 -1.371543,0.2504 -1.733052,-0.11351 z m 1.823841,-0.52398 c 0.12465,-0.11355 0.22664,-0.36615 0.22664,-0.56135 0,-0.3176 -0.0423,-0.3547 -0.402775,-0.35305 -0.798309,0.004 -1.311331,0.5082 -0.955517,0.93974 0.201235,0.24405 0.851912,0.2295 1.131654,-0.0255 z m 6.962534,0.70627 c -0.3624,-0.14715 -0.43575,-0.301 -0.2566,-0.53788 0.12725,-0.16825 0.2299,-0.17785 0.654155,-0.0613 0.673555,0.1851 1.19894,0.0515 1.14691,-0.29155 -0.028,-0.18365 -0.252,-0.3438 -0.782605,-0.55918 -0.857665,-0.34815 -1.05341,-0.55851 -1.05341,-1.13207 0,-0.74459 0.633775,-1.12358 1.68037,-1.00483 0.700225,0.0794 0.963385,0.28145 0.79043,0.60675 -0.1024,0.1926 -0.1738,0.2125 -0.37445,0.10445 -0.13635,-0.0734 -0.45465,-0.11625 -0.707395,-0.0951 -0.3926,0.033 -0.4595,0.0823 -0.4595,0.3395 0,0.2491 0.1038,0.33605 0.60096,0.50346 0.837795,0.2821 1.19603,0.63279 1.19603,1.17084 0,0.67734 -0.55443,1.08321 -1.46569,1.07296 -0.3867,-0.004 -0.82287,-0.0566 -0.969255,-0.116 z m 5.001855,0.0465 c -0.0485,-0.049 -0.0883,-0.86543 -0.0883,-1.81454 v -1.72564 h 0.43715 0.43715 l -0.0345,1.77761 -0.0345,1.77763 -0.31445,0.037 c -0.17295,0.0205 -0.3542,-0.004 -0.40275,-0.0519 z m 1.77064,-1.78587 c 0,-1.76922 0.014,-1.87908 0.23775,-1.87908 0.37465,0 0.629785,0.13535 0.629785,0.3341 0,0.15675 0.027,0.15555 0.1899,-0.008 0.43565,-0.43855 1.698785,-0.4005 2.1168,0.0637 0.1972,0.219 0.24035,0.50243 0.275,1.80636 l 0.041,1.54663 h -0.44385 -0.44385 v -1.36933 c 0,-1.32189 -0.0105,-1.37638 -0.3089,-1.57307 -0.3317,-0.21875 -0.71081,-0.1781 -1.116275,0.11975 -0.212,0.15575 -0.2568,0.36845 -0.30985,1.47118 l -0.06195,1.28912 -0.40275,0.039 -0.4028,0.039 z m 7.12551,1.7157 c -0.25735,-0.69276 -1.548645,-4.89051 -1.548645,-5.03443 0,-0.1245 0.1356,-0.18205 0.429,-0.18205 0.4008,0 0.43785,0.035 0.56441,0.53016 0.16045,0.62814 0.871135,2.85172 0.96271,3.01214 0.035,0.0615 0.16285,-0.2192 0.28395,-0.62372 0.12105,-0.40455 0.36805,-1.23003 0.54889,-1.8344 0.31165,-1.04164 0.3456,-1.09686 0.652165,-1.06034 0.2995,0.0355 0.36725,0.1722 0.917075,1.84734 0.32655,0.99484 0.59786,1.83687 0.60296,1.87118 0.005,0.0345 0.14845,-0.4148 0.3185,-0.99797 0.887615,-3.04348 0.75336,-2.74439 1.23194,-2.74439 0.23565,0 0.4285,0.0165 0.4285,0.0365 0,0.0916 -0.88454,3.13684 -1.20328,4.1426 -0.3361,1.06054 -0.37625,1.12476 -0.72528,1.15968 l -0.3695,0.037 -0.59869,-1.88499 c -0.32925,-1.03674 -0.62461,-1.85889 -0.656295,-1.82698 -0.0315,0.032 -0.19025,0.52669 -0.3524,1.09954 -0.69635,2.46033 -0.728045,2.53529 -1.090125,2.57804 -0.1944,0.023 -0.36045,-0.0295 -0.3959,-0.12475 z m 5.733825,-0.0475 c -0.1866,-0.1019 -0.37385,-0.3242 -0.4162,-0.494 -0.2136,-0.85673 0.4312,-1.45721 1.648665,-1.53524 0.654445,-0.042 0.77983,-0.0866 0.77983,-0.2779 0,-0.2736 -0.4528,-0.61841 -0.80214,-0.61079 -0.1382,0.003 -0.4617,0.0811 -0.71892,0.1734 -0.4263,0.1531 -0.47855,0.1475 -0.590765,-0.0636 -0.20665,-0.3887 0.3853,-0.67667 1.39096,-0.67667 0.751615,0 0.87502,0.036 1.18279,0.34555 0.3365,0.3384 0.34365,0.3759 0.34365,1.80881 v 1.46325 l -0.3408,0.0395 c -0.24345,0.028 -0.3408,-0.0165 -0.3408,-0.15595 0,-0.24095 -0.11415,-0.2421 -0.42645,-0.004 -0.30825,0.23465 -1.27041,0.22785 -1.709765,-0.012 z m 1.77205,-0.68562 c 0.32935,-0.3315 0.27355,-0.78956 -0.1027,-0.84333 -0.4506,-0.0644 -1.12396,0.21605 -1.215435,0.50615 -0.17575,0.55736 0.841025,0.81744 1.31815,0.3372 z m 2.702415,0.1052 c -0.17945,-0.431 -0.527245,-1.24995 -0.77288,-1.81988 l -0.4466,-1.03623 0.51352,0.0385 0.513515,0.0385 0.43635,1.23084 c 0.3929,1.10838 0.453,1.20788 0.60393,1.00012 0.0922,-0.12689 0.2444,-0.4843 0.3383,-0.79422 0.0939,-0.30995 0.26025,-0.77404 0.3697,-1.03132 0.17535,-0.41225 0.25005,-0.4678 0.629275,-0.4678 h 0.4303 l -0.239,0.59254 c -1.214665,3.01129 -1.186805,2.96016 -1.63352,2.99786 -0.403,0.034 -0.42715,0.01 -0.742815,-0.74847 z m 3.86708,0.55718 c -0.64591,-0.3315 -0.908755,-0.77564 -0.919935,-1.5544 -0.0185,-1.29594 0.75947,-2.0398 2.01064,-1.92218 0.74649,0.0702 1.176275,0.377 1.457025,1.04024 0.3712,0.87686 0.32975,0.90841 -1.193305,0.90841 -1.23331,0 -1.363235,0.0215 -1.363235,0.22595 0,0.33885 0.44285,0.75087 0.898005,0.83542 0.23455,0.0435 0.62314,-0.004 0.928775,-0.11305 0.4935,-0.1765 0.53312,-0.17365 0.65063,0.0475 0.17365,0.3266 0.1749,0.3243 -0.2964,0.54939 -0.55855,0.2668 -1.63556,0.2583 -2.17222,-0.017 z m 1.85014,-2.17481 c 0,-0.0814 -0.12125,-0.2778 -0.26945,-0.4366 -0.34535,-0.37005 -0.92165,-0.37775 -1.30265,-0.0175 -0.50957,0.48185 -0.38135,0.60199 0.642645,0.60199 0.634005,0 0.92947,-0.047 0.92947,-0.1479 z m 6.06305,2.02867 c -0.35865,-0.36105 -0.36225,-0.37895 -0.36225,-1.80881 v -1.44416 h 0.43375 0.43375 v 1.24745 c 0,1.08112 0.033,1.28072 0.24785,1.49694 0.33495,0.33715 0.81452,0.31415 1.182965,-0.0567 0.2805,-0.28235 0.3042,-0.399 0.3042,-1.49694 v -1.19075 h 0.43375 0.43375 v 1.8088 1.80881 h -0.35855 c -0.208,0 -0.3892,-0.0804 -0.43155,-0.1915 -0.06565,-0.17215 -0.11015,-0.17215 -0.44085,0 -0.20235,0.1053 -0.625885,0.1915 -0.94124,0.1915 -0.4685,0 -0.63964,-0.0667 -0.93563,-0.36465 z m 4.074695,-1.43694 -0.0375,-1.81642 0.46815,1.9e-4 0.46815,2e-4 -0.0345,1.77761 -0.0345,1.77763 -0.39635,0.0385 -0.3963,0.0385 z m 2.405125,1.60622 c -0.4038,-0.2847 -0.7695,-1.08839 -0.7695,-1.69108 0,-0.74458 0.489,-1.54368 1.06091,-1.73367 0.43185,-0.14345 1.07413,-0.1178 1.63458,0.0653 0.2737,0.0894 0.27885,0.0724 0.27885,-0.92143 V 115.042 h 0.43615 0.43615 l -0.0335,2.71321 -0.0335,2.71322 -0.3029,0.043 c -0.18265,0.026 -0.36465,-0.042 -0.4585,-0.17115 -0.1435,-0.19755 -0.1712,-0.19845 -0.3566,-0.012 -0.2699,0.27165 -1.510485,0.27625 -1.89242,0.007 z m 1.900635,-0.73456 c 0.2433,-0.2449 0.3042,-0.4333 0.3042,-0.94126 0,-0.50794 -0.0609,-0.69636 -0.3042,-0.94126 -0.82267,-0.82808 -2.07471,0.24315 -1.665435,1.42491 0.25475,0.73553 1.14603,0.98043 1.665435,0.4576 z m 2.767405,0.66201 c -1.05911,-0.61822 -1.15168,-2.17919 -0.18325,-3.08987 0.42415,-0.39885 1.46904,-0.50381 2.04278,-0.20515 0.49405,0.25715 0.88123,0.87673 0.88184,1.41109 l 4.7e-4,0.4054 h -1.29396 c -0.71168,0 -1.32745,0.0545 -1.36839,0.1212 -0.14045,0.22875 0.33475,0.75015 0.81589,0.89525 0.3978,0.11995 0.57083,0.10945 1.00176,-0.0609 0.4079,-0.1613 0.54218,-0.17225 0.61893,-0.0506 0.18875,0.2992 0.0983,0.48145 -0.32795,0.66073 -0.63549,0.2673 -1.65021,0.22685 -2.18815,-0.0872 z m 1.93567,-2.10121 c 0.13475,-0.21945 -0.51818,-0.74951 -0.9232,-0.74951 -0.40085,0 -0.87315,0.3711 -0.87315,0.68609 0,0.14836 0.1782,0.1871 0.8602,0.1871 0.4731,0 0.89438,-0.0556 0.93615,-0.1237 z m 1.76206,2.22916 c -0.277,-0.107 -0.32915,-0.18665 -0.26345,-0.40215 0.11515,-0.37765 0.12575,-0.38195 0.52696,-0.21465 0.1979,0.0825 0.57613,0.13215 0.8405,0.11035 0.4114,-0.034 0.4807,-0.0821 0.4807,-0.33415 0,-0.244 -0.12145,-0.3402 -0.70865,-0.56135 -0.90947,-0.34255 -1.14094,-0.58002 -1.12477,-1.15399 0.019,-0.67066 0.36715,-0.95657 1.23994,-1.01786 0.69989,-0.049 1.39903,0.1101 1.39903,0.3187 0,0.0572 -0.0703,0.2007 -0.1561,0.3189 -0.13275,0.1827 -0.21661,0.1937 -0.55987,0.0733 -0.51474,-0.1806 -1.01903,-0.0607 -1.01903,0.24215 0,0.1627 0.23279,0.328 0.80956,0.57474 0.44525,0.1905 0.86353,0.4478 0.92947,0.57187 0.20111,0.3782 0.135,0.8341 -0.1732,1.19478 -0.2546,0.2979 -0.39715,0.3476 -1.08439,0.37789 -0.43519,0.019 -0.94669,-0.025 -1.13666,-0.0985 z m -45.771015,-4.5307 c -0.14545,-0.3816 0.008,-0.63101 0.38785,-0.63101 0.32695,0 0.3746,0.0475 0.40895,0.4054 0.0365,0.3785 0.0135,0.4054 -0.3447,0.4054 -0.2197,0 -0.4128,-0.0768 -0.4521,-0.17985 z m 35.02465,-0.2568 c 0,-0.43525 0.015,-0.45095 0.40275,-0.4133 0.3563,0.0345 0.4028,0.0823 0.4028,0.4133 0,0.33105 -0.0465,0.37875 -0.4028,0.41335 -0.3875,0.0375 -0.40275,0.022 -0.40275,-0.41335 z m -48.546328,-3.42728 c -0.539678,-0.33121 -0.642009,-0.78763 -0.285435,-1.27309 0.2014,-0.2742 0.239375,-0.41375 0.139865,-0.5139 -0.191175,-0.19245 -0.170095,-0.4673 0.05506,-0.71773 0.173665,-0.19315 0.167315,-0.26015 -0.06762,-0.71387 -0.30435,-0.58776 -0.24584,-0.99427 0.20902,-1.45212 0.377925,-0.3804 1.012981,-0.47935 2.268048,-0.3533 0.709055,0.0712 0.937104,0.1409 0.966459,0.29535 0.0226,0.119 -0.06604,0.22964 -0.21544,0.26899 -0.19147,0.0504 -0.254305,0.1693 -0.25569,0.48395 -0.0038,0.89743 -0.671598,1.47686 -1.702213,1.47724 -0.37818,1.4e-4 -0.5267,0.0513 -0.5267,0.18165 0,0.1879 0.2566,0.2516 1.487163,0.36945 0.530587,0.0508 0.743399,0.13675 0.960459,0.38785 0.317625,0.36745 0.33973,0.53667 0.13049,0.99892 -0.348155,0.76915 -2.269035,1.10956 -3.163455,0.56062 z m 2.333642,-0.6405 c 0.24215,-0.24375 0.246345,-0.27775 0.05768,-0.4678 -0.151135,-0.15225 -0.43344,-0.20495 -1.097667,-0.20495 -0.839322,0 -0.896696,0.0175 -0.934706,0.28755 -0.06784,0.48165 0.185105,0.64804 0.985148,0.64804 0.575515,0 0.783222,-0.0552 0.989545,-0.26284 z m -0.47802,-2.75569 c 0.26693,-0.31075 0.271435,-0.46515 0.024,-0.82081 -0.27944,-0.4016 -0.971954,-0.3828 -1.243081,0.0335 -0.553402,0.85015 0.551931,1.56378 1.219122,0.78709 z m 19.067911,3.46819 c -0.3037,-0.16945 -0.621075,-0.63531 -0.6289,-0.92311 -0.0025,-0.0889 0.13935,-0.3063 0.315,-0.4831 0.2282,-0.2297 0.2813,-0.35985 0.1859,-0.4559 -0.19005,-0.19135 -0.16505,-0.52656 0.05285,-0.70862 0.1642,-0.1372 0.15505,-0.2067 -0.0769,-0.58451 -0.194,-0.316 -0.24445,-0.54567 -0.1917,-0.87301 0.14995,-0.93011 0.777445,-1.19793 2.488875,-1.06225 1.149565,0.0911 1.48995,0.28985 0.889865,0.51951 -0.26265,0.1005 -0.30645,0.18155 -0.2531,0.46855 0.14035,0.75552 -0.736965,1.5321 -1.730845,1.5321 -0.3798,0 -0.683175,0.17615 -0.544235,0.316 0.0275,0.0275 0.542525,0.1063 1.14502,0.1752 1.27935,0.14635 1.5567,0.3251 1.5567,1.00337 0,0.49495 -0.2772,0.83256 -0.904325,1.10131 -0.46185,0.1979 -1.9329,0.1816 -2.304225,-0.0255 z m 2.22404,-0.6797 c 0.546305,-0.4453 0.05265,-0.76791 -1.174975,-0.76791 -0.55348,0 -0.81484,0.16605 -0.81484,0.51773 0,0.31766 0.34715,0.47215 1.07066,0.47645 0.4387,0.003 0.72475,-0.0678 0.919155,-0.22625 z m -0.4097,-2.73213 c 0.534655,-0.70453 -0.44795,-1.54703 -1.10561,-0.94796 -0.22895,0.20855 -0.29945,0.73846 -0.1318,0.99111 0.2292,0.34545 0.96187,0.3199 1.2374,-0.043 z m -43.344589,1.97155 c -0.997166,-0.19744 -1.486235,-0.79507 -1.486235,-1.81614 0,-1.19694 0.666358,-1.84903 1.901009,-1.86027 1.249513,-0.0115 2.06383,0.7239 2.06383,1.86351 0,0.77595 -0.615597,1.61086 -1.287701,1.74646 -0.211945,0.0425 -0.469011,0.0945 -0.571252,0.11505 -0.10224,0.0205 -0.381085,-0.002 -0.619651,-0.0485 z m 1.290251,-1.01486 c 0.818523,-0.97915 -0.0997,-2.40668 -1.239655,-1.92724 -1.096519,0.46115 -0.731745,2.31105 0.45571,2.31105 0.364985,0 0.531079,-0.0813 0.783943,-0.3838 z m 26.280378,1.01342 c -0.655135,-0.102 -1.118585,-0.45706 -1.35431,-1.03756 -0.25415,-0.62597 -0.2408,-1.12599 0.045,-1.68651 0.33525,-0.65728 0.899395,-0.95644 1.80878,-0.95917 1.197765,-0.004 1.92114,0.68603 1.920725,1.83117 -4.65e-4,1.32473 -0.982145,2.07593 -2.420285,1.85207 z m 1.18118,-0.87477 c 0.2658,-0.20555 0.30985,-0.3397 0.30985,-0.94383 0,-0.58962 -0.0475,-0.74307 -0.29255,-0.94272 -0.902195,-0.73536 -2.12403,0.187 -1.75176,1.32242 0.2575,0.78538 1.095815,1.05803 1.734505,0.56413 z m 17.96988,0.87568 c -0.980635,-0.193 -1.48716,-0.82064 -1.48716,-1.84282 0,-1.10246 0.8215,-1.90287 1.95588,-1.90566 0.84172,-0.002 1.636695,0.76969 1.637635,1.58981 l 4.6e-4,0.4054 -0.774565,0.0265 c -0.426,0.0145 -1.024495,0.0285 -1.32998,0.031 -0.705885,0.006 -0.79055,0.2764 -0.23415,0.74763 0.4129,0.3497 0.4331,0.3516 1.839115,0.1699 0.20835,-0.027 0.3195,0.0275 0.3484,0.1709 0.0885,0.439 -1.03606,0.7882 -1.955615,0.60723 z m 1.2393,-2.43044 c 0,-0.5748 -1.066055,-0.77758 -1.57212,-0.299 -0.15775,0.14915 -0.28685,0.3176 -0.28685,0.37425 0,0.0567 0.41825,0.103 0.92948,0.103 0.722925,0 0.92947,-0.0395 0.92947,-0.1782 z m 23.60611,2.43711 c -0.87822,-0.2229 -1.4226,-0.91704 -1.4226,-1.81396 0,-1.00426 0.60948,-1.73276 1.580445,-1.88904 1.019785,-0.16415 1.89065,0.45385 2.078855,1.47529 l 0.0862,0.46781 h -1.051705 c -1.178265,0 -1.826275,0.0974 -1.826275,0.2747 0,0.0653 0.163,0.28284 0.36225,0.48339 0.40265,0.40531 1.08452,0.4915 1.69033,0.21365 0.2847,-0.13055 0.3526,-0.1188 0.502025,0.0868 0.1553,0.21375 0.13825,0.2596 -0.1685,0.45255 -0.409,0.25735 -1.313235,0.3802 -1.83104,0.24875 z m 1.4278,-2.32947 c 0,-0.40545 -0.783865,-0.86861 -1.211815,-0.71604 -0.31765,0.11325 -0.647145,0.4283 -0.647145,0.61883 0,0.12565 0.2335,0.1678 0.92948,0.1678 0.51121,0 0.92948,-0.032 0.92948,-0.0705 z m 2.1157,2.3047 c -0.66398,-0.13071 -0.848395,-0.2834 -0.643035,-0.53249 0.11165,-0.1354 0.331205,-0.16345 0.884835,-0.1129 1.22803,0.1121 1.47225,-0.409 0.36515,-0.77916 -0.87517,-0.2926 -1.2355,-0.61739 -1.2355,-1.11367 0,-0.90587 0.93256,-1.38638 2.08464,-1.07411 0.50092,0.13575 0.59677,0.2777 0.44916,0.66496 -0.0599,0.15695 -0.13555,0.1572 -0.58332,0.002 -0.59108,-0.205 -1.12919,-0.0559 -1.06079,0.2939 0.044,0.2262 0.15235,0.29715 0.98981,0.64968 0.72074,0.30335 1.03964,0.74529 0.88181,1.22191 -0.22455,0.67814 -1.07326,0.98851 -2.13275,0.77995 z m -83.166072,-2.67073 v -2.68202 h 0.47571 0.475711 l 0.912287,1.67602 c 0.501757,0.92181 0.954512,1.64975 1.006121,1.61764 0.05161,-0.032 0.47267,-0.78557 0.935694,-1.67437 l 0.841858,-1.61598 0.45986,-0.002 0.45986,-0.002 0.03585,2.55852 c 0.0197,1.40719 0.01725,2.6141 -0.0054,2.68203 -0.06794,0.20315 -0.730288,0.143 -0.812942,-0.0738 -0.04135,-0.10855 -0.07522,-0.89442 -0.07522,-1.74643 0,-0.85202 -0.04455,-1.54912 -0.099,-1.54912 -0.05445,0 -0.403,0.58854 -0.774564,1.30787 -0.611928,1.18467 -0.708214,1.30805 -1.022139,1.30982 -0.259605,0.002 -0.39955,-0.0943 -0.557686,-0.3816 -0.116115,-0.21095 -0.476015,-0.84234 -0.799783,-1.4031 l -0.588654,-1.01955 v 1.8397 1.83971 h -0.433755 -0.433755 z m 12.023854,2.52189 c -0.418725,-0.21325 -0.865617,-1.048 -0.868096,-1.62149 -0.0061,-1.39895 1.11265,-2.23694 2.411625,-1.80649 l 0.551238,0.18265 0.0357,-1.01049 0.0357,-1.01049 h 0.37179 0.37179 l 0.0334,2.71321 0.0334,2.71322 h -0.378115 c -0.220135,0 -0.407615,-0.0774 -0.44875,-0.1853 -0.0625,-0.16395 -0.100985,-0.16395 -0.333515,0 -0.320905,0.22625 -1.392227,0.2411 -1.816177,0.025 z m 1.817359,-0.73482 c 0.40346,-0.3815 0.41268,-1.47221 0.0156,-1.84458 -0.610959,-0.57294 -1.608529,-0.1808 -1.78377,0.70115 -0.08505,0.42805 0.18598,1.07422 0.536853,1.27992 0.36498,0.214 0.926514,0.15175 1.231314,-0.1365 z m 2.941223,0.7741 c -0.39593,-0.1612 -0.879206,-0.80961 -0.971153,-1.30295 -0.27573,-1.47945 1.129668,-2.65843 2.587822,-2.17091 0.589278,0.197 1.057938,0.82869 1.057938,1.4259 v 0.41395 l -1.330779,0.0355 c -1.503201,0.04 -1.670498,0.16135 -1.063937,0.77193 0.35384,0.35615 0.45165,0.3653 1.898996,0.177 0.239205,-0.031 0.309825,0.016 0.309825,0.2055 0,0.13695 -0.137205,0.31565 -0.309825,0.4036 -0.34605,0.1762 -1.780196,0.20295 -2.178887,0.0405 z m 1.807097,-2.29234 c 0,-0.2112 -0.349695,-0.52542 -0.706405,-0.63474 -0.23461,-0.0719 -1.02862,0.20515 -1.02862,0.3589 0,0.027 -0.03385,0.13775 -0.07523,0.2463 -0.06453,0.16925 0.05878,0.1973 0.867514,0.1973 0.707084,0 0.942735,-0.042 0.942735,-0.1678 z m 1.735023,-0.26145 c 0,-1.74445 0.04555,-2.70301 0.130976,-2.75615 0.07204,-0.045 0.267225,-0.047 0.433755,-0.005 l 0.30278,0.0765 v 2.67965 2.67965 H 38.04386 37.610105 Z m 1.810245,2.47734 c -0.04135,-0.10855 -0.07522,-0.92588 -0.07522,-1.81634 v -1.61902 l 0.46474,0.0385 c 0.417299,0.0345 0.463949,0.0737 0.45699,0.38175 -0.0042,0.1887 -0.0182,0.98861 -0.03095,1.77762 l -0.02325,1.43457 H 39.85412 c -0.212605,0 -0.389145,-0.0803 -0.433755,-0.1973 z m 1.862504,-0.18585 c -0.04335,-0.21805 -0.07878,-1.03501 -0.07878,-1.81545 v -1.41899 h 0.433755 c 0.30294,0 0.43376,0.0564 0.43376,0.1871 0,0.2385 0.17385,0.24005 0.369065,0.004 0.22458,-0.2724 0.95058,-0.36779 1.511444,-0.19864 0.686919,0.20714 0.845954,0.6418 0.845954,2.31202 v 1.31383 h -0.433755 -0.433755 v -1.2197 c 0,-1.43709 -0.149885,-1.77419 -0.788889,-1.77419 -0.759937,0 -0.876953,0.20315 -0.946135,1.6424 l -0.06196,1.28912 -0.385965,0.038 c -0.345685,0.034 -0.39418,-0.004 -0.46474,-0.35865 z m 15.137657,-1.075 c -0.0335,-1.42068 -0.045,-1.47478 -0.31385,-1.51322 -0.3922,-0.056 -0.39315,-0.61248 -10e-4,-0.66875 0.23,-0.033 0.2926,-0.14515 0.3644,-0.65268 0.1137,-0.80387 0.4092,-1.08969 1.20648,-1.1668 0.612865,-0.0593 0.62999,-0.052 0.62999,0.2668 0,0.26385 -0.05865,0.32775 -0.30095,0.32775 -0.4225,0 -0.690465,0.3182 -0.690465,0.81975 0,0.41705 0.0125,0.4277 0.50433,0.4277 0.45215,0 0.500245,0.029 0.46475,0.2807 -0.0315,0.22495 -0.1311,0.2883 -0.500465,0.31915 l -0.46085,0.0385 -0.035,1.45846 -0.035,1.45846 -0.39875,0.039 -0.3988,0.039 z m 4.11668,-1.22749 v -2.68564 l 1.640545,0.035 c 1.484455,0.0315 1.644745,0.0568 1.68468,0.26635 0.07105,0.3727 -0.1164,0.4511 -1.22455,0.51195 l -1.047265,0.0575 -0.037,0.68542 -0.037,0.68543 0.903395,0.037 c 0.870915,0.0355 0.903435,0.048 0.904515,0.34865 0.001,0.29935 -0.0335,0.31335 -0.86297,0.3494 -0.47525,0.0205 -0.89351,0.0853 -0.92948,0.14355 -0.036,0.0583 -0.0465,0.42035 -0.023,0.80451 l 0.0425,0.69848 h 1.22783 1.22783 v 0.37425 0.37425 H 62.272205 60.53718 Z m 4.33756,0.87684 v -1.80881 h 0.3546 c 0.34255,0 0.3568,0.025 0.42085,0.73557 0.0365,0.40455 0.0365,1.21852 -2.55e-4,1.80881 l -0.0665,1.07324 h -0.35435 -0.3543 z m 10.162275,0 v -1.80881 h 0.3718 c 0.24785,0 0.3718,0.0624 0.3718,0.1871 0,0.23485 0.173,0.2411 0.36105,0.013 0.20865,-0.25305 0.92672,-0.355 1.467665,-0.20835 0.740635,0.20075 0.897765,0.59309 0.897765,2.24168 v 1.38414 h -0.43375 -0.43375 v -1.29049 c 0,-1.09179 -0.035,-1.32229 -0.22665,-1.49695 -0.3102,-0.28255 -0.90953,-0.25935 -1.23716,0.048 -0.24395,0.2288 -0.27125,0.3793 -0.27125,1.49694 v 1.2426 h -0.43375 -0.43375 z m 4.461485,0 v -1.80881 h 0.42985 c 0.3312,0 0.4135,0.043 0.35855,0.1871 -0.09555,0.2506 0.0673,0.23655 0.3612,-0.031 0.3722,-0.33905 1.470815,-0.2997 1.858105,0.0665 0.26635,0.25185 0.3194,0.26275 0.45845,0.0941 0.28045,-0.34015 1.056905,-0.49965 1.61427,-0.33155 0.727935,0.21955 0.86823,0.58378 0.86823,2.25418 v 1.37839 h -0.43375 -0.43375 v -1.29049 c 0,-1.09178 -0.035,-1.32228 -0.22665,-1.49694 -0.32845,-0.2992 -0.850835,-0.25595 -1.204195,0.0998 -0.28045,0.28235 -0.3042,0.399 -0.3042,1.49694 v 1.19076 h -0.43375 -0.43375 v -1.34725 c 0,-0.88153 -0.0514,-1.399 -0.1487,-1.49695 -0.2332,-0.2347 -0.89087,-0.17695 -1.19115,0.10465 -0.24395,0.22875 -0.27125,0.3793 -0.27125,1.49694 v 1.2426 h -0.43375 -0.43375 z m 7.64587,1.57644 c -0.43015,-0.2855 -0.6262,-0.56615 -0.82503,-1.18123 -0.31195,-0.96505 0.45525,-2.1085 1.52287,-2.26965 2.043445,-0.30845 3.25304,1.96974 1.75076,3.29744 -0.39555,0.3496 -0.51467,0.38575 -1.26875,0.385 -0.60067,-4.7e-4 -0.92894,-0.065 -1.17985,-0.23155 z m 1.667535,-0.52615 c 0.6535,-0.35205 0.67556,-1.64275 0.0355,-2.06502 -0.90291,-0.59551 -1.85051,0.1925 -1.601855,1.33209 0.16025,0.73451 0.911345,1.08591 1.566565,0.73293 z m 2.78403,0.498 c -0.46465,-0.3679 -0.69585,-0.88234 -0.69585,-1.5483 0,-1.02987 0.58371,-1.75733 1.51294,-1.88553 0.395,-0.0545 0.684805,-0.0205 0.946,0.1105 0.2071,0.104 0.4078,0.15765 0.446,0.11925 0.038,-0.0385 0.0694,-0.50959 0.0694,-1.04704 v -0.97717 h 0.35415 c 0.3425,0 0.35675,0.025 0.43375,0.76677 0.044,0.4217 0.0796,1.65671 0.0796,2.7444 v 1.97763 h -0.43375 c -0.30295,0 -0.43375,-0.0564 -0.43375,-0.1871 0,-0.2328 -0.11685,-0.23175 -0.42645,0.004 -0.37265,0.2837 -1.452985,0.2386 -1.85201,-0.0773 z m 1.97428,-0.66941 c 0.41195,-0.41465 0.4303,-1.35143 0.0345,-1.77526 -0.3004,-0.32185 -1.01457,-0.3899 -1.35237,-0.1288 -0.589275,0.4554 -0.646655,1.31825 -0.1227,1.84563 0.4622,0.46525 1.01397,0.48765 1.44036,0.0585 z m 11.715735,0.71162 c -0.14595,-0.12005 -0.2966,-0.4148 -0.33475,-0.65496 -0.1312,-0.82559 0.62464,-1.36977 1.9049,-1.37146 0.58137,-0.001 0.6209,-0.0593 0.3261,-0.48295 -0.1728,-0.2484 -0.28005,-0.28035 -0.77457,-0.2309 -0.3157,0.0315 -0.69174,0.0971 -0.8357,0.14585 -0.19135,0.0647 -0.28505,0.0275 -0.3484,-0.1388 -0.19535,-0.51235 1.05571,-0.93158 2.00894,-0.67321 0.84554,0.22919 0.95023,0.4539 0.99724,2.14053 l 0.0415,1.48424 h -0.3689 c -0.2201,0 -0.3989,-0.0786 -0.44321,-0.19485 -0.0673,-0.17665 -0.10009,-0.17665 -0.35064,0 -0.3859,0.27205 -1.48028,0.25795 -1.82236,-0.0235 z m 1.80985,-0.56957 c 0.2566,-0.2583 0.3361,-0.82269 0.12725,-0.90336 -0.3165,-0.12226 -1.18929,0.184 -1.34178,0.47084 -0.29736,0.55922 0.72647,0.92382 1.21454,0.4325 z m 2.14596,-1.02094 v -1.80881 h 0.42985 c 0.3312,0 0.4135,0.043 0.35855,0.1871 -0.0912,0.2392 -0.0696,0.23655 0.51287,-0.0624 0.55402,-0.2843 0.85055,-0.3077 1.41047,-0.1112 0.6124,0.2149 0.75831,0.64313 0.75831,2.22569 v 1.3784 h -0.3574 -0.35735 l -0.0495,-1.23885 c -0.0395,-0.98849 -0.0963,-1.291 -0.2815,-1.49694 -0.2966,-0.3299 -0.81334,-0.3297 -1.23033,4.5e-4 -0.3136,0.2483 -0.32655,0.30765 -0.32655,1.49694 v 1.2384 h -0.43375 -0.43375 z m 4.82897,1.33485 c -1.42393,-1.4333 -0.049,-3.75838 1.8361,-3.10468 l 0.51337,0.17805 0.036,-1.01291 0.036,-1.01291 0.40275,-0.039 0.4028,-0.039 v 2.7523 2.7523 h -0.36145 c -0.1988,0 -0.3867,-0.0701 -0.41755,-0.15595 -0.045,-0.12475 -0.1086,-0.12475 -0.31845,0 -0.1443,0.0857 -0.57642,0.15595 -0.96025,0.15595 -0.6428,0 -0.73503,-0.0375 -1.16874,-0.47395 z m 2.08775,-0.4041 c 0.2202,-0.2065 0.27125,-0.3937 0.27125,-0.99509 0,-0.65667 -0.036,-0.76443 -0.31655,-0.94952 -0.3965,-0.26155 -1.00061,-0.25185 -1.29996,0.021 -0.47055,0.42865 -0.44895,1.47571 0.04,1.93411 0.33875,0.31765 0.9609,0.31275 1.30544,-0.0105 z m -76.790236,-4.01819 c 0.03375,-0.35265 0.08922,-0.41035 0.425795,-0.44335 0.42202,-0.0415 0.60686,0.1987 0.475015,0.61683 -0.05291,0.1678 -0.192915,0.2319 -0.506385,0.2319 -0.41415,0 -0.431545,-0.018 -0.394425,-0.4054 z m 25.471061,0.32815 c -0.15975,-0.1608 -0.09255,-0.67749 0.09765,-0.75096 0.1024,-0.0395 0.329,-0.036 0.50354,0.008 0.25735,0.065 0.31,0.1442 0.27855,0.41885 -0.0315,0.27535 -0.10915,0.34565 -0.41505,0.3758 -0.20695,0.0205 -0.41605,-0.003 -0.46475,-0.052 z m 5.2545,-6.3527 c -3.962745,-0.86536 -6.72766,-3.30685 -7.97546,-7.042545 -0.38455,-1.151265 -0.3959,-1.24738 -0.3988,-3.36813 -0.003,-1.901855 0.0335,-2.31158 0.2792,-3.181005 0.93477,-3.306035 3.382025,-6.000185 6.399585,-7.0452 1.979945,-0.685685 4.81977,-0.84958 6.852475,-0.3955 2.236695,0.49965 3.531195,1.19831 5.11904,2.76273 1.63439,1.61028 2.622755,3.56322 2.985485,5.89912 0.2048,1.318835 0.06725,3.916635 -0.26895,5.078475 -1.12148,3.875825 -3.942945,6.45274 -7.985365,7.293215 -1.149465,0.239 -3.910375,0.23835 -5.00722,-0.001 z m 4.656985,-3.1888 c 0.97549,-0.3198 2.10336,-1.05208 2.569205,-1.66803 1.073195,-1.41902 1.558855,-3.131075 1.558855,-5.49531 0,-5.043175 -2.663705,-8.123345 -6.81616,-7.88185 -2.338425,0.136 -3.873475,1.19563 -4.949195,3.416375 -0.56645,1.16941 -0.786045,2.34071 -0.77941,4.157455 0.013,3.49474 1.327235,6.066385 3.67423,7.1883 0.515755,0.24655 1.23081,0.4942 1.58901,0.55036 0.91107,0.1428 2.248225,0.0295 3.153465,-0.2673 z m -56.811612,3.03105 c -0.119645,-0.0765 -0.1139,-0.705285 0.02705,-2.96079 0.09843,-1.57501 0.23555,-4.154765 0.304695,-5.732795 0.183005,-4.1765 0.477645,-9.947185 0.567843,-11.121645 0.06947,-0.90455 0.107905,-1.025305 0.34683,-1.089815 0.399155,-0.10775 3.838652,-0.0875 4.01239,0.0235 0.08234,0.0527 0.339975,0.514935 0.572513,1.02724 0.23254,0.512305 0.910804,1.941895 1.507255,3.17688 0.596451,1.234975 1.808221,3.761075 2.692823,5.61354 0.884602,1.85247 1.620128,3.3808 1.634507,3.396285 0.0144,0.0155 0.56218,-1.135285 1.217347,-2.55728 1.363974,-2.960415 3.974359,-8.667525 4.534694,-9.91423 l 0.37845,-0.84203 2.021637,0.002 c 1.111901,0.001 2.085999,0.043 2.164658,0.09355 0.09492,0.06085 0.189365,1.098565 0.28082,3.08554 0.07579,1.646635 0.192655,3.807855 0.25971,4.802695 0.287305,4.262745 0.737239,11.9166 0.739665,12.582485 l 0.0019,0.54456 -2.105584,-0.05475 c -1.158066,-0.03 -2.130698,-0.08 -2.161397,-0.1109 C 36.8826,99.63119 36.76988,97.35579 36.48644,90.5916 36.41025,88.77344 36.306775,86.977105 36.2565,86.599745 l -0.09142,-0.68609 -0.383625,0.81084 c -0.21099,0.44595 -0.687093,1.48447 -1.058007,2.30779 -2.554061,5.669275 -4.594063,10.00371 -4.772888,10.141045 -0.120735,0.0927 -0.447505,0.1458 -0.767864,0.12475 l -0.55767,-0.03659 -0.793347,-1.62169 c -1.614238,-3.29968 -4.349756,-8.95076 -4.349756,-8.9858 0,-0.02 -0.2984,-0.65641 -0.663106,-1.41445 l -0.663105,-1.378265 -0.07736,1.89741 c -0.04255,1.043575 -0.166765,4.114755 -0.27604,6.82485 -0.109276,2.71009 -0.220466,4.99761 -0.247091,5.08337 -0.05492,0.1769 -3.347215,0.22695 -3.616169,0.05495 z m 27.641387,-0.0539 c -0.0555,-0.08635 -0.0894,-3.918055 -0.07533,-8.514915 0.01405,-4.59687 0.028,-9.242075 0.03095,-10.32268 l 0.0054,-1.96474 h 6.692235 6.692225 v 1.62169 1.621685 h -4.52345 -4.523455 v 2.68203 2.682025 h 3.77987 3.77987 v 1.559315 1.55932 l -0.526705,0.0145 c -0.2897,0.008 -1.88003,0.0045 -3.53409,-0.008 -1.654065,-0.0125 -3.11799,0.013 -3.25317,0.05615 -0.235665,0.0753 -0.245775,0.19615 -0.245775,2.93779 v 2.859275 l 4.80229,0.0325 4.802295,0.0325 v 1.621695 1.62169 l -6.901145,0.032 c -5.437585,0.0255 -6.92256,-0.001 -7.002061,-0.12475 z m 45.528145,0.0613 c -0.0295,-0.05145 -0.28885,-0.851385 -0.57605,-1.77762 -0.2872,-0.92623 -0.70737,-2.245415 -0.933715,-2.93152 -0.22635,-0.686095 -0.9543,-2.931515 -1.61767,-4.98981 -0.663375,-2.0583 -1.69445,-5.238275 -2.29127,-7.06662 -0.59683,-1.828355 -1.12313,-3.49838 -1.16956,-3.71118 l -0.0844,-0.3869 h 2.297225 2.297225 l 0.508785,1.652875 c 0.27985,0.90908 0.58511,1.905485 0.67838,2.214225 0.2808,0.92945 1.183835,3.85448 1.55976,5.05219 0.1938,0.61749 0.66285,2.21735 1.042305,3.55524 0.37945,1.3379 0.722785,2.51674 0.76297,2.619655 0.043,0.1102 0.1978,-0.1975 0.37645,-0.74847 C 96.195915,86.31416 97.73643,81.39643 98.11231,79.95331 l 0.2853,-1.09531 1.35327,0.035 1.35327,0.035 0.1541,0.499 c 0.1294,0.4189 2.99237,9.2547 4.14307,12.7864 0.19,0.583185 0.3846,1.24832 0.43245,1.47809 0.1169,0.56158 0.22085,0.3998 0.54909,-0.85436 0.3484,-1.33113 1.51169,-5.26142 2.49231,-8.420315 0.1917,-0.61749 0.64217,-2.119105 1.00106,-3.336935 l 0.65254,-2.21423 h 2.021 c 1.61775,0 2.021,0.0335 2.021,0.16905 0,0.09295 -0.4492,1.510385 -0.99825,3.14982 -0.54905,1.639435 -1.22406,3.682475 -1.50002,4.5401 -0.52366,1.627395 -2.8573,8.78226 -3.74321,11.47657 l -0.51272,1.559325 -1.92092,0.031 c -1.0565,0.017 -1.97669,-0.011 -2.04486,-0.06235 -0.0682,-0.05135 -0.3594,-0.79509 -0.64715,-1.65271 -0.28775,-0.857625 -1.22608,-3.664395 -2.08516,-6.23727 -0.85908,-2.572875 -1.607005,-4.7247 -1.662035,-4.781845 -0.05505,-0.05715 -0.26895,0.39195 -0.4754,0.99796 -0.20645,0.606025 -0.88664,2.589445 -1.511565,4.407615 -1.30377,3.79324 -2.47968,7.26521 -2.47968,7.321465 0,0.0859 -3.831225,0.0315 -3.88107,-0.05505 z"
     id="path9" /><path
     style="fill:url(#linearGradient1);fill-opacity:1;stroke-width:0.5017"
     d="M 0.0882052,68.19204 C 0.0396996,68.143215 0,64.93857 0,61.070615 v -7.03266 l 16.04222,-0.039 c 17.691083,-0.043 16.577705,0.01 18.35759,-0.868485 1.038536,-0.512455 2.611827,-2.13195 3.143043,-3.235337 0.912721,-1.895817 0.862775,-0.88203 0.914941,-18.571199 0.0259,-8.789707 0.0463,-16.625532 0.04535,-17.412945 l -0.002,-1.431657 H 65.888685 93.27623 v 17.099047 c 0,19.004386 -0.034,18.228779 0.884215,20.172485 0.639545,1.353811 1.995375,2.728506 3.352335,3.398966 1.807425,0.893025 1.524525,0.879785 18.80172,0.88035 l 15.43063,5e-4 0.061,7.02515 c 0.0335,3.863815 0.0375,7.070065 0.008,7.125 -0.0649,0.12335 -131.60391115,0.13445 -131.7264503,0.011 z"
     id="path14" /><rect
     style="fill:url(#linearGradient2);fill-opacity:1;stroke:none;stroke-width:0.121272;stroke-opacity:1"
     id="rect15"
     width="132.29166"
     height="17.33983"
     x="1.7765646e-15"
     y="54.018993"
     ry="0" /><ellipse
     style="fill:#506885;fill-opacity:0.08;stroke:none"
     id="ellipse-shadow"
     cx="66.145828"
     cy="54.799999"
     rx="17.200001"
     ry="4.1999998" /><ellipse
     style="fill:url(#heroGlow);fill-opacity:1;stroke:none"
     id="ellipse-glow"
     cx="66.145828"
     cy="41.799999"
     rx="21.799999"
     ry="23.799999" /><g
     id="g2"
     transform="matrix(5.5147715,0,0,5.680632,-6.8774465,-5.946169)"
     style="fill:none;stroke-linecap:round;stroke-linejoin:round"><path
       style="fill:#000000;fill-opacity:0;stroke:#1a2c57;stroke-width:0.205;stroke-dasharray:none;stroke-opacity:1"
       d="M 9.0837293,7.5324301 C 8.9733463,6.9638402 8.8629533,6.3952502 8.8705671,5.7816717 c 0.00761,-0.6135795 0.1332258,-1.272122 0.258841,-1.9306772 0.4558642,0.2020001 0.8936019,0.3711342 1.2970979,0.6788221 0.403493,0.3076879 0.772725,0.7539218 1.141954,1.2001569 0.523022,-0.2068382 1.075637,-0.3958615 1.639239,-0.4015884 0.563601,-0.00571 1.138164,0.1718385 1.712737,0.3494069 0.333374,-0.4151821 0.702605,-0.8614162 1.106097,-1.1691041 0.403493,-0.3076878 0.841232,-0.476822 1.278978,-0.6459593 0.143732,0.6256934 0.269344,1.284236 0.276959,1.8978155 0.0076,0.6135787 -0.102769,1.1821684 -0.213164,1.7507583 0.477027,0.8836732 0.515627,1.9865274 0.09919,2.9173846 -0.329609,0.736794 -0.928826,1.355555 -1.652589,1.770016 -0.723761,0.414459 -1.567177,0.628739 -2.412748,0.659083 -0.886248,0.0318 -1.786392,-0.138536 -2.568076,-0.534633 C 10.053407,11.927056 9.3958949,11.300217 9.0295029,10.536649 8.5743283,9.5880577 8.5958922,8.4463934 9.0837233,7.5324301 Z"
       id="path1" /><path
       style="fill:#5b318a;fill-opacity:0;stroke:#5b318a;stroke-width:0.195;stroke-dasharray:none;stroke-opacity:1"
       d="M 9.6759344,7.9803356 C 9.5813204,7.492973 9.4866978,7.0056102 9.4932241,6.4796859 c 0.00652,-0.5259252 0.1141937,-1.0903902 0.2218637,-1.654866 0.3907402,0.173143 0.7659442,0.318115 1.1117972,0.5818475 0.345852,0.2637324 0.662336,0.6462186 0.978818,1.0287057 0.448305,-0.1772899 0.921976,-0.3393098 1.405063,-0.3442186 0.483086,-0.00489 0.975569,0.1472902 1.46806,0.2994916 0.285749,-0.3558703 0.602233,-0.7383566 0.948083,-1.002089 0.34585,-0.2637324 0.721056,-0.4087045 1.096267,-0.5536794 0.123198,0.5363086 0.230866,1.1007736 0.237393,1.6266988 0.0065,0.5259245 -0.08809,1.0132871 -0.182712,1.5006497 0.40888,0.7574341 0.441966,1.7027375 0.08502,2.5006178 -0.282522,0.631536 -0.796136,1.161903 -1.416505,1.517156 -0.620366,0.355251 -1.343294,0.538919 -2.068069,0.564928 -0.759641,0.02725 -1.531194,-0.118746 -2.201209,-0.458257 C 10.507087,11.74716 9.9435052,11.209869 9.629455,10.555382 9.239305,9.742302 9.2577884,8.7637327 9.6759293,7.9803356 Z"
       id="path1-7" /><path
       style="fill:#000000;fill-opacity:0;stroke:#87508e;stroke-width:0.19;stroke-dasharray:none;stroke-opacity:1"
       d="M 10.268138,8.4282466 C 10.189298,8.022111 10.110441,7.6159745 10.115879,7.1777039 c 0.0054,-0.4382722 0.09516,-0.9086603 0.184887,-1.3790568 0.325617,0.1442861 0.638287,0.2650962 0.926498,0.4848731 0.28821,0.219777 0.551946,0.5385167 0.815681,0.8572562 0.373588,-0.1477417 0.768314,-0.2827586 1.170887,-0.2868495 0.402571,-0.00408 0.812974,0.122742 1.223383,0.249577 0.238124,-0.2965595 0.501861,-0.6152984 0.79007,-0.8350753 0.288208,-0.2197779 0.60088,-0.3405879 0.913556,-0.4614007 0.102665,0.4469248 0.192388,0.9173129 0.197827,1.3555844 0.0054,0.4382714 -0.07341,0.844407 -0.15226,1.2505434 0.340733,0.6311959 0.368305,1.4189493 0.07085,2.0838543 -0.235435,0.52628 -0.663447,0.968253 -1.180421,1.264297 -0.516972,0.296043 -1.119412,0.4491 -1.723391,0.470774 C 12.720411,12.254791 12.07745,12.133121 11.519104,11.8502 10.960765,11.567274 10.491113,11.119531 10.229405,10.574125 9.9042805,9.8965545 9.9196833,9.0810783 10.26813,8.4282466 Z"
       id="path1-7-0" /><path
       style="fill:#dd8259;fill-opacity:0;stroke:#dd8259;stroke-width:0.185;stroke-dasharray:none;stroke-opacity:1"
       d="m 10.860344,8.8761496 c -0.06307,-0.3249085 -0.126158,-0.6498177 -0.121807,-1.0004342 0.0043,-0.3506181 0.07613,-0.7269291 0.147909,-1.1032451 0.260494,0.115428 0.51063,0.212076 0.741199,0.387898 0.230568,0.175822 0.441556,0.430814 0.652544,0.685805 0.298871,-0.118193 0.614652,-0.226207 0.93671,-0.229479 0.322057,-0.0033 0.650379,0.09819 0.978706,0.199661 0.1905,-0.237248 0.401489,-0.492239 0.632057,-0.668061 0.230566,-0.175822 0.480704,-0.27247 0.730844,-0.36912 0.08213,0.35754 0.153911,0.733851 0.158262,1.0844678 0.0043,0.3506171 -0.05873,0.6755256 -0.121808,1.0004348 0.272586,0.5049567 0.294644,1.1351666 0.05668,1.6670871 -0.188348,0.421024 -0.530758,0.774602 -0.944337,1.011438 -0.413578,0.236834 -0.89553,0.35928 -1.378713,0.376619 -0.506428,0.01817 -1.020797,-0.07917 -1.467473,-0.305505 -0.446672,-0.226341 -0.822393,-0.584535 -1.03176,-1.02086 -0.260099,-0.542053 -0.247777,-1.194441 0.03098,-1.7167064 z"
       id="path1-7-0-8" /><path
       style="fill:url(#faceFill);fill-opacity:1;stroke:#f2d481;stroke-width:0.182;stroke-dasharray:none;stroke-opacity:1"
       d="m 11.452549,9.3240555 c -0.0473,-0.2436814 -0.09462,-0.4873633 -0.09136,-0.7503257 0.0032,-0.2629636 0.0571,-0.5451969 0.110932,-0.8274339 0.19537,0.086571 0.382972,0.159057 0.555899,0.2909235 0.172926,0.1318665 0.331167,0.3231105 0.489408,0.5143538 0.224154,-0.088645 0.460989,-0.1696553 0.702533,-0.1721093 0.241543,-0.00248 0.487784,0.073643 0.734029,0.1497458 0.142875,-0.177936 0.301117,-0.3691793 0.474043,-0.5010458 0.172925,-0.1318665 0.360528,-0.2043525 0.548133,-0.27684 0.0616,0.268155 0.115434,0.5503883 0.118697,0.8133509 0.0032,0.2629629 -0.04405,0.5066443 -0.09136,0.7503262 0.204439,0.3787177 0.220983,0.85138 0.04251,1.25032 -0.141261,0.315768 -0.398069,0.580951 -0.708253,0.758578 -0.310184,0.177626 -0.671648,0.26946 -1.034035,0.282464 -0.379821,0.01363 -0.765598,-0.05938 -1.100605,-0.229128 C 11.868116,11.207479 11.586325,10.938833 11.4293,10.61159 11.234235,10.205049 11.243476,9.7157545 11.45254,9.3240555 Z"
       id="path1-7-0-8-2" /><path
       style="fill:#f2d481;fill-opacity:1;stroke-width:0.115581"
       d="m 12.667064,10.961181 c -0.106609,-0.04637 -0.210089,-0.178924 -0.178979,-0.229261 0.03168,-0.05126 0.08053,-0.03735 0.156413,0.04453 0.05698,0.06148 0.10016,0.07645 0.220478,0.07645 0.278919,0 0.3422,-0.207258 0.128523,-0.420935 -0.06728,-0.06728 -0.122323,-0.143804 -0.122323,-0.170058 0,-0.09069 0.125448,-0.142945 0.343193,-0.142945 0.341171,0 0.412927,0.142365 0.174584,0.346378 -0.103225,0.08836 -0.115007,0.112301 -0.101147,0.205557 0.02009,0.135165 0.08297,0.182003 0.244355,0.182003 0.09478,0 0.154729,-0.02129 0.223962,-0.07955 0.112278,-0.09448 0.197409,-0.08114 0.158767,0.02486 -0.03398,0.09321 -0.237482,0.206463 -0.372116,0.207089 -0.05952,2.78e-4 -0.159287,-0.02554 -0.221711,-0.05736 -0.111343,-0.05677 -0.115654,-0.05677 -0.226998,0 -0.132754,0.06768 -0.290595,0.07258 -0.427001,0.01324 z M 12.516805,9.7811761 C 12.390746,9.6549567 12.22923,9.6199255 12.05152,9.6802599 c -0.10775,0.036582 -0.141759,0.038351 -0.160308,0.00834 -0.09811,-0.1587448 0.324588,-0.2790044 0.570502,-0.1623105 0.12575,0.059672 0.263085,0.2150949 0.250018,0.2829458 -0.01593,0.082722 -0.09576,0.071231 -0.194927,-0.028057 z m 1.180052,0.020244 c 0,-0.085846 0.20259,-0.2823552 0.321985,-0.3123215 0.127084,-0.031896 0.376522,0.00438 0.442844,0.064397 0.03347,0.030289 0.06085,0.082065 0.06085,0.1150586 0,0.048576 -0.01309,0.055653 -0.06881,0.037197 -0.131991,-0.04372 -0.36313,-0.051348 -0.451151,-0.014888 -0.04877,0.020202 -0.110307,0.069743 -0.136743,0.1100904 -0.06433,0.098175 -0.168981,0.098464 -0.16898,4.659e-4 z"
       id="path2" /></g></svg>
