<?xml version="1.0" encoding="UTF-8" standalone="no"?>
<!-- Created with Inkscape (http://www.inkscape.org/) -->

<svg
   width="500"
   height="450"
   viewBox="0 0 132.29166 119.06249"
   version="1.1"
   id="svg1"
   xml:space="preserve"
   xmlns:xlink="http://www.w3.org/1999/xlink"
   xmlns="http://www.w3.org/2000/svg"
   xmlns:svg="http://www.w3.org/2000/svg"><defs
     id="defs1"><linearGradient
       id="headerGradient"
       x1="66.145828"
       y1="0"
       x2="66.145828"
       y2="71.358826"
       gradientUnits="userSpaceOnUse"
       gradientTransform="translate(0.13034919,-0.78209515)"><stop
         offset="0"
         style="stop-color:#004da6;stop-opacity:0;"
         id="stop3" /><stop
         offset="0.58"
         style="stop-color:#004da6;stop-opacity:0.12;"
         id="stop3b" /><stop
         offset="0.66"
         style="stop-color:#004da6;stop-opacity:0.22;"
         id="stop3c" /><stop
         offset="1"
         style="stop-color:#004da6;stop-opacity:0.22;"
         id="stop4" /></linearGradient><linearGradient
       id="bandGradient"
       x1="0"
       y1="54.018993"
       x2="132.29166"
       y2="68.192039"
       gradientUnits="userSpaceOnUse"><stop
         offset="0"
         style="stop-color:#004ca5;stop-opacity:0.2118;"
         id="stop5" /><stop
         offset="0.5"
         style="stop-color:#004ca7;stop-opacity:0.2510;"
         id="stop6" /><stop
         offset="1"
         style="stop-color:#004ca5;stop-opacity:0.2118;"
         id="stop7" /></linearGradient><linearGradient
       id="panelGradient"
       x1="66.145828"
       y1="15.2"
       x2="66.145828"
       y2="60.599998"
       gradientUnits="userSpaceOnUse"><stop
         offset="0"
         style="stop-color:#c6d7ed;stop-opacity:0.72;"
         id="stop8" /><stop
         offset="1"
         style="stop-color:#d6e3f4;stop-opacity:0.36;"
         id="stop9" /></linearGradient><radialGradient
       id="heroGlow"
       cx="66.145828"
       cy="41.799999"
       r="24.5"
       gradientUnits="userSpaceOnUse"
       gradientTransform="matrix(1.213685,0,0,1.1116947,-14.134367,-6.5167468)"><stop
         offset="0"
         style="stop-color:#ffffff;stop-opacity:0.98;"
         id="stop10" /><stop
         offset="0.28800818"
         style="stop-color:#f8fbff;stop-opacity:0.82;"
         id="stop11" /><stop
         offset="1"
         style="stop-color:#dce7f4;stop-opacity:0;"
         id="stop12" /></radialGradient><radialGradient
       id="faceFill"
       gradientTransform="scale(1.0023538,0.99765168)"
       cx="13.19809"
       cy="9.699914"
       fx="13.19809"
       fy="9.699914"
       r="2.0265951"
       gradientUnits="userSpaceOnUse"><stop
         offset="0"
         style="stop-color:#fffdfa;stop-opacity:0.95;"
         id="stop13" /><stop
         offset="1"
         style="stop-color:#fdf4d7;stop-opacity:0.45;"
         id="stop14" /></radialGradient><linearGradient
       xlink:href="#bandGradient"
       id="linearGradient1"
       gradientUnits="userSpaceOnUse"
       x1="0"
       y1="54.018993"
       x2="132.29166"
       y2="68.192039"
       gradientTransform="translate(-5e-6)" /><linearGradient
       xlink:href="#bandGradient"
       id="linearGradient2"
       gradientUnits="userSpaceOnUse"
       x1="0"
       y1="54.018993"
       x2="132.29166"
       y2="68.192039" /><linearGradient
       id="headerGradient-9"
       x1="66.145828"
       y1="0"
       x2="66.145828"
       y2="62.084064"
       gradientUnits="userSpaceOnUse"><stop
         offset="0"
         style="stop-color:#005ac3;stop-opacity:0.0667;"
         id="stop3-1" /><stop
         offset="1"
         style="stop-color:#0051b5;stop-opacity:0.1490;"
         id="stop4-2" /></linearGradient></defs><path
     id="rect15-9-9-0"
     style="fill:url(#headerGradient-9);fill-opacity:1;stroke:none;stroke-width:0.161662;stroke-opacity:1"
     d="M 30.57436,0 V 44.744037 H 0 v 8.248591 9.091435 6.211506 H 132.29166 V 62.084063 52.992628 44.744037 H 101.22121 V 0 Z" /><path
     id="path14"
     style="fill:url(#linearGradient1);fill-opacity:1;stroke-width:0.5017"
     d="m 38.501007,12.479341 0.0021,1.431437 c 9.5e-4,0.78741 -0.01957,8.623697 -0.04547,17.413407 -0.05217,17.68917 -0.002,16.675138 -0.914673,18.570958 -0.531216,1.10339 -2.104424,2.723001 -3.14296,3.235461 -1.779885,0.87848 -0.666452,0.825164 -18.357535,0.868164 L 0,54.038043 v 1.677416 5.355229 7.222814 h 132.29166 v -8.971028 h 0.10645 v -5.291666 h -0.65319 -4.63847 l -10.79211,-5.17e-4 c -17.277204,-5.7e-4 -16.994014,0.01245 -18.801434,-0.880566 -1.356962,-0.67046 -2.7127,-2.044949 -3.35225,-3.398759 -0.91821,-1.94371 -0.884184,-1.168021 -0.884184,-20.172411 V 12.479341 H 65.888481 Z" /><circle
     style="fill:url(#heroGlow);fill-opacity:1;stroke:none;stroke-width:1.16157"
     id="ellipse-glow"
     cx="66.145828"
     cy="39.952068"
     r="26.458332" /><g
     id="g2"
     transform="matrix(5.4292466,0,0,5.5925349,-5.678581,-6.0888519)"
     style="fill:none;stroke-linecap:round;stroke-linejoin:round"><path
       style="fill:#000000;fill-opacity:0;stroke:#1a2c57;stroke-width:0.205;stroke-dasharray:none;stroke-opacity:1"
       d="M 9.0837293,7.5324301 C 8.9733463,6.9638402 8.8629533,6.3952502 8.8705671,5.7816717 c 0.00761,-0.6135795 0.1332258,-1.272122 0.258841,-1.9306772 0.4558642,0.2020001 0.8936019,0.3711342 1.2970979,0.6788221 0.403493,0.3076879 0.772725,0.7539218 1.141954,1.2001569 0.523022,-0.2068382 1.075637,-0.3958615 1.639239,-0.4015884 0.563601,-0.00571 1.138164,0.1718385 1.712737,0.3494069 0.333374,-0.4151821 0.702605,-0.8614162 1.106097,-1.1691041 0.403493,-0.3076878 0.841232,-0.476822 1.278978,-0.6459593 0.143732,0.6256934 0.269344,1.284236 0.276959,1.8978155 0.0076,0.6135787 -0.102769,1.1821684 -0.213164,1.7507583 0.477027,0.8836732 0.515627,1.9865274 0.09919,2.9173846 -0.329609,0.736794 -0.928826,1.355555 -1.652589,1.770016 -0.723761,0.414459 -1.567177,0.628739 -2.412748,0.659083 -0.886248,0.0318 -1.786392,-0.138536 -2.568076,-0.534633 C 10.053407,11.927056 9.3958949,11.300217 9.0295029,10.536649 8.5743283,9.5880577 8.5958922,8.4463934 9.0837233,7.5324301 Z"
       id="path1" /><path
       style="fill:#5b318a;fill-opacity:0;stroke:#5b318a;stroke-width:0.195;stroke-dasharray:none;stroke-opacity:1"
       d="M 9.6759344,7.9803356 C 9.5813204,7.492973 9.4866978,7.0056102 9.4932241,6.4796859 c 0.00652,-0.5259252 0.1141937,-1.0903902 0.2218637,-1.654866 0.3907402,0.173143 0.7659442,0.318115 1.1117972,0.5818475 0.345852,0.2637324 0.662336,0.6462186 0.978818,1.0287057 0.448305,-0.1772899 0.921976,-0.3393098 1.405063,-0.3442186 0.483086,-0.00489 0.975569,0.1472902 1.46806,0.2994916 0.285749,-0.3558703 0.602233,-0.7383566 0.948083,-1.002089 0.34585,-0.2637324 0.721056,-0.4087045 1.096267,-0.5536794 0.123198,0.5363086 0.230866,1.1007736 0.237393,1.6266988 0.0065,0.5259245 -0.08809,1.0132871 -0.182712,1.5006497 0.40888,0.7574341 0.441966,1.7027375 0.08502,2.5006178 -0.282522,0.631536 -0.796136,1.161903 -1.416505,1.517156 -0.620366,0.355251 -1.343294,0.538919 -2.068069,0.564928 -0.759641,0.02725 -1.531194,-0.118746 -2.201209,-0.458257 C 10.507087,11.74716 9.9435052,11.209869 9.629455,10.555382 9.239305,9.742302 9.2577884,8.7637327 9.6759293,7.9803356 Z"
       id="path1-7" /><path
       style="fill:#000000;fill-opacity:0;stroke:#87508e;stroke-width:0.19;stroke-dasharray:none;stroke-opacity:1"
       d="M 10.268138,8.4282466 C 10.189298,8.022111 10.110441,7.6159745 10.115879,7.1777039 c 0.0054,-0.4382722 0.09516,-0.9086603 0.184887,-1.3790568 0.325617,0.1442861 0.638287,0.2650962 0.926498,0.4848731 0.28821,0.219777 0.551946,0.5385167 0.815681,0.8572562 0.373588,-0.1477417 0.768314,-0.2827586 1.170887,-0.2868495 0.402571,-0.00408 0.812974,0.122742 1.223383,0.249577 0.238124,-0.2965595 0.501861,-0.6152984 0.79007,-0.8350753 0.288208,-0.2197779 0.60088,-0.3405879 0.913556,-0.4614007 0.102665,0.4469248 0.192388,0.9173129 0.197827,1.3555844 0.0054,0.4382714 -0.07341,0.844407 -0.15226,1.2505434 0.340733,0.6311959 0.368305,1.4189493 0.07085,2.0838543 -0.235435,0.52628 -0.663447,0.968253 -1.180421,1.264297 -0.516972,0.296043 -1.119412,0.4491 -1.723391,0.470774 C 12.720411,12.254791 12.07745,12.133121 11.519104,11.8502 10.960765,11.567274 10.491113,11.119531 10.229405,10.574125 9.9042805,9.8965545 9.9196833,9.0810783 10.26813,8.4282466 Z"
       id="path1-7-0" /><path
       style="fill:#dd8259;fill-opacity:0;stroke:#dd8259;stroke-width:0.185;stroke-dasharray:none;stroke-opacity:1"
       d="m 10.860344,8.8761496 c -0.06307,-0.3249085 -0.126158,-0.6498177 -0.121807,-1.0004342 0.0043,-0.3506181 0.07613,-0.7269291 0.147909,-1.1032451 0.260494,0.115428 0.51063,0.212076 0.741199,0.387898 0.230568,0.175822 0.441556,0.430814 0.652544,0.685805 0.298871,-0.118193 0.614652,-0.226207 0.93671,-0.229479 0.322057,-0.0033 0.650379,0.09819 0.978706,0.199661 0.1905,-0.237248 0.401489,-0.492239 0.632057,-0.668061 0.230566,-0.175822 0.480704,-0.27247 0.730844,-0.36912 0.08213,0.35754 0.153911,0.733851 0.158262,1.0844678 0.0043,0.3506171 -0.05873,0.6755256 -0.121808,1.0004348 0.272586,0.5049567 0.294644,1.1351666 0.05668,1.6670871 -0.188348,0.421024 -0.530758,0.774602 -0.944337,1.011438 -0.413578,0.236834 -0.89553,0.35928 -1.378713,0.376619 -0.506428,0.01817 -1.020797,-0.07917 -1.467473,-0.305505 -0.446672,-0.226341 -0.822393,-0.584535 -1.03176,-1.02086 -0.260099,-0.542053 -0.247777,-1.194441 0.03098,-1.7167064 z"
       id="path1-7-0-8" /><path
       style="fill:url(#faceFill);fill-opacity:1;stroke:#f2d481;stroke-width:0.182;stroke-dasharray:none;stroke-opacity:1"
       d="m 11.452549,9.3240555 c -0.0473,-0.2436814 -0.09462,-0.4873633 -0.09136,-0.7503257 0.0032,-0.2629636 0.0571,-0.5451969 0.110932,-0.8274339 0.19537,0.086571 0.382972,0.159057 0.555899,0.2909235 0.172926,0.1318665 0.331167,0.3231105 0.489408,0.5143538 0.224154,-0.088645 0.460989,-0.1696553 0.702533,-0.1721093 0.241543,-0.00248 0.487784,0.073643 0.734029,0.1497458 0.142875,-0.177936 0.301117,-0.3691793 0.474043,-0.5010458 0.172925,-0.1318665 0.360528,-0.2043525 0.548133,-0.27684 0.0616,0.268155 0.115434,0.5503883 0.118697,0.8133509 0.0032,0.2629629 -0.04405,0.5066443 -0.09136,0.7503262 0.204439,0.3787177 0.220983,0.85138 0.04251,1.25032 -0.141261,0.315768 -0.398069,0.580951 -0.708253,0.758578 -0.310184,0.177626 -0.671648,0.26946 -1.034035,0.282464 -0.379821,0.01363 -0.765598,-0.05938 -1.100605,-0.229128 C 11.868116,11.207479 11.586325,10.938833 11.4293,10.61159 11.234235,10.205049 11.243476,9.7157545 11.45254,9.3240555 Z"
       id="path1-7-0-8-2" /><path
       style="fill:#f2d481;fill-opacity:1;stroke-width:0.115581"
       d="m 12.667064,10.961181 c -0.106609,-0.04637 -0.210089,-0.178924 -0.178979,-0.229261 0.03168,-0.05126 0.08053,-0.03735 0.156413,0.04453 0.05698,0.06148 0.10016,0.07645 0.220478,0.07645 0.278919,0 0.3422,-0.207258 0.128523,-0.420935 -0.06728,-0.06728 -0.122323,-0.143804 -0.122323,-0.170058 0,-0.09069 0.125448,-0.142945 0.343193,-0.142945 0.341171,0 0.412927,0.142365 0.174584,0.346378 -0.103225,0.08836 -0.115007,0.112301 -0.101147,0.205557 0.02009,0.135165 0.08297,0.182003 0.244355,0.182003 0.09478,0 0.154729,-0.02129 0.223962,-0.07955 0.112278,-0.09448 0.197409,-0.08114 0.158767,0.02486 -0.03398,0.09321 -0.237482,0.206463 -0.372116,0.207089 -0.05952,2.78e-4 -0.159287,-0.02554 -0.221711,-0.05736 -0.111343,-0.05677 -0.115654,-0.05677 -0.226998,0 -0.132754,0.06768 -0.290595,0.07258 -0.427001,0.01324 z M 12.516805,9.7811761 C 12.390746,9.6549567 12.22923,9.6199255 12.05152,9.6802599 c -0.10775,0.036582 -0.141759,0.038351 -0.160308,0.00834 -0.09811,-0.1587448 0.324588,-0.2790044 0.570502,-0.1623105 0.12575,0.059672 0.263085,0.2150949 0.250018,0.2829458 -0.01593,0.082722 -0.09576,0.071231 -0.194927,-0.028057 z m 1.180052,0.020244 c 0,-0.085846 0.20259,-0.2823552 0.321985,-0.3123215 0.127084,-0.031896 0.376522,0.00438 0.442844,0.064397 0.03347,0.030289 0.06085,0.082065 0.06085,0.1150586 0,0.048576 -0.01309,0.055653 -0.06881,0.037197 -0.131991,-0.04372 -0.36313,-0.051348 -0.451151,-0.014888 -0.04877,0.020202 -0.110307,0.069743 -0.136743,0.1100904 -0.06433,0.098175 -0.168981,0.098464 -0.16898,4.659e-4 z"
       id="path2" /></g><path
     style="font-weight:bold;font-size:32.9596px;font-family:Poppins;-inkscape-font-specification:'Poppins Bold';fill:#888888;stroke-width:0.203938"
     d="m 13.758316,73.483364 v 23.137638 h 5.636091 v -13.90895 l 5.207617,13.90895 h 4.548424 l 5.174657,-13.875991 v 13.875991 h 5.636092 V 73.483364 H 33.336318 L 26.909196,89.501729 20.416155,73.483364 Z m 44.429515,4.515465 V 73.483364 H 44.015203 v 23.137638 h 14.172628 v -4.515465 h -8.536536 v -5.075778 h 7.547748 v -4.350667 h -7.547748 v -4.680263 z m 14.601115,18.85289 c 6.55896,0 11.832496,-4.91098 11.832496,-11.865455 0,-6.954475 -5.240576,-11.832496 -11.832496,-11.832496 -6.55896,0 -11.898415,4.878021 -11.898415,11.832496 0,6.954475 5.339455,11.865455 11.898415,11.865455 z m 0,-5.141697 c -3.757394,0 -6.130485,-2.669727 -6.130485,-6.723758 0,-4.11995 2.373091,-6.723758 6.130485,-6.723758 3.691475,0 6.097526,2.603808 6.097526,6.723758 0,4.054031 -2.406051,6.723758 -6.097526,6.723758 z m 13.744128,-18.226658 5.866808,23.137638 h 6.822637 l 3.823311,-15.227334 3.69148,15.227334 h 6.82263 l 6.03161,-23.137638 h -6.06457 l -3.36187,16.842355 -3.95516,-16.842355 h -6.1964 L 95.8936,90.325719 92.56468,73.483364 Z"
     id="text1"
     aria-label="MEOW" /><path
     style="font-weight:bold;font-size:6.56013px;font-family:Nunito;-inkscape-font-specification:'Nunito Bold';fill:#888888;stroke-width:0.180404"
     d="m 22.734202,106.03417 q -0.380487,0 -0.380487,-0.39361 v -3.94264 q 0,-0.3936 0.393608,-0.3936 0.164003,0 0.255845,0.0656 0.0984,0.059 0.177123,0.20992 l 1.51539,2.80118 1.51539,-2.80118 q 0.07872,-0.15088 0.170564,-0.20992 0.09184,-0.0656 0.255845,-0.0656 0.380487,0 0.380487,0.3936 v 3.94264 q 0,0.39361 -0.380487,0.39361 -0.380488,0 -0.380488,-0.39361 v -2.77493 l -1.233304,2.25012 q -0.0656,0.11152 -0.137763,0.16401 -0.07216,0.0525 -0.196804,0.0525 -0.124642,0 -0.203364,-0.0525 -0.07872,-0.059 -0.137763,-0.16401 l -1.233304,-2.237 v 2.76181 q 0,0.39361 -0.380488,0.39361 z m 6.684773,0.0131 q -0.49857,0 -0.865937,-0.20336 -0.367367,-0.20337 -0.570731,-0.57729 -0.203364,-0.38049 -0.203364,-0.89218 0,-0.51169 0.203364,-0.88562 0.203364,-0.37393 0.570731,-0.57729 0.367367,-0.20337 0.865937,-0.20337 0.49857,0 0.865937,0.20337 0.367368,0.20336 0.570732,0.57729 0.203364,0.37393 0.203364,0.88562 0,0.51169 -0.203364,0.89218 -0.203364,0.37392 -0.570732,0.57729 -0.367367,0.20336 -0.865937,0.20336 z m 0,-0.62321 q 0.367368,0 0.590412,-0.26241 0.223044,-0.26896 0.223044,-0.78721 0,-0.52481 -0.223044,-0.78066 -0.223044,-0.2624 -0.590412,-0.2624 -0.367367,0 -0.590411,0.2624 -0.223045,0.25585 -0.223045,0.78066 0,0.51825 0.223045,0.78721 0.223044,0.26241 0.590411,0.26241 z m 3.549032,0.62321 q -0.419848,0 -0.741294,-0.20336 -0.314887,-0.20337 -0.49201,-0.57729 -0.177124,-0.38049 -0.177124,-0.89218 0,-0.51825 0.177124,-0.88562 0.177123,-0.37393 0.49201,-0.57729 0.321446,-0.20337 0.741294,-0.20337 0.341127,0 0.616652,0.15089 0.275526,0.15088 0.413289,0.40017 v -1.54164 q 0,-0.41328 0.406728,-0.41328 0.413288,0 0.413288,0.41328 v 3.89672 q 0,0.41985 -0.406728,0.41985 -0.406728,0 -0.406728,-0.41985 v -0.13776 q -0.137763,0.2624 -0.413288,0.41985 -0.275526,0.15088 -0.623213,0.15088 z m 0.229605,-0.62321 q 0.367367,0 0.590411,-0.26241 0.223045,-0.26896 0.223045,-0.78721 0,-0.52481 -0.223045,-0.78066 -0.223044,-0.2624 -0.590411,-0.2624 -0.367368,0 -0.590412,0.2624 -0.223044,0.25585 -0.223044,0.78066 0,0.51825 0.223044,0.78721 0.223044,0.26241 0.590412,0.26241 z m 4.054163,0.62321 q -0.544491,0 -0.938099,-0.20336 -0.393607,-0.20337 -0.610092,-0.57729 -0.209924,-0.37393 -0.209924,-0.88562 0,-0.49857 0.203364,-0.8725 0.209924,-0.37393 0.570732,-0.58385 0.367367,-0.21649 0.833136,-0.21649 0.682254,0 1.075861,0.43297 0.400168,0.43297 0.400168,1.18083 0,0.24272 -0.314886,0.24272 h -1.981159 q 0.09184,0.85938 0.984019,0.85938 0.170564,0 0.380488,-0.0394 0.216484,-0.0459 0.406728,-0.15089 0.170563,-0.0984 0.288646,-0.059 0.118082,0.0328 0.164003,0.13777 0.05248,0.10496 0.01312,0.23616 -0.0328,0.12464 -0.183683,0.21649 -0.229605,0.14432 -0.531371,0.21648 -0.295206,0.0656 -0.551051,0.0656 z m -0.118082,-2.78149 q -0.360807,0 -0.583852,0.22304 -0.223044,0.22304 -0.268965,0.60353 h 1.613792 q -0.02624,-0.40017 -0.223045,-0.61009 -0.190243,-0.21648 -0.53793,-0.21648 z m 3.188222,2.78149 q -1.095542,0 -1.095542,-1.22674 v -3.10295 q 0,-0.41328 0.406728,-0.41328 0.413289,0 0.413289,0.41328 v 3.06359 q 0,0.59041 0.492009,0.59041 0.05248,0 0.0984,0 0.04592,-0.007 0.09184,-0.0131 0.09184,-0.0131 0.124643,0.0525 0.0328,0.059 0.0328,0.24928 0,0.16401 -0.0656,0.25585 -0.0656,0.0918 -0.216484,0.11152 -0.137763,0.0197 -0.282086,0.0197 z m 1.403868,-3.92952 q -0.229604,0 -0.360807,-0.11152 -0.124642,-0.11808 -0.124642,-0.32145 0,-0.20992 0.124642,-0.32144 0.131203,-0.11152 0.360807,-0.11152 0.48545,0 0.48545,0.43296 0,0.43297 -0.48545,0.43297 z m 0,3.90984 q -0.196804,0 -0.301766,-0.11808 -0.104962,-0.11808 -0.104962,-0.32801 v -2.40757 q 0,-0.44609 0.406728,-0.44609 0.413289,0 0.413289,0.44609 v 2.40757 q 0,0.20993 -0.104963,0.32801 -0.104962,0.11808 -0.308326,0.11808 z m 1.672829,0.007 q -0.406728,0 -0.406728,-0.41985 v -2.47973 q 0,-0.41329 0.400168,-0.41329 0.400168,0 0.400168,0.41329 v 0.13777 q 0.164003,-0.27553 0.439529,-0.41985 0.282085,-0.14433 0.629772,-0.14433 1.134903,0 1.134903,1.31859 v 1.58755 q 0,0.41985 -0.406729,0.41985 -0.413288,0 -0.413288,-0.41985 v -1.54819 q 0,-0.37393 -0.144323,-0.54449 -0.137762,-0.17056 -0.432968,-0.17056 -0.360807,0 -0.577292,0.2296 -0.209924,0.22305 -0.209924,0.59697 v 1.43667 q 0,0.41985 -0.413288,0.41985 z m 4.926651,1.19394 q -0.354247,0 -0.688814,-0.0656 -0.328006,-0.0656 -0.596972,-0.20336 -0.157443,-0.0787 -0.190243,-0.20337 -0.02624,-0.11808 0.02624,-0.2296 0.05248,-0.11152 0.157443,-0.164 0.111523,-0.0459 0.236165,0.0131 0.288646,0.14432 0.544491,0.18368 0.262405,0.0459 0.446089,0.0459 0.879057,0 0.879057,-0.84625 v -0.43953 q -0.137763,0.26896 -0.426408,0.4264 -0.282086,0.15745 -0.629773,0.15745 -0.432968,0 -0.754415,-0.19681 -0.321446,-0.20336 -0.49857,-0.56417 -0.177123,-0.3608 -0.177123,-0.83969 0,-0.47889 0.177123,-0.83314 0.177124,-0.36081 0.49857,-0.55761 0.321447,-0.20337 0.754415,-0.20337 0.347687,0 0.629773,0.15089 0.282085,0.15088 0.413288,0.41329 v -0.13777 q 0,-0.20336 0.104962,-0.30832 0.111522,-0.10497 0.301766,-0.10497 0.406728,0 0.406728,0.41329 v 2.52565 q 0,0.78066 -0.413288,1.17427 -0.413288,0.3936 -1.200504,0.3936 z m -0.01968,-1.94835 q 0.380487,0 0.603532,-0.26241 0.223044,-0.2624 0.223044,-0.71505 0,-0.45265 -0.223044,-0.7085 -0.223045,-0.2624 -0.603532,-0.2624 -0.380488,0 -0.603532,0.2624 -0.223045,0.25585 -0.223045,0.7085 0,0.45265 0.223045,0.71505 0.223044,0.26241 0.603532,0.26241 z m 5.726994,0.76753 q -0.49857,0 -0.865938,-0.20336 -0.367367,-0.20337 -0.570731,-0.57729 -0.203364,-0.38049 -0.203364,-0.89218 0,-0.51169 0.203364,-0.88562 0.203364,-0.37393 0.570731,-0.57729 0.367368,-0.20337 0.865938,-0.20337 0.498569,0 0.865937,0.20337 0.367367,0.20336 0.570731,0.57729 0.203364,0.37393 0.203364,0.88562 0,0.51169 -0.203364,0.89218 -0.203364,0.37392 -0.570731,0.57729 -0.367368,0.20336 -0.865937,0.20336 z m 0,-0.62321 q 0.367367,0 0.590411,-0.26241 0.223045,-0.26896 0.223045,-0.78721 0,-0.52481 -0.223045,-0.78066 -0.223044,-0.2624 -0.590411,-0.2624 -0.367368,0 -0.590412,0.2624 -0.223045,0.25585 -0.223045,0.78066 0,0.51825 0.223045,0.78721 0.223044,0.26241 0.590412,0.26241 z m 2.912703,0.61009 q -0.413288,0 -0.413288,-0.41985 v -2.22388 h -0.301766 q -0.328007,0 -0.328007,-0.30833 0,-0.30832 0.328007,-0.30832 h 0.301766 v -0.007 q 0,-0.6757 0.341127,-1.01026 0.341126,-0.34113 0.984019,-0.40017 l 0.223045,-0.0197 q 0.170563,-0.0131 0.249285,0.0722 0.07872,0.0853 0.07872,0.20992 0.0066,0.11809 -0.05904,0.21649 -0.0656,0.0918 -0.190244,0.10496 l -0.09184,0.007 q -0.373927,0.0262 -0.54449,0.19024 -0.170564,0.16401 -0.170564,0.49857 v 0.13777 h 0.557611 q 0.328007,0 0.328007,0.30832 0,0.30833 -0.328007,0.30833 h -0.557611 v 2.22388 q 0,0.41985 -0.406728,0.41985 z m 4.060722,-0.0525 q -0.446089,0 -0.446089,-0.44609 v -3.73271 q 0,-0.44609 0.446089,-0.44609 h 2.341966 q 0.341127,0 0.341127,0.328 0,0.34113 -0.341127,0.34113 h -1.981159 v 1.27267 h 1.836836 q 0.341127,0 0.341127,0.33456 0,0.33457 -0.341127,0.33457 h -1.836836 v 1.34483 h 1.981159 q 0.341127,0 0.341127,0.33456 0,0.33457 -0.341127,0.33457 z m 3.798318,-3.86392 q -0.229604,0 -0.360807,-0.11152 -0.124642,-0.11808 -0.124642,-0.32145 0,-0.20992 0.124642,-0.32144 0.131203,-0.11152 0.360807,-0.11152 0.48545,0 0.48545,0.43296 0,0.43297 -0.48545,0.43297 z m 0,3.90984 q -0.196804,0 -0.301766,-0.11808 -0.104962,-0.11808 -0.104962,-0.32801 v -2.40757 q 0,-0.44609 0.406728,-0.44609 0.413288,0 0.413288,0.44609 v 2.40757 q 0,0.20993 -0.104962,0.32801 -0.104962,0.11808 -0.308326,0.11808 z m 2.761811,1.2005 q -0.354247,0 -0.688814,-0.0656 -0.328007,-0.0656 -0.596972,-0.20336 -0.157443,-0.0787 -0.190244,-0.20337 -0.02624,-0.11808 0.02624,-0.2296 0.05248,-0.11152 0.157443,-0.164 0.111522,-0.0459 0.236165,0.0131 0.288645,0.14432 0.54449,0.18368 0.262406,0.0459 0.446089,0.0459 0.879058,0 0.879058,-0.84625 v -0.43953 q -0.137763,0.26896 -0.426409,0.4264 -0.282085,0.15745 -0.629772,0.15745 -0.432969,0 -0.754415,-0.19681 -0.321447,-0.20336 -0.49857,-0.56417 -0.177124,-0.3608 -0.177124,-0.83969 0,-0.47889 0.177124,-0.83314 0.177123,-0.36081 0.49857,-0.55761 0.321446,-0.20337 0.754415,-0.20337 0.347687,0 0.629772,0.15089 0.282086,0.15088 0.413288,0.41329 v -0.13777 q 0,-0.20336 0.104963,-0.30832 0.111522,-0.10497 0.301766,-0.10497 0.406728,0 0.406728,0.41329 v 2.52565 q 0,0.78066 -0.413289,1.17427 -0.413288,0.3936 -1.200503,0.3936 z m -0.01968,-1.94835 q 0.380488,0 0.603532,-0.26241 0.223045,-0.2624 0.223045,-0.71505 0,-0.45265 -0.223045,-0.7085 -0.223044,-0.2624 -0.603532,-0.2624 -0.380487,0 -0.603532,0.2624 -0.223044,0.25585 -0.223044,0.7085 0,0.45265 0.223044,0.71505 0.223045,0.26241 0.603532,0.26241 z m 4.067281,0.76753 q -0.544491,0 -0.938099,-0.20336 -0.393608,-0.20337 -0.610092,-0.57729 -0.209924,-0.37393 -0.209924,-0.88562 0,-0.49857 0.203364,-0.8725 0.209924,-0.37393 0.570731,-0.58385 0.367367,-0.21649 0.833137,-0.21649 0.682253,0 1.075861,0.43297 0.400168,0.43297 0.400168,1.18083 0,0.24272 -0.314886,0.24272 h -1.98116 q 0.09184,0.85938 0.98402,0.85938 0.170563,0 0.380487,-0.0394 0.216485,-0.0459 0.406729,-0.15089 0.170563,-0.0984 0.288645,-0.059 0.118083,0.0328 0.164004,0.13777 0.05248,0.10496 0.01312,0.23616 -0.0328,0.12464 -0.183684,0.21649 -0.229604,0.14432 -0.53137,0.21648 -0.295206,0.0656 -0.551051,0.0656 z m -0.118083,-2.78149 q -0.360807,0 -0.583851,0.22304 -0.223045,0.22304 -0.268966,0.60353 h 1.613792 q -0.02624,-0.40017 -0.223044,-0.61009 -0.190244,-0.21648 -0.537931,-0.21648 z m 2.499407,2.76837 q -0.406728,0 -0.406728,-0.41985 v -2.47973 q 0,-0.41329 0.400168,-0.41329 0.400168,0 0.400168,0.41329 v 0.13777 q 0.164003,-0.27553 0.439529,-0.41985 0.282085,-0.14433 0.629772,-0.14433 1.134903,0 1.134903,1.31859 v 1.58755 q 0,0.41985 -0.406728,0.41985 -0.413289,0 -0.413289,-0.41985 v -1.54819 q 0,-0.37393 -0.144322,-0.54449 -0.137763,-0.17056 -0.432969,-0.17056 -0.360807,0 -0.577291,0.2296 -0.209925,0.22305 -0.209925,0.59697 v 1.43667 q 0,0.41985 -0.413288,0.41985 z m 3.85079,0 q -0.406728,0 -0.406728,-0.41985 v -2.47973 q 0,-0.41329 0.400168,-0.41329 0.400168,0 0.400168,0.41329 v 0.13121 q 0.144322,-0.26241 0.400168,-0.40673 0.255845,-0.15089 0.590411,-0.15089 0.721615,0 0.944659,0.62978 0.150883,-0.29521 0.432969,-0.45921 0.282085,-0.17057 0.642892,-0.17057 1.082422,0 1.082422,1.31859 v 1.58755 q 0,0.41985 -0.413288,0.41985 -0.406728,0 -0.406728,-0.41985 v -1.55475 q 0,-0.36737 -0.124643,-0.53793 -0.118082,-0.17056 -0.406728,-0.17056 -0.321446,0 -0.50513,0.2296 -0.183684,0.22305 -0.183684,0.62321 v 1.41043 q 0,0.41985 -0.406728,0.41985 -0.413288,0 -0.413288,-0.41985 v -1.55475 q 0,-0.36737 -0.124642,-0.53793 -0.118083,-0.17056 -0.400168,-0.17056 -0.321447,0 -0.50513,0.2296 -0.183684,0.22305 -0.183684,0.62321 v 1.41043 q 0,0.41985 -0.413288,0.41985 z m 6.796303,0.0131 q -0.49857,0 -0.865937,-0.20336 -0.367367,-0.20337 -0.570732,-0.57729 -0.203364,-0.38049 -0.203364,-0.89218 0,-0.51169 0.203364,-0.88562 0.203365,-0.37393 0.570732,-0.57729 0.367367,-0.20337 0.865937,-0.20337 0.49857,0 0.865937,0.20337 0.367367,0.20336 0.570731,0.57729 0.203365,0.37393 0.203365,0.88562 0,0.51169 -0.203365,0.89218 -0.203364,0.37392 -0.570731,0.57729 -0.367367,0.20336 -0.865937,0.20336 z m 0,-0.62321 q 0.367367,0 0.590412,-0.26241 0.223044,-0.26896 0.223044,-0.78721 0,-0.52481 -0.223044,-0.78066 -0.223045,-0.2624 -0.590412,-0.2624 -0.367367,0 -0.590412,0.2624 -0.223044,0.25585 -0.223044,0.78066 0,0.51825 0.223044,0.78721 0.223045,0.26241 0.590412,0.26241 z m 3.549029,0.62321 q -0.419849,0 -0.741295,-0.20336 -0.314886,-0.20337 -0.49201,-0.57729 -0.177123,-0.38049 -0.177123,-0.89218 0,-0.51825 0.177123,-0.88562 0.177124,-0.37393 0.49201,-0.57729 0.321446,-0.20337 0.741295,-0.20337 0.341126,0 0.616652,0.15089 0.275525,0.15088 0.413288,0.40017 v -1.54164 q 0,-0.41328 0.406728,-0.41328 0.413288,0 0.413288,0.41328 v 3.89672 q 0,0.41985 -0.406728,0.41985 -0.406728,0 -0.406728,-0.41985 v -0.13776 q -0.137763,0.2624 -0.413288,0.41985 -0.275526,0.15088 -0.623212,0.15088 z m 0.229604,-0.62321 q 0.367367,0 0.590412,-0.26241 0.223044,-0.26896 0.223044,-0.78721 0,-0.52481 -0.223044,-0.78066 -0.223045,-0.2624 -0.590412,-0.2624 -0.367367,0 -0.590412,0.2624 -0.223044,0.25585 -0.223044,0.78066 0,0.51825 0.223044,0.78721 0.223045,0.26241 0.590412,0.26241 z m 4.054163,0.62321 q -0.54449,0 -0.938098,-0.20336 -0.393608,-0.20337 -0.610092,-0.57729 -0.209924,-0.37393 -0.209924,-0.88562 0,-0.49857 0.203364,-0.8725 0.209924,-0.37393 0.570731,-0.58385 0.367367,-0.21649 0.833136,-0.21649 0.682254,0 1.075862,0.43297 0.400168,0.43297 0.400168,1.18083 0,0.24272 -0.314887,0.24272 h -1.981159 q 0.09184,0.85938 0.98402,0.85938 0.170563,0 0.380487,-0.0394 0.216484,-0.0459 0.406728,-0.15089 0.170564,-0.0984 0.288646,-0.059 0.118082,0.0328 0.164003,0.13777 0.05248,0.10496 0.01312,0.23616 -0.0328,0.12464 -0.183683,0.21649 -0.229605,0.14432 -0.531371,0.21648 -0.295206,0.0656 -0.551051,0.0656 z m -0.118082,-2.78149 q -0.360807,0 -0.583852,0.22304 -0.223044,0.22304 -0.268965,0.60353 h 1.613792 q -0.02624,-0.40017 -0.223044,-0.61009 -0.190244,-0.21648 -0.537931,-0.21648 z m 3.266942,2.78149 q -0.282086,0 -0.596972,-0.059 -0.314886,-0.059 -0.564171,-0.20336 -0.137763,-0.0787 -0.170563,-0.19025 -0.0328,-0.11808 0.0066,-0.21648 0.04592,-0.10496 0.144323,-0.15089 0.104962,-0.0459 0.242724,0.0197 0.262406,0.12465 0.49201,0.17713 0.229605,0.0459 0.452649,0.0459 0.314886,0 0.465769,-0.10496 0.157444,-0.11152 0.157444,-0.28865 0,-0.27552 -0.406729,-0.35425 l -0.656013,-0.12464 q -0.833136,-0.15744 -0.833136,-0.86594 0,-0.31488 0.170563,-0.54449 0.177124,-0.2296 0.48545,-0.35424 0.308326,-0.12465 0.708494,-0.12465 0.577291,0 1.02994,0.25585 0.124643,0.0656 0.144323,0.18368 0.02624,0.11153 -0.02624,0.21649 -0.04592,0.0984 -0.150883,0.14432 -0.104962,0.0394 -0.242725,-0.0262 -0.203364,-0.10496 -0.393608,-0.15088 -0.183683,-0.0459 -0.354247,-0.0459 -0.321446,0 -0.478889,0.11152 -0.150883,0.11152 -0.150883,0.2952 0,0.28865 0.373927,0.35425 l 0.656013,0.12464 q 0.426409,0.0787 0.642893,0.28865 0.223044,0.20992 0.223044,0.56417 0,0.47889 -0.373927,0.75442 -0.373928,0.26896 -0.99714,0.26896 z m 4.861066,0 q -0.34769,0 -0.623212,-0.1312 -0.268965,-0.13776 -0.426408,-0.36737 -0.150883,-0.2296 -0.150883,-0.51825 0,-0.35425 0.183683,-0.55761 0.183684,-0.20992 0.59697,-0.30177 0.41329,-0.0918 1.10866,-0.0918 h 0.22961 v -0.13776 q 0,-0.32801 -0.14432,-0.47233 -0.14433,-0.14432 -0.48545,-0.14432 -0.19025,0 -0.41329,0.0459 -0.21649,0.0459 -0.459211,0.15744 -0.157443,0.0722 -0.262405,0.0197 -0.104962,-0.059 -0.144323,-0.17712 -0.0328,-0.12464 0.01312,-0.24929 0.05248,-0.12464 0.203364,-0.18368 0.301765,-0.12464 0.577295,-0.17712 0.28208,-0.0525 0.51169,-0.0525 0.70193,0 1.04306,0.32801 0.34112,0.32145 0.34112,1.0037 v 1.57443 q 0,0.41985 -0.38048,0.41985 -0.38705,0 -0.38705,-0.41985 V 105.47 q -0.11152,0.26896 -0.35425,0.42641 -0.24272,0.15088 -0.57729,0.15088 z m 0.17056,-0.56417 q 0.32145,0 0.53137,-0.22304 0.21649,-0.22305 0.21649,-0.56418 v -0.14432 h -0.22305 q -0.61665,0 -0.85937,0.0984 -0.23617,0.0918 -0.23617,0.34113 0,0.21648 0.15089,0.35425 0.15088,0.13776 0.41984,0.13776 z m 2.76838,0.55105 q -0.40673,0 -0.40673,-0.41985 v -2.47973 q 0,-0.41329 0.40017,-0.41329 0.40017,0 0.40017,0.41329 v 0.13777 q 0.164,-0.27553 0.43953,-0.41985 0.28208,-0.14433 0.62977,-0.14433 1.1349,0 1.1349,1.31859 v 1.58755 q 0,0.41985 -0.40672,0.41985 -0.41329,0 -0.41329,-0.41985 v -1.54819 q 0,-0.37393 -0.14433,-0.54449 -0.13776,-0.17056 -0.43296,-0.17056 -0.36081,0 -0.5773,0.2296 -0.20992,0.22305 -0.20992,0.59697 v 1.43667 q 0,0.41985 -0.41329,0.41985 z m 4.66425,0.0131 q -0.41985,0 -0.7413,-0.20336 -0.31488,-0.20337 -0.49201,-0.57729 -0.17712,-0.38049 -0.17712,-0.89218 0,-0.51825 0.17712,-0.88562 0.17713,-0.37393 0.49201,-0.57729 0.32145,-0.20337 0.7413,-0.20337 0.34112,0 0.61665,0.15089 0.27553,0.15088 0.41329,0.40017 v -1.54164 q 0,-0.41328 0.40673,-0.41328 0.41328,0 0.41328,0.41328 v 3.89672 q 0,0.41985 -0.40672,0.41985 -0.40673,0 -0.40673,-0.41985 v -0.13776 q -0.13776,0.2624 -0.41329,0.41985 -0.27553,0.15088 -0.62321,0.15088 z m 0.2296,-0.62321 q 0.36737,0 0.59041,-0.26241 0.22305,-0.26896 0.22305,-0.78721 0,-0.52481 -0.22305,-0.78066 -0.22304,-0.2624 -0.59041,-0.2624 -0.36737,0 -0.59041,0.2624 -0.22304,0.25585 -0.22304,0.78066 0,0.51825 0.22304,0.78721 0.22304,0.26241 0.59041,0.26241 z"
     id="text2"
     aria-label="Modeling of Eigenmodes and" /><path
     style="font-weight:bold;font-size:6.56013px;font-family:Nunito;-inkscape-font-specification:'Nunito Bold';fill:#888888;stroke-width:0.180404"
     d="m 31.616545,114.20915 q -0.669133,0 -1.174263,-0.29521 -0.49857,-0.2952 -0.774096,-0.82657 -0.275525,-0.53793 -0.275525,-1.25955 0,-0.72817 0.275525,-1.25954 0.275526,-0.53137 0.774096,-0.82002 0.49857,-0.29521 1.174263,-0.29521 0.675694,0 1.174263,0.29521 0.49857,0.28865 0.774096,0.82002 0.275525,0.53137 0.275525,1.25298 0,0.72818 -0.275525,1.26611 -0.275526,0.53137 -0.774096,0.82657 -0.498569,0.29521 -1.174263,0.29521 z m 0,-0.72162 q 0.636333,0 0.99058,-0.43952 0.354247,-0.43953 0.354247,-1.22019 0,-0.78721 -0.354247,-1.22018 -0.347687,-0.43297 -0.99058,-0.43297 -0.636332,0 -0.99058,0.43297 -0.354247,0.43297 -0.354247,1.22018 0,0.78066 0.354247,1.22019 0.354248,0.43952 0.99058,0.43952 z m 4.296884,0.7085 q -0.328006,0 -0.485449,-0.34769 l -1.043061,-2.42069 q -0.09184,-0.21648 -0.0066,-0.38048 0.09184,-0.16401 0.360807,-0.16401 0.150883,0 0.242725,0.0722 0.09184,0.0656 0.164003,0.25585 l 0.787216,1.96804 0.813456,-1.9746 q 0.07216,-0.18368 0.164003,-0.24929 0.0984,-0.0722 0.262405,-0.0722 0.209924,0 0.295206,0.16401 0.08528,0.164 -0.0066,0.37392 l -1.062741,2.42725 q -0.144323,0.34769 -0.48545,0.34769 z m 3.673675,0.0131 q -0.544491,0 -0.938099,-0.20337 -0.393607,-0.20336 -0.610092,-0.57729 -0.209924,-0.37392 -0.209924,-0.88561 0,-0.49857 0.203364,-0.8725 0.209924,-0.37393 0.570732,-0.58385 0.367367,-0.21649 0.833136,-0.21649 0.682254,0 1.075861,0.43297 0.400168,0.43297 0.400168,1.18082 0,0.24273 -0.314886,0.24273 h -1.981159 q 0.09184,0.85938 0.984019,0.85938 0.170564,0 0.380488,-0.0394 0.216484,-0.0459 0.406728,-0.15089 0.170563,-0.0984 0.288646,-0.059 0.118082,0.0328 0.164003,0.13776 0.05248,0.10497 0.01312,0.23617 -0.0328,0.12464 -0.183683,0.21648 -0.229605,0.14433 -0.531371,0.21649 -0.295206,0.0656 -0.551051,0.0656 z m -0.118082,-2.7815 q -0.360807,0 -0.583852,0.22305 -0.223044,0.22304 -0.268965,0.60353 h 1.613792 q -0.02624,-0.40017 -0.223045,-0.61009 -0.190243,-0.21649 -0.53793,-0.21649 z m 2.512528,2.76838 q -0.419849,0 -0.419849,-0.41985 v -2.47973 q 0,-0.41329 0.400168,-0.41329 0.400168,0 0.400168,0.41329 v 0.20336 q 0.236165,-0.56417 1.01026,-0.62977 0.282086,-0.0328 0.314887,0.32145 0.0328,0.34769 -0.341127,0.38705 l -0.144323,0.0131 q -0.806896,0.0787 -0.806896,0.82657 v 1.35795 q 0,0.41985 -0.413288,0.41985 z m 3.247265,0.0131 q -1.095541,0 -1.095541,-1.22675 v -3.10294 q 0,-0.41329 0.406728,-0.41329 0.413288,0 0.413288,0.41329 v 3.06358 q 0,0.59041 0.49201,0.59041 0.05248,0 0.0984,0 0.04592,-0.007 0.09184,-0.0131 0.09184,-0.0131 0.124642,0.0525 0.0328,0.059 0.0328,0.24928 0,0.164 -0.0656,0.25585 -0.0656,0.0918 -0.216484,0.11152 -0.137763,0.0197 -0.282086,0.0197 z m 2.053324,0 q -0.347687,0 -0.623213,-0.1312 -0.268965,-0.13777 -0.426408,-0.36737 -0.150883,-0.22961 -0.150883,-0.51825 0,-0.35425 0.183683,-0.55761 0.183684,-0.20993 0.596972,-0.30177 0.413288,-0.0918 1.108662,-0.0918 h 0.229605 v -0.13776 q 0,-0.32801 -0.144323,-0.47233 -0.144323,-0.14433 -0.48545,-0.14433 -0.190244,0 -0.413288,0.0459 -0.216484,0.0459 -0.459209,0.15744 -0.157443,0.0722 -0.262405,0.0197 -0.104962,-0.059 -0.144323,-0.17712 -0.0328,-0.12465 0.01312,-0.24929 0.05248,-0.12464 0.203364,-0.18368 0.301766,-0.12465 0.577292,-0.17713 0.282085,-0.0525 0.51169,-0.0525 0.701934,0 1.04306,0.32801 0.341127,0.32145 0.341127,1.0037 v 1.57443 q 0,0.41985 -0.380487,0.41985 -0.387048,0 -0.387048,-0.41985 v -0.14432 q -0.111522,0.26896 -0.354247,0.42641 -0.242725,0.15088 -0.577291,0.15088 z m 0.170563,-0.56417 q 0.321446,0 0.53137,-0.22305 0.216485,-0.22304 0.216485,-0.56417 v -0.14432 h -0.223045 q -0.616652,0 -0.859377,0.0984 -0.236164,0.0918 -0.236164,0.34113 0,0.21648 0.150883,0.35424 0.150883,0.13777 0.419848,0.13777 z m 2.76838,1.73187 q -0.406728,0 -0.406728,-0.41329 v -3.66711 q 0,-0.41329 0.400168,-0.41329 0.406728,0 0.406728,0.41329 v 0.13776 q 0.137762,-0.25584 0.413288,-0.40672 0.275525,-0.15745 0.629772,-0.15745 0.419849,0 0.734735,0.20337 0.321446,0.20336 0.49857,0.57729 0.177123,0.36736 0.177123,0.88562 0,0.51169 -0.177123,0.89217 -0.177124,0.37393 -0.49201,0.57729 -0.314886,0.20337 -0.741295,0.20337 -0.341126,0 -0.616652,-0.14432 -0.268965,-0.15089 -0.413288,-0.40017 v 1.2989 q 0,0.41329 -0.413288,0.41329 z m 1.213624,-1.79091 q 0.367367,0 0.590411,-0.26241 0.223045,-0.26896 0.223045,-0.78721 0,-0.52482 -0.223045,-0.78066 -0.223044,-0.26241 -0.590411,-0.26241 -0.367368,0 -0.590412,0.26241 -0.223044,0.25584 -0.223044,0.78066 0,0.51825 0.223044,0.78721 0.223044,0.26241 0.590412,0.26241 z m 3.489992,0.62321 q -0.282086,0 -0.596972,-0.059 -0.314886,-0.059 -0.564171,-0.20337 -0.137763,-0.0787 -0.170564,-0.19024 -0.0328,-0.11808 0.0066,-0.21648 0.04592,-0.10497 0.144322,-0.15089 0.104963,-0.0459 0.242725,0.0197 0.262405,0.12464 0.49201,0.17713 0.229605,0.0459 0.452649,0.0459 0.314886,0 0.465769,-0.10497 0.157443,-0.11152 0.157443,-0.28864 0,-0.27553 -0.406728,-0.35425 l -0.656013,-0.12464 q -0.833136,-0.15744 -0.833136,-0.86594 0,-0.31488 0.170563,-0.54449 0.177124,-0.2296 0.48545,-0.35425 0.308326,-0.12464 0.708494,-0.12464 0.577291,0 1.02994,0.25585 0.124643,0.0656 0.144323,0.18368 0.02624,0.11152 -0.02624,0.21649 -0.04592,0.0984 -0.150883,0.14432 -0.104962,0.0394 -0.242725,-0.0262 -0.203364,-0.10496 -0.393608,-0.15089 -0.183684,-0.0459 -0.354247,-0.0459 -0.321446,0 -0.47889,0.11153 -0.150883,0.11152 -0.150883,0.2952 0,0.28865 0.373928,0.35425 l 0.656013,0.12464 q 0.426408,0.0787 0.642893,0.28865 0.223044,0.20992 0.223044,0.56417 0,0.47889 -0.373927,0.75441 -0.373928,0.26897 -0.99714,0.26897 z m 4.211608,-3.92952 q -0.229605,0 -0.360807,-0.11152 -0.124643,-0.11808 -0.124643,-0.32145 0,-0.20992 0.124643,-0.32144 0.131202,-0.11153 0.360807,-0.11153 0.485449,0 0.485449,0.43297 0,0.43297 -0.485449,0.43297 z m 0,3.90984 q -0.196804,0 -0.301766,-0.11808 -0.104962,-0.11809 -0.104962,-0.32801 v -2.40757 q 0,-0.44609 0.406728,-0.44609 0.413288,0 0.413288,0.44609 v 2.40757 q 0,0.20992 -0.104962,0.32801 -0.104962,0.11808 -0.308326,0.11808 z m 1.672828,0.007 q -0.406728,0 -0.406728,-0.41985 v -2.47973 q 0,-0.41329 0.400168,-0.41329 0.400168,0 0.400168,0.41329 v 0.13776 q 0.164004,-0.27552 0.439529,-0.41985 0.282086,-0.14432 0.629772,-0.14432 1.134903,0 1.134903,1.31859 v 1.58755 q 0,0.41985 -0.406728,0.41985 -0.413288,0 -0.413288,-0.41985 v -1.54819 q 0,-0.37393 -0.144323,-0.54449 -0.137763,-0.17057 -0.432969,-0.17057 -0.360807,0 -0.577291,0.22961 -0.209924,0.22304 -0.209924,0.59697 v 1.43667 q 0,0.41985 -0.413289,0.41985 z m 6.914369,0 q -0.334566,0 -0.459209,-0.35425 l -1.371067,-3.87704 q -0.07216,-0.20992 0.02624,-0.35424 0.104962,-0.14433 0.347687,-0.14433 0.177123,0 0.275525,0.0853 0.0984,0.0787 0.157443,0.25584 l 1.049621,3.12262 1.102102,-3.11606 q 0.124642,-0.34769 0.419848,-0.34769 0.157443,0 0.249285,0.0853 0.09184,0.0853 0.157443,0.26896 l 1.082422,3.15542 1.082421,-3.16854 q 0.05904,-0.17056 0.157443,-0.25584 0.0984,-0.0853 0.268966,-0.0853 0.209924,0 0.308326,0.14433 0.0984,0.14432 0.02624,0.35424 l -1.384187,3.8836 q -0.0656,0.17712 -0.170564,0.26241 -0.104962,0.0853 -0.282085,0.0853 -0.177124,0 -0.282086,-0.0853 -0.104962,-0.0853 -0.170563,-0.26897 l -1.069301,-3.03734 -1.075862,3.0439 q -0.0656,0.17712 -0.170563,0.26241 -0.0984,0.0853 -0.275526,0.0853 z m 6.258377,0.0131 q -0.347687,0 -0.623212,-0.1312 -0.268966,-0.13777 -0.426409,-0.36737 -0.150883,-0.22961 -0.150883,-0.51825 0,-0.35425 0.183684,-0.55761 0.183683,-0.20993 0.596972,-0.30177 0.413288,-0.0918 1.108662,-0.0918 h 0.229604 v -0.13776 q 0,-0.32801 -0.144323,-0.47233 -0.144323,-0.14433 -0.485449,-0.14433 -0.190244,0 -0.413289,0.0459 -0.216484,0.0459 -0.459209,0.15744 -0.157443,0.0722 -0.262405,0.0197 -0.104962,-0.059 -0.144323,-0.17712 -0.0328,-0.12465 0.01312,-0.24929 0.05248,-0.12464 0.203365,-0.18368 0.301766,-0.12465 0.577291,-0.17713 0.282086,-0.0525 0.51169,-0.0525 0.701934,0 1.043061,0.32801 0.341127,0.32145 0.341127,1.0037 v 1.57443 q 0,0.41985 -0.380488,0.41985 -0.387048,0 -0.387048,-0.41985 v -0.14432 q -0.111522,0.26896 -0.354247,0.42641 -0.242724,0.15088 -0.577291,0.15088 z m 0.170563,-0.56417 q 0.321447,0 0.531371,-0.22305 0.216484,-0.22304 0.216484,-0.56417 v -0.14432 h -0.223044 q -0.616653,0 -0.859377,0.0984 -0.236165,0.0918 -0.236165,0.34113 0,0.21648 0.150883,0.35424 0.150883,0.13777 0.419848,0.13777 z m 3.627761,0.55105 q -0.328007,0 -0.48545,-0.34769 l -1.04306,-2.42069 q -0.09184,-0.21648 -0.0066,-0.38048 0.09184,-0.16401 0.360808,-0.16401 0.150883,0 0.242724,0.0722 0.09184,0.0656 0.164004,0.25585 l 0.787215,1.96804 0.813456,-1.9746 q 0.07216,-0.18368 0.164004,-0.24929 0.0984,-0.0722 0.262405,-0.0722 0.209924,0 0.295206,0.16401 0.08528,0.164 -0.0066,0.37392 l -1.062741,2.42725 q -0.144323,0.34769 -0.48545,0.34769 z m 3.673676,0.0131 q -0.544491,0 -0.938099,-0.20337 -0.393608,-0.20336 -0.610092,-0.57729 -0.209924,-0.37392 -0.209924,-0.88561 0,-0.49857 0.203364,-0.8725 0.209924,-0.37393 0.570731,-0.58385 0.367367,-0.21649 0.833137,-0.21649 0.682253,0 1.075861,0.43297 0.400168,0.43297 0.400168,1.18082 0,0.24273 -0.314886,0.24273 h -1.98116 q 0.09184,0.85938 0.98402,0.85938 0.170563,0 0.380487,-0.0394 0.216485,-0.0459 0.406728,-0.15089 0.170564,-0.0984 0.288646,-0.059 0.118083,0.0328 0.164003,0.13776 0.05248,0.10497 0.01312,0.23617 -0.0328,0.12464 -0.183684,0.21648 -0.229604,0.14433 -0.53137,0.21649 -0.295206,0.0656 -0.551051,0.0656 z m -0.118083,-2.7815 q -0.360807,0 -0.583851,0.22305 -0.223045,0.22304 -0.268966,0.60353 h 1.613792 q -0.02624,-0.40017 -0.223044,-0.61009 -0.190244,-0.21649 -0.537931,-0.21649 z m 3.588389,3.96232 q -0.354247,0 -0.688814,-0.0656 -0.328006,-0.0656 -0.596972,-0.20336 -0.157443,-0.0787 -0.190244,-0.20337 -0.02624,-0.11808 0.02624,-0.2296 0.05248,-0.11152 0.157443,-0.16401 0.111522,-0.0459 0.236165,0.0131 0.288645,0.14433 0.544491,0.18369 0.262405,0.0459 0.446088,0.0459 0.879058,0 0.879058,-0.84626 v -0.43953 q -0.137763,0.26897 -0.426409,0.42641 -0.282085,0.15745 -0.629772,0.15745 -0.432969,0 -0.754415,-0.19681 -0.321446,-0.20336 -0.49857,-0.56417 -0.177123,-0.36081 -0.177123,-0.8397 0,-0.47889 0.177123,-0.83313 0.177124,-0.36081 0.49857,-0.55761 0.321446,-0.20337 0.754415,-0.20337 0.347687,0 0.629772,0.15089 0.282086,0.15088 0.413289,0.41328 v -0.13776 q 0,-0.20336 0.104962,-0.30833 0.111522,-0.10496 0.301766,-0.10496 0.406728,0 0.406728,0.41329 v 2.52565 q 0,0.78066 -0.413288,1.17426 -0.413289,0.39361 -1.200504,0.39361 z m -0.01968,-1.94836 q 0.380488,0 0.603532,-0.2624 0.223045,-0.26241 0.223045,-0.71506 0,-0.45265 -0.223045,-0.70849 -0.223044,-0.26241 -0.603532,-0.26241 -0.380487,0 -0.603532,0.26241 -0.223044,0.25584 -0.223044,0.70849 0,0.45265 0.223044,0.71506 0.223045,0.2624 0.603532,0.2624 z m 3.647436,0.76754 q -1.180823,0 -1.180823,-1.32515 v -1.58755 q 0,-0.41329 0.406728,-0.41329 0.413288,0 0.413288,0.41329 v 1.60067 q 0,0.34113 0.137763,0.50513 0.137763,0.16401 0.439529,0.16401 0.328006,0 0.53793,-0.22305 0.209924,-0.2296 0.209924,-0.60353 v -1.44323 q 0,-0.41329 0.406728,-0.41329 0.413289,0 0.413289,0.41329 v 2.47973 q 0,0.41985 -0.400168,0.41985 -0.400168,0 -0.400168,-0.41985 v -0.11152 q -0.321447,0.54449 -0.98402,0.54449 z m 3.043902,-3.92952 q -0.229604,0 -0.360807,-0.11152 -0.124642,-0.11808 -0.124642,-0.32145 0,-0.20992 0.124642,-0.32144 0.131203,-0.11153 0.360807,-0.11153 0.48545,0 0.48545,0.43297 0,0.43297 -0.48545,0.43297 z m 0,3.90984 q -0.196804,0 -0.301766,-0.11808 -0.104962,-0.11809 -0.104962,-0.32801 v -2.40757 q 0,-0.44609 0.406728,-0.44609 0.413288,0 0.413288,0.44609 v 2.40757 q 0,0.20992 -0.104962,0.32801 -0.104962,0.11808 -0.308326,0.11808 z m 2.499405,0.0197 q -0.419848,0 -0.741294,-0.20337 -0.314887,-0.20336 -0.49201,-0.57729 -0.177124,-0.38048 -0.177124,-0.89217 0,-0.51826 0.177124,-0.88562 0.177123,-0.37393 0.49201,-0.57729 0.321446,-0.20337 0.741294,-0.20337 0.341127,0 0.616653,0.15089 0.275525,0.15088 0.413288,0.40016 v -1.54163 q 0,-0.41329 0.406728,-0.41329 0.413288,0 0.413288,0.41329 v 3.89672 q 0,0.41985 -0.406728,0.41985 -0.406728,0 -0.406728,-0.41985 v -0.13776 q -0.137763,0.2624 -0.413288,0.41985 -0.275526,0.15088 -0.623213,0.15088 z m 0.229605,-0.62321 q 0.367367,0 0.590412,-0.26241 0.223044,-0.26896 0.223044,-0.78721 0,-0.52482 -0.223044,-0.78066 -0.223045,-0.26241 -0.590412,-0.26241 -0.367367,0 -0.590412,0.26241 -0.223044,0.25584 -0.223044,0.78066 0,0.51825 0.223044,0.78721 0.223045,0.26241 0.590412,0.26241 z m 4.054159,0.62321 q -0.54449,0 -0.938098,-0.20337 -0.393608,-0.20336 -0.610092,-0.57729 -0.209925,-0.37392 -0.209925,-0.88561 0,-0.49857 0.203365,-0.8725 0.209924,-0.37393 0.570731,-0.58385 0.367367,-0.21649 0.833136,-0.21649 0.682254,0 1.075862,0.43297 0.400168,0.43297 0.400168,1.18082 0,0.24273 -0.314887,0.24273 h -1.981159 q 0.09184,0.85938 0.98402,0.85938 0.170563,0 0.380487,-0.0394 0.216484,-0.0459 0.406728,-0.15089 0.170564,-0.0984 0.288646,-0.059 0.118082,0.0328 0.164003,0.13776 0.05248,0.10497 0.01312,0.23617 -0.0328,0.12464 -0.183683,0.21648 -0.229605,0.14433 -0.531371,0.21649 -0.295206,0.0656 -0.551051,0.0656 z m -0.118082,-2.7815 q -0.360807,0 -0.583852,0.22305 -0.223044,0.22304 -0.268965,0.60353 h 1.613792 q -0.02624,-0.40017 -0.223044,-0.61009 -0.190244,-0.21649 -0.537931,-0.21649 z m 3.26695,2.7815 q -0.28209,0 -0.59697,-0.059 -0.31489,-0.059 -0.56417,-0.20337 -0.13777,-0.0787 -0.17057,-0.19024 -0.0328,-0.11808 0.007,-0.21648 0.0459,-0.10497 0.14433,-0.15089 0.10496,-0.0459 0.24272,0.0197 0.26241,0.12464 0.49201,0.17713 0.22961,0.0459 0.45265,0.0459 0.31489,0 0.46577,-0.10497 0.15744,-0.11152 0.15744,-0.28864 0,-0.27553 -0.40673,-0.35425 l -0.65601,-0.12464 q -0.83314,-0.15744 -0.83314,-0.86594 0,-0.31488 0.17057,-0.54449 0.17712,-0.2296 0.48545,-0.35425 0.30832,-0.12464 0.70849,-0.12464 0.57729,0 1.02994,0.25585 0.12464,0.0656 0.14432,0.18368 0.0263,0.11152 -0.0262,0.21649 -0.0459,0.0984 -0.15088,0.14432 -0.10496,0.0394 -0.24272,-0.0262 -0.20337,-0.10496 -0.39361,-0.15089 -0.18368,-0.0459 -0.35425,-0.0459 -0.32144,0 -0.47889,0.11153 -0.15088,0.11152 -0.15088,0.2952 0,0.28865 0.37393,0.35425 l 0.65601,0.12464 q 0.42641,0.0787 0.64289,0.28865 0.22305,0.20992 0.22305,0.56417 0,0.47889 -0.37393,0.75441 -0.37393,0.26897 -0.99714,0.26897 z"
     id="text2-9"
     aria-label="Overlaps in Waveguides" /></svg>
