<?xml version="1.0" encoding="UTF-8" standalone="no"?>
<!-- Created with Inkscape (http://www.inkscape.org/) -->

<svg
   width="60"
   height="60"
   viewBox="0 0 15.875 15.875"
   version="1.1"
   id="svg1"
   xml:space="preserve"
   inkscape:version="1.4.3 (0d15f75042, 2025-12-25)"
   sodipodi:docname="meow-small.svg"
   inkscape:export-filename="meow.png"
   inkscape:export-xdpi="960"
   inkscape:export-ydpi="960"
   xmlns:inkscape="http://www.inkscape.org/namespaces/inkscape"
   xmlns:sodipodi="http://sodipodi.sourceforge.net/DTD/sodipodi-0.dtd"
   xmlns:xlink="http://www.w3.org/1999/xlink"
   xmlns="http://www.w3.org/2000/svg"
   xmlns:svg="http://www.w3.org/2000/svg"><sodipodi:namedview
     id="namedview1"
     pagecolor="#ffffff"
     bordercolor="#000000"
     borderopacity="0.25"
     inkscape:showpageshadow="2"
     inkscape:pageopacity="0.0"
     inkscape:pagecheckerboard="0"
     inkscape:deskcolor="#d1d1d1"
     inkscape:document-units="px"
     inkscape:zoom="9.2551956"
     inkscape:cx="58.345606"
     inkscape:cy="35.979791"
     inkscape:window-width="2832"
     inkscape:window-height="1847"
     inkscape:window-x="24"
     inkscape:window-y="49"
     inkscape:window-maximized="1"
     inkscape:current-layer="layer1" /><defs
     id="defs1"><radialGradient
       id="radialGradient1"
       inkscape:collect="always"><stop
         style="stop-color:#ffffff;stop-opacity:1;"
         offset="0"
         id="stop1" /><stop
         style="stop-color:#c6daed;stop-opacity:1;"
         offset="1"
         id="stop2" /></radialGradient><inkscape:path-effect
       effect="bspline"
       id="path-effect13"
       is_visible="true"
       lpeversion="1.3"
       weight="33.333333"
       steps="2"
       helper_size="0"
       apply_no_weight="true"
       apply_with_weight="true"
       only_selected="false"
       uniform="false" /><inkscape:path-effect
       effect="bspline"
       id="path-effect12"
       is_visible="true"
       lpeversion="1.3"
       weight="33.333333"
       steps="2"
       helper_size="0"
       apply_no_weight="true"
       apply_with_weight="true"
       only_selected="false"
       uniform="false" /><inkscape:path-effect
       effect="bspline"
       id="path-effect11"
       is_visible="true"
       lpeversion="1.3"
       weight="33.333333"
       steps="2"
       helper_size="0"
       apply_no_weight="true"
       apply_with_weight="true"
       only_selected="false"
       uniform="false" /><inkscape:path-effect
       effect="spiro"
       id="path-effect10"
       is_visible="true"
       lpeversion="1" /><inkscape:path-effect
       effect="bspline"
       id="path-effect11-8"
       is_visible="true"
       lpeversion="1.3"
       weight="33.333333"
       steps="2"
       helper_size="0"
       apply_no_weight="true"
       apply_with_weight="true"
       only_selected="false"
       uniform="false" /><inkscape:path-effect
       effect="bspline"
       id="path-effect12-4"
       is_visible="true"
       lpeversion="1.3"
       weight="33.333333"
       steps="2"
       helper_size="0"
       apply_no_weight="true"
       apply_with_weight="true"
       only_selected="false"
       uniform="false" /><inkscape:path-effect
       effect="bspline"
       id="path-effect11-3"
       is_visible="true"
       lpeversion="1.3"
       weight="33.333333"
       steps="2"
       helper_size="0"
       apply_no_weight="true"
       apply_with_weight="true"
       only_selected="false"
       uniform="false" /><inkscape:path-effect
       effect="bspline"
       id="path-effect12-2"
       is_visible="true"
       lpeversion="1.3"
       weight="33.333333"
       steps="2"
       helper_size="0"
       apply_no_weight="true"
       apply_with_weight="true"
       only_selected="false"
       uniform="false" /><inkscape:path-effect
       effect="spiro"
       id="path-effect10-6"
       is_visible="true"
       lpeversion="1" /><inkscape:path-effect
       effect="bspline"
       id="path-effect11-5"
       is_visible="true"
       lpeversion="1.3"
       weight="33.333333"
       steps="2"
       helper_size="0"
       apply_no_weight="true"
       apply_with_weight="true"
       only_selected="false"
       uniform="false" /><inkscape:path-effect
       effect="bspline"
       id="path-effect12-6"
       is_visible="true"
       lpeversion="1.3"
       weight="33.333333"
       steps="2"
       helper_size="0"
       apply_no_weight="true"
       apply_with_weight="true"
       only_selected="false"
       uniform="false" /><inkscape:path-effect
       effect="bspline"
       id="path-effect11-3-9"
       is_visible="true"
       lpeversion="1.3"
       weight="33.333333"
       steps="2"
       helper_size="0"
       apply_no_weight="true"
       apply_with_weight="true"
       only_selected="false"
       uniform="false" /><inkscape:path-effect
       effect="bspline"
       id="path-effect12-2-3"
       is_visible="true"
       lpeversion="1.3"
       weight="33.333333"
       steps="2"
       helper_size="0"
       apply_no_weight="true"
       apply_with_weight="true"
       only_selected="false"
       uniform="false" /><inkscape:path-effect
       effect="bspline"
       id="path-effect13-7"
       is_visible="true"
       lpeversion="1.3"
       weight="33.333333"
       steps="2"
       helper_size="0"
       apply_no_weight="true"
       apply_with_weight="true"
       only_selected="false"
       uniform="false" /><radialGradient
       inkscape:collect="always"
       xlink:href="#radialGradient1"
       id="radialGradient2"
       cx="-8.8380003"
       cy="9.5439997"
       r="6.5"
       fx="-8.8380003"
       fy="9.5439997"
       gradientUnits="userSpaceOnUse"
       gradientTransform="matrix(0.81970649,0,0,0.81970649,20.585118,1.493794)" /></defs><g
     inkscape:label="Layer 1"
     inkscape:groupmode="layer"
     id="layer1"><g
       id="g3"
       transform="translate(-5.4084973,-0.78430855)"><rect
         style="fill:#c6daed;fill-opacity:1;stroke:none;stroke-width:0.0401963;stroke-opacity:1"
         id="rect15-9-9"
         width="15.875"
         height="15.875"
         x="5.4084973"
         y="0.78430855"
         ry="2.6458333" /><rect
         style="fill:url(#radialGradient2);fill-opacity:1;stroke:none;stroke-width:0.151816;stroke-dasharray:none;stroke-opacity:1"
         id="rect1"
         width="8.6031866"
         height="9.0559855"
         x="9.0387373"
         y="4.7891665" /><g
         id="g2"
         transform="matrix(1.1029543,0,0,1.1361264,-1.3754893,-1.1892338)"><path
           style="fill:#000000;fill-opacity:0;stroke:#17274c;stroke-width:0.174625;stroke-dasharray:none;stroke-opacity:1"
           d="M 9.0837293,7.5324301 C 8.9733463,6.9638402 8.8629533,6.3952502 8.8705671,5.7816717 c 0.00761,-0.6135795 0.1332258,-1.272122 0.258841,-1.9306772 0.4558642,0.2020001 0.8936019,0.3711342 1.2970979,0.6788221 0.403493,0.3076879 0.772725,0.7539218 1.141954,1.2001569 0.523022,-0.2068382 1.075637,-0.3958615 1.639239,-0.4015884 0.563601,-0.00571 1.138164,0.1718385 1.712737,0.3494069 0.333374,-0.4151821 0.702605,-0.8614162 1.106097,-1.1691041 0.403493,-0.3076878 0.841232,-0.476822 1.278978,-0.6459593 0.143732,0.6256934 0.269344,1.284236 0.276959,1.8978155 0.0076,0.6135787 -0.102769,1.1821684 -0.213164,1.7507583 0.477027,0.8836732 0.515627,1.9865274 0.09919,2.9173846 -0.329609,0.736794 -0.928826,1.355555 -1.652589,1.770016 -0.723761,0.414459 -1.567177,0.628739 -2.412748,0.659083 -0.886248,0.0318 -1.786392,-0.138536 -2.568076,-0.534633 C 10.053407,11.927056 9.3958949,11.300217 9.0295029,10.536649 8.5743283,9.5880577 8.5958922,8.4463934 9.0837233,7.5324301 Z"
           id="path1" /><path
           style="fill:#5b318a;fill-opacity:0;stroke:#5b318a;stroke-width:0.174625;stroke-dasharray:none;stroke-opacity:1"
           d="M 9.6759344,7.9803356 C 9.5813204,7.492973 9.4866978,7.0056102 9.4932241,6.4796859 c 0.00652,-0.5259252 0.1141937,-1.0903902 0.2218637,-1.654866 0.3907402,0.173143 0.7659442,0.318115 1.1117972,0.5818475 0.345852,0.2637324 0.662336,0.6462186 0.978818,1.0287057 0.448305,-0.1772899 0.921976,-0.3393098 1.405063,-0.3442186 0.483086,-0.00489 0.975569,0.1472902 1.46806,0.2994916 0.285749,-0.3558703 0.602233,-0.7383566 0.948083,-1.002089 0.34585,-0.2637324 0.721056,-0.4087045 1.096267,-0.5536794 0.123198,0.5363086 0.230866,1.1007736 0.237393,1.6266988 0.0065,0.5259245 -0.08809,1.0132871 -0.182712,1.5006497 0.40888,0.7574341 0.441966,1.7027375 0.08502,2.5006178 -0.282522,0.631536 -0.796136,1.161903 -1.416505,1.517156 -0.620366,0.355251 -1.343294,0.538919 -2.068069,0.564928 -0.759641,0.02725 -1.531194,-0.118746 -2.201209,-0.458257 C 10.507087,11.74716 9.9435052,11.209869 9.629455,10.555382 9.239305,9.742302 9.2577884,8.7637327 9.6759293,7.9803356 Z"
           id="path1-7" /><path
           style="fill:#000000;fill-opacity:0;stroke:#874d8c;stroke-width:0.174625;stroke-dasharray:none;stroke-opacity:1"
           d="M 10.268138,8.4282466 C 10.189298,8.022111 10.110441,7.6159745 10.115879,7.1777039 c 0.0054,-0.4382722 0.09516,-0.9086603 0.184887,-1.3790568 0.325617,0.1442861 0.638287,0.2650962 0.926498,0.4848731 0.28821,0.219777 0.551946,0.5385167 0.815681,0.8572562 0.373588,-0.1477417 0.768314,-0.2827586 1.170887,-0.2868495 0.402571,-0.00408 0.812974,0.122742 1.223383,0.249577 0.238124,-0.2965595 0.501861,-0.6152984 0.79007,-0.8350753 0.288208,-0.2197779 0.60088,-0.3405879 0.913556,-0.4614007 0.102665,0.4469248 0.192388,0.9173129 0.197827,1.3555844 0.0054,0.4382714 -0.07341,0.844407 -0.15226,1.2505434 0.340733,0.6311959 0.368305,1.4189493 0.07085,2.0838543 -0.235435,0.52628 -0.663447,0.968253 -1.180421,1.264297 -0.516972,0.296043 -1.119412,0.4491 -1.723391,0.470774 C 12.720411,12.254791 12.07745,12.133121 11.519104,11.8502 10.960765,11.567274 10.491113,11.119531 10.229405,10.574125 9.9042805,9.8965545 9.9196833,9.0810783 10.26813,8.4282466 Z"
           id="path1-7-0" /><path
           style="fill:#dd8259;fill-opacity:0;stroke:#dd8259;stroke-width:0.174625;stroke-dasharray:none;stroke-opacity:1"
           d="m 10.860344,8.8761496 c -0.06307,-0.3249085 -0.126158,-0.6498177 -0.121807,-1.0004342 0.0043,-0.3506181 0.07613,-0.7269291 0.147909,-1.1032451 0.260494,0.115428 0.51063,0.212076 0.741199,0.387898 0.230568,0.175822 0.441556,0.430814 0.652544,0.685805 0.298871,-0.118193 0.614652,-0.226207 0.93671,-0.229479 0.322057,-0.0033 0.650379,0.09819 0.978706,0.199661 0.1905,-0.237248 0.401489,-0.492239 0.632057,-0.668061 0.230566,-0.175822 0.480704,-0.27247 0.730844,-0.36912 0.08213,0.35754 0.153911,0.733851 0.158262,1.0844678 0.0043,0.3506171 -0.05873,0.6755256 -0.121808,1.0004348 0.272586,0.5049567 0.294644,1.1351666 0.05668,1.6670871 -0.188348,0.421024 -0.530758,0.774602 -0.944337,1.011438 -0.413578,0.236834 -0.89553,0.35928 -1.378713,0.376619 -0.506428,0.01817 -1.020797,-0.07917 -1.467473,-0.305505 -0.446672,-0.226341 -0.822393,-0.584535 -1.03176,-1.02086 -0.260099,-0.542053 -0.247777,-1.194441 0.03098,-1.7167064 z"
           id="path1-7-0-8" /><path
           style="fill:#000000;fill-opacity:0;stroke:#f2d481;stroke-width:0.174625;stroke-dasharray:none;stroke-opacity:1"
           d="m 11.452549,9.3240555 c -0.0473,-0.2436814 -0.09462,-0.4873633 -0.09136,-0.7503257 0.0032,-0.2629636 0.0571,-0.5451969 0.110932,-0.8274339 0.19537,0.086571 0.382972,0.159057 0.555899,0.2909235 0.172926,0.1318665 0.331167,0.3231105 0.489408,0.5143538 0.224154,-0.088645 0.460989,-0.1696553 0.702533,-0.1721093 0.241543,-0.00248 0.487784,0.073643 0.734029,0.1497458 0.142875,-0.177936 0.301117,-0.3691793 0.474043,-0.5010458 0.172925,-0.1318665 0.360528,-0.2043525 0.548133,-0.27684 0.0616,0.268155 0.115434,0.5503883 0.118697,0.8133509 0.0032,0.2629629 -0.04405,0.5066443 -0.09136,0.7503262 0.204439,0.3787177 0.220983,0.85138 0.04251,1.25032 -0.141261,0.315768 -0.398069,0.580951 -0.708253,0.758578 -0.310184,0.177626 -0.671648,0.26946 -1.034035,0.282464 -0.379821,0.01363 -0.765598,-0.05938 -1.100605,-0.229128 C 11.868116,11.207479 11.586325,10.938833 11.4293,10.61159 11.234235,10.205049 11.243476,9.7157545 11.45254,9.3240555 Z"
           id="path1-7-0-8-2" /><path
           style="fill:#f2d481;fill-opacity:1;stroke-width:0.115581"
           d="m 12.667064,10.961181 c -0.106609,-0.04637 -0.210089,-0.178924 -0.178979,-0.229261 0.03168,-0.05126 0.08053,-0.03735 0.156413,0.04453 0.05698,0.06148 0.10016,0.07645 0.220478,0.07645 0.278919,0 0.3422,-0.207258 0.128523,-0.420935 -0.06728,-0.06728 -0.122323,-0.143804 -0.122323,-0.170058 0,-0.09069 0.125448,-0.142945 0.343193,-0.142945 0.341171,0 0.412927,0.142365 0.174584,0.346378 -0.103225,0.08836 -0.115007,0.112301 -0.101147,0.205557 0.02009,0.135165 0.08297,0.182003 0.244355,0.182003 0.09478,0 0.154729,-0.02129 0.223962,-0.07955 0.112278,-0.09448 0.197409,-0.08114 0.158767,0.02486 -0.03398,0.09321 -0.237482,0.206463 -0.372116,0.207089 -0.05952,2.78e-4 -0.159287,-0.02554 -0.221711,-0.05736 -0.111343,-0.05677 -0.115654,-0.05677 -0.226998,0 -0.132754,0.06768 -0.290595,0.07258 -0.427001,0.01324 z M 12.516805,9.7811761 C 12.390746,9.6549567 12.22923,9.6199255 12.05152,9.6802599 c -0.10775,0.036582 -0.141759,0.038351 -0.160308,0.00834 -0.09811,-0.1587448 0.324588,-0.2790044 0.570502,-0.1623105 0.12575,0.059672 0.263085,0.2150949 0.250018,0.2829458 -0.01593,0.082722 -0.09576,0.071231 -0.194927,-0.028057 z m 1.180052,0.020244 c 0,-0.085846 0.20259,-0.2823552 0.321985,-0.3123215 0.127084,-0.031896 0.376522,0.00438 0.442844,0.064397 0.03347,0.030289 0.06085,0.082065 0.06085,0.1150586 0,0.048576 -0.01309,0.055653 -0.06881,0.037197 -0.131991,-0.04372 -0.36313,-0.051348 -0.451151,-0.014888 -0.04877,0.020202 -0.110307,0.069743 -0.136743,0.1100904 -0.06433,0.098175 -0.168981,0.098464 -0.16898,4.659e-4 z"
           id="path2" /></g></g></g></svg>
