<svg xmlns="http://www.w3.org/2000/svg" viewBox="0 0 600 720" width="600" height="720">
  <rect width="600" height="720" fill="white"/>
  <path d="M186.3,122.5C190.5,123.2 195.2,123.6 206.7,129.4C218.3,135.1 244.9,150.7 255.5,157.0C266.1,163.2 264.5,162.2 270.4,166.8C276.3,171.4 286.1,180.9 290.9,184.3C295.7,187.8 296.2,187.7 299.2,187.7C302.2,187.7 302.2,189.1 309.1,184.3C316.0,179.6 326.1,168.6 340.7,159.2C355.4,149.8 385.9,133.7 397.0,128.1C408.0,122.5 403.9,125.9 406.9,125.7C409.9,125.4 412.5,125.7 415.0,126.6C417.5,127.5 419.9,129.0 421.9,131.0C423.9,133.0 425.5,135.3 427.0,138.7C428.5,142.2 428.7,140.6 431.0,151.5C433.3,162.3 435.2,186.5 440.9,203.8C446.7,221.0 460.2,242.7 465.4,254.8C470.6,266.9 470.9,268.7 472.1,276.3C473.3,284.0 474.2,289.9 472.8,300.9C471.4,311.9 465.5,332.4 463.8,342.3C462.1,352.1 462.3,354.2 462.6,360.0C462.9,365.9 463.0,368.4 465.6,377.3C468.3,386.3 476.1,404.4 478.5,413.9C480.8,423.4 480.0,429.2 479.8,434.5C479.6,439.9 478.5,442.3 477.1,446.3C475.7,450.2 475.8,452.1 471.5,458.4C467.1,464.8 460.2,474.8 450.8,484.3C441.5,493.9 427.1,507.0 415.3,515.8C403.5,524.7 391.4,531.9 380.0,537.5C368.6,543.1 358.5,546.6 347.1,549.5C335.7,552.5 323.4,554.4 311.6,555.1C299.8,555.8 287.8,555.5 276.1,554.0C264.4,552.5 252.5,549.8 241.4,546.1C230.3,542.5 219.9,537.9 209.5,532.0C199.0,526.2 189.3,519.8 178.5,511.0C167.6,502.2 153.1,488.8 144.3,479.2C135.6,469.6 129.8,460.4 125.9,453.4C121.9,446.5 121.5,442.8 120.6,437.4C119.7,432.0 119.8,426.1 120.3,421.0C120.7,415.9 121.0,414.5 123.5,406.9C125.9,399.3 132.6,383.5 135.0,375.2C137.3,366.9 137.3,362.7 137.5,357.1C137.7,351.5 137.8,350.7 136.1,341.5C134.3,332.3 128.7,312.4 127.3,301.7C125.9,291.0 126.6,284.9 127.8,277.1C129.0,269.3 129.5,266.6 134.6,254.8C139.7,242.9 153.6,217.1 158.3,206.0C163.1,194.9 161.1,198.4 163.1,188.2C165.2,177.9 168.5,153.8 170.5,144.6C172.5,135.4 173.2,136.5 175.0,133.2C176.7,129.9 179.1,126.8 181.0,125.0C182.9,123.2 182.0,121.7 186.3,122.5Z" fill="#0b1034"/>
  <path d="M185.9,125.7C188.7,125.7 193.7,126.9 198.0,128.5C202.4,130.0 201.9,129.4 212.2,135.1C222.5,140.8 247.1,154.1 259.9,162.5C272.8,170.9 282.6,181.0 289.1,185.5C295.7,190.0 295.8,189.3 299.1,189.5C302.4,189.7 302.4,191.0 309.1,186.6C315.7,182.3 324.3,172.5 338.8,163.3C353.4,154.0 385.1,136.9 396.2,131.2C407.3,125.4 402.7,129.0 405.5,128.6C408.3,128.3 410.7,128.5 413.1,129.1C415.4,129.8 417.6,131.0 419.5,132.8C421.4,134.5 422.9,136.2 424.4,139.5C426.0,142.8 426.4,141.7 428.7,152.5C431.0,163.3 432.5,187.1 438.3,204.3C444.0,221.6 457.9,243.8 463.2,256.1C468.4,268.3 468.5,270.0 469.6,277.7C470.7,285.5 471.5,291.3 469.8,302.4C468.1,313.5 461.4,334.4 459.4,344.4C457.4,354.5 457.5,356.6 457.7,362.6C457.8,368.7 458.0,371.7 460.3,380.5C462.6,389.3 469.4,406.9 471.5,415.5C473.6,424.1 473.5,426.1 472.7,432.3C471.8,438.5 470.0,445.8 466.4,452.8C462.8,459.7 458.9,465.4 451.2,473.7C443.5,482.1 430.7,494.5 420.5,503.0C410.2,511.4 400.4,518.4 389.9,524.4C379.5,530.5 368.8,535.4 357.6,539.1C346.5,542.9 334.8,545.6 323.0,547.1C311.1,548.6 298.6,548.9 286.6,548.0C274.7,547.2 262.8,545.1 251.5,542.0C240.3,538.9 229.6,534.7 219.1,529.4C208.6,524.0 199.4,518.4 188.5,510.0C177.6,501.6 162.7,488.5 153.6,478.9C144.4,469.4 137.8,459.6 133.6,452.8C129.3,445.9 129.2,442.8 128.1,437.8C127.1,432.7 125.4,432.4 127.4,422.5C129.4,412.6 137.8,388.8 140.3,378.3C142.8,367.8 142.3,365.5 142.3,359.6C142.3,353.7 142.3,352.3 140.3,342.9C138.3,333.5 132.0,313.9 130.3,303.2C128.6,292.5 129.1,286.4 130.2,278.5C131.3,270.6 131.7,268.2 136.8,256.1C142.0,243.9 156.4,217.2 161.2,205.8C166.1,194.4 164.0,197.5 165.9,187.7C167.7,178.0 170.6,155.8 172.3,147.2C174.1,138.6 174.7,139.3 176.2,136.2C177.7,133.1 179.7,130.1 181.3,128.4C182.9,126.6 183.1,125.7 185.9,125.7Z" fill="#161848"/>
  <path d="M186.4,128.9C188.9,128.9 193.6,129.8 197.5,131.2C201.4,132.5 199.1,130.9 209.7,136.8C220.3,142.7 247.9,157.8 261.1,166.4C274.3,175.0 282.7,184.2 289.0,188.4C295.3,192.7 295.4,191.9 299.0,192.0C302.6,192.0 303.8,193.1 310.5,188.7C317.3,184.4 325.2,175.2 339.5,166.0C353.9,156.8 385.8,139.5 396.8,133.7C407.8,128.0 402.8,131.7 405.4,131.3C408.0,131.0 410.2,131.2 412.2,131.8C414.3,132.3 416.0,133.2 417.6,134.7C419.3,136.1 420.7,137.5 422.2,140.5C423.6,143.6 424.8,145.2 426.3,153.2C427.8,161.1 429.5,179.4 431.0,188.1C432.5,196.8 430.2,193.7 435.2,205.4C440.2,217.1 455.7,245.5 461.0,258.2C466.4,270.9 466.5,273.4 467.3,281.5C468.1,289.6 468.4,295.6 465.9,306.8C463.4,317.9 455.3,338.4 452.4,348.6C449.6,358.9 449.4,362.1 448.7,368.3C448.1,374.5 447.9,377.9 448.7,386.0C449.5,394.1 452.7,409.6 453.6,417.0C454.4,424.4 454.6,425.4 453.8,430.4C453.0,435.4 451.7,441.4 448.6,447.2C445.6,453.0 442.1,458.2 435.6,465.2C429.2,472.2 418.6,482.3 409.9,489.4C401.3,496.6 392.9,502.7 383.7,508.2C374.4,513.6 364.6,518.4 354.5,522.0C344.5,525.6 334.1,528.2 323.6,529.7C313.0,531.2 301.9,531.7 291.2,531.1C280.4,530.6 269.5,528.9 259.2,526.2C248.9,523.6 238.9,519.9 229.3,515.2C219.6,510.5 211.2,505.6 201.3,498.2C191.4,490.8 178.0,479.2 169.7,470.8C161.4,462.4 155.4,453.5 151.7,447.9C148.0,442.2 148.4,440.8 147.4,437.1C146.5,433.4 145.3,434.1 145.9,425.6C146.6,417.0 150.5,395.9 151.3,386.0C152.2,376.0 151.7,372.4 151.0,365.9C150.3,359.4 149.9,356.9 147.1,347.1C144.3,337.4 136.7,318.2 134.2,307.5C131.8,296.8 131.8,291.1 132.5,283.0C133.3,274.9 133.4,271.7 138.7,258.9C144.0,246.1 159.5,218.0 164.5,206.2C169.6,194.4 167.3,197.7 169.0,188.1C170.6,178.5 172.2,158.1 174.5,148.6C176.8,139.2 180.8,134.4 182.7,131.2C184.7,127.9 184.0,128.9 186.4,128.9Z" fill="#272362"/>
  <path d="M186.9,132.8C190.1,133.2 191.9,131.2 203.4,136.9C214.9,142.5 245.0,160.3 255.8,166.7C266.6,173.1 262.9,170.8 268.3,175.2C273.6,179.6 282.9,189.6 288.1,193.4C293.3,197.1 295.8,197.5 299.5,197.7C303.2,197.8 303.9,199.0 310.4,194.4C316.9,189.8 324.2,179.7 338.6,170.1C353.0,160.5 384.7,142.9 396.6,137.0C408.6,131.0 407.2,134.5 410.4,134.5C413.6,134.5 414.3,135.9 415.9,137.1C417.4,138.4 418.4,139.1 419.7,141.9C421.0,144.7 422.3,146.1 423.5,153.9C424.8,161.6 426.0,179.8 427.3,188.7C428.7,197.5 429.7,201.3 431.6,207.0C433.4,212.8 434.2,215.1 438.3,223.2C442.4,231.2 452.1,247.4 456.1,255.3C460.0,263.2 460.6,265.6 462.0,270.7C463.4,275.8 464.2,280.9 464.4,285.9C464.7,290.9 464.9,294.2 463.5,300.6C462.1,307.0 461.9,310.6 455.8,324.4C449.8,338.2 437.7,364.7 427.0,383.5C416.3,402.3 399.6,426.1 391.7,437.2C383.8,448.3 384.0,446.0 379.6,450.1C375.1,454.1 371.7,457.4 365.0,461.5C358.3,465.6 348.2,471.5 339.3,474.8C330.5,478.0 321.3,480.2 311.8,481.1C302.3,482.1 291.9,481.8 282.4,480.4C272.9,478.9 263.4,476.0 255.0,472.5C246.6,469.0 239.2,464.5 232.1,459.4C225.0,454.4 223.0,455.9 212.4,442.1C201.9,428.2 180.9,397.7 168.9,376.6C156.9,355.4 145.9,328.1 140.5,315.3C135.1,302.6 137.2,304.9 136.4,299.8C135.6,294.8 134.7,291.8 135.6,285.1C136.5,278.5 137.4,270.5 141.8,260.1C146.2,249.6 157.6,231.4 162.0,222.5C166.4,213.7 166.7,212.7 168.4,207.0C170.2,201.4 171.2,198.2 172.7,188.7C174.1,179.2 175.2,159.1 177.1,150.1C179.1,141.0 182.8,137.4 184.4,134.5C186.1,131.6 183.8,132.4 186.9,132.8Z" fill="#3d207a"/>
  <path d="M188.7,138.3C191.5,138.6 192.5,136.3 203.6,141.7C214.7,147.2 244.8,164.8 255.4,171.1C266.1,177.3 262.0,174.9 267.2,179.3C272.4,183.7 281.3,193.7 286.7,197.5C292.1,201.3 295.3,202.1 299.4,202.3C303.6,202.4 305.0,203.3 311.7,198.6C318.4,193.9 325.6,183.5 339.6,174.1C353.6,164.7 384.4,147.9 395.8,142.1C407.3,136.3 404.8,138.9 408.1,139.4C411.5,139.9 414.1,142.3 416.0,145.2C417.9,148.1 418.1,146.8 419.7,156.7C421.4,166.6 423.8,193.8 426.0,204.6C428.1,215.5 427.5,211.7 432.5,222.0C437.5,232.3 451.2,256.3 455.7,266.4C460.1,276.5 458.8,277.3 459.3,282.7C459.8,288.1 460.2,292.1 458.7,298.8C457.2,305.5 456.3,310.6 450.2,322.8C444.2,335.0 432.8,357.0 422.4,371.9C412.1,386.9 397.3,402.5 388.1,412.6C378.8,422.7 374.4,426.7 366.9,432.4C359.4,438.0 351.2,442.8 343.0,446.5C334.8,450.1 326.0,452.8 317.5,454.3C308.9,455.8 300.3,456.2 291.6,455.5C282.9,454.8 273.6,452.6 265.5,449.9C257.5,447.2 250.3,443.6 243.2,439.3C236.2,435.0 232.4,433.0 223.3,424.2C214.3,415.4 197.4,396.6 188.9,386.6C180.4,376.6 179.7,376.1 172.5,364.0C165.3,351.9 151.0,324.9 145.8,314.0C140.6,303.1 142.2,303.8 141.3,298.8C140.5,293.8 139.7,290.6 140.6,284.3C141.4,277.9 142.3,270.8 146.5,260.8C150.8,250.9 161.8,233.4 166.2,224.7C170.6,216.0 171.1,214.1 172.9,208.5C174.7,202.8 175.6,199.9 176.9,190.8C178.2,181.7 179.1,162.2 180.8,153.7C182.4,145.2 185.5,142.3 186.8,139.7C188.2,137.1 186.0,137.9 188.7,138.3Z" fill="#5c2590"/>
  <path d="M193.3,146.6C195.5,147.0 194.8,144.7 205.0,149.7C215.1,154.6 244.2,170.5 254.3,176.2C264.3,182.0 260.3,179.7 265.4,184.1C270.6,188.4 279.6,198.6 285.2,202.5C290.9,206.4 294.8,207.3 299.4,207.6C303.9,207.8 305.6,208.7 312.6,203.9C319.6,199.1 327.8,187.8 341.4,178.9C355.0,170.0 383.5,155.5 393.9,150.3C404.4,145.1 401.3,147.4 404.1,147.7C407.0,148.1 409.2,149.9 410.8,152.3C412.4,154.7 412.4,152.8 414.0,161.9C415.6,171.1 418.1,196.9 420.3,207.3C422.5,217.8 422.1,214.5 426.9,224.6C431.7,234.7 445.0,258.1 449.3,267.8C453.5,277.5 452.1,277.7 452.5,282.6C453.0,287.5 453.5,290.8 452.0,297.1C450.5,303.3 449.7,308.5 443.6,320.1C437.5,331.8 424.2,354.3 415.4,366.9C406.6,379.6 398.9,387.6 390.7,396.2C382.5,404.9 374.0,412.9 366.3,418.8C358.5,424.7 352.0,428.2 344.1,431.6C336.2,435.0 327.5,437.5 318.8,439.0C310.2,440.4 301.0,440.8 292.2,440.2C283.4,439.6 274.0,437.8 266.1,435.4C258.1,433.0 251.3,429.8 244.6,425.9C237.8,422.0 233.2,419.0 225.5,412.0C217.7,405.1 205.9,392.9 198.3,384.2C190.7,375.5 187.3,371.8 179.7,359.8C172.1,347.8 157.8,322.3 152.6,312.1C147.4,301.9 149.2,303.1 148.3,298.6C147.4,294.1 146.6,290.9 147.3,284.9C148.0,279.0 147.4,275.2 152.6,262.9C157.8,250.6 173.5,222.7 178.5,211.1C183.5,199.6 181.3,202.2 182.6,193.6C183.9,185.1 184.8,167.4 186.3,159.8C187.9,152.1 190.6,150.0 191.8,147.8C192.9,145.6 191.1,146.3 193.3,146.6Z" fill="#7e2a8e"/>
  <path d="M201.5,165.5C203.8,165.5 206.0,163.8 214.1,166.4C222.1,169.0 241.6,177.1 249.6,180.9C257.7,184.6 256.8,184.4 262.5,189.0C268.1,193.6 278.8,204.5 283.6,208.4C288.4,212.3 288.8,211.5 291.4,212.4C294.1,213.3 296.7,213.7 299.3,213.8C302.0,213.8 304.6,213.5 307.3,212.8C309.9,212.0 309.8,213.4 315.3,209.2C320.7,204.9 332.7,192.6 339.8,187.3C346.9,182.0 349.6,181.1 357.9,177.5C366.3,173.8 383.5,167.4 390.1,165.5C396.7,163.6 395.3,165.2 397.3,166.1C399.4,166.9 399.2,161.9 402.3,170.6C405.5,179.3 409.6,201.9 416.1,218.4C422.6,235.0 436.6,259.1 441.3,269.8C446.0,280.5 443.7,278.2 444.1,282.5C444.5,286.8 445.0,289.9 443.6,295.6C442.3,301.2 442.1,305.1 436.0,316.5C429.8,328.0 415.5,351.5 406.7,364.2C398.0,377.0 390.9,384.8 383.4,392.9C375.8,401.0 368.6,407.6 361.4,412.9C354.3,418.3 347.7,421.8 340.4,424.9C333.0,427.9 325.2,430.0 317.2,431.3C309.1,432.5 300.4,432.9 292.2,432.3C283.9,431.8 275.0,429.9 267.7,427.8C260.4,425.6 254.6,422.9 248.2,419.3C241.9,415.6 236.4,411.8 229.7,405.8C223.0,399.8 214.9,391.3 208.1,383.4C201.4,375.4 197.1,370.4 189.2,358.3C181.4,346.1 166.5,320.7 161.1,310.6C155.7,300.5 157.7,302.1 156.8,297.8C155.9,293.5 155.1,290.4 155.8,284.8C156.4,279.2 156.0,275.5 160.8,264.2C165.6,252.9 178.8,231.6 184.5,217.0C190.2,202.4 192.3,184.9 194.9,176.5C197.5,168.1 198.9,168.4 200.0,166.6C201.1,164.7 199.1,165.5 201.5,165.5Z" fill="#a52e7a"/>
  <path d="M213.5,182.5C216.2,182.4 222.8,181.4 228.5,182.3C234.2,183.2 242.5,185.8 247.6,187.9C252.8,190.0 253.9,190.7 259.4,195.1C265.0,199.5 274.7,210.1 281.1,214.3C287.5,218.4 293.5,219.2 297.8,220.1C302.2,220.9 304.1,220.1 307.2,219.3C310.3,218.6 310.4,220.2 316.5,215.7C322.7,211.3 336.3,197.8 344.0,192.5C351.8,187.3 358.0,185.8 363.2,184.0C368.4,182.3 371.6,182.1 375.3,181.9C378.9,181.6 382.1,181.9 384.9,182.6C387.7,183.4 390.0,184.7 392.1,186.5C394.2,188.3 394.2,186.6 397.4,193.4C400.6,200.2 405.6,214.7 411.2,227.3C416.9,239.9 427.4,259.5 431.2,269.0C435.1,278.4 434.1,279.2 434.4,283.9C434.7,288.7 434.9,291.9 433.2,297.6C431.5,303.2 432.3,304.1 424.2,317.7C416.1,331.3 394.6,365.0 384.6,379.1C374.5,393.2 370.8,396.0 363.8,402.3C356.8,408.6 349.8,413.3 342.6,417.1C335.4,420.8 328.2,423.1 320.4,424.7C312.6,426.3 303.8,427.0 295.6,426.7C287.5,426.4 279.1,425.0 271.7,422.8C264.3,420.6 257.3,417.2 251.0,413.5C244.7,409.8 239.8,405.7 234.1,400.4C228.5,395.0 227.2,395.8 217.2,381.3C207.1,366.9 182.2,328.6 173.6,313.9C165.1,299.2 166.9,300.1 166.0,293.1C165.0,286.1 161.9,288.2 167.8,271.9C173.8,255.6 195.1,209.3 201.6,195.3C208.0,181.3 204.6,189.8 206.4,187.8C208.1,185.8 210.8,184.2 212.0,183.3C213.1,182.4 210.7,182.7 213.5,182.5Z" fill="#c83465"/>
  <path d="M223.4,192.9C225.5,192.8 231.0,192.2 235.0,192.8C239.0,193.4 240.1,191.8 247.3,196.4C254.5,200.9 270.2,215.2 278.2,220.2C286.2,225.3 290.7,225.5 295.4,226.4C300.2,227.4 303.2,226.7 306.8,226.1C310.5,225.5 310.6,227.2 317.4,222.7C324.2,218.2 339.7,204.1 347.6,199.1C355.5,194.2 360.4,193.8 365.0,192.8C369.6,191.8 372.3,192.4 375.4,193.0C378.5,193.6 381.3,194.6 383.8,196.3C386.3,197.9 388.5,200.0 390.7,202.9C392.8,205.9 391.7,202.6 396.7,213.8C401.8,225.0 416.6,258.4 421.0,270.3C425.4,282.2 423.2,280.2 423.1,285.1C423.1,289.9 422.2,294.8 420.7,299.5C419.1,304.2 423.0,298.3 413.8,313.3C404.7,328.3 376.8,373.7 365.8,389.3C354.7,404.9 354.0,402.3 347.5,407.0C341.0,411.7 333.6,415.0 326.9,417.4C320.2,419.8 314.0,420.8 307.1,421.3C300.3,421.8 292.6,421.5 285.9,420.5C279.3,419.5 273.2,417.8 267.2,415.3C261.3,412.7 255.0,408.7 250.2,405.3C245.5,401.8 242.4,398.6 238.8,394.7C235.2,390.8 238.3,396.7 228.7,381.8C219.2,366.8 190.2,321.0 181.6,305.0C173.0,289.0 177.0,292.6 176.9,285.8C176.8,279.1 175.9,277.6 180.9,264.4C186.0,251.1 201.6,217.5 207.0,206.5C212.4,195.5 210.9,200.5 213.5,198.3C216.0,196.1 220.4,194.2 222.1,193.3C223.7,192.4 221.2,193.0 223.4,192.9Z" fill="#e04550"/>
  <path d="M228.2,202.6C229.8,202.5 233.9,202.1 236.7,202.4C239.5,202.8 238.3,200.5 245.1,204.7C252.0,208.9 270.5,223.2 277.7,227.8C284.9,232.3 284.5,230.9 288.2,231.8C292.0,232.7 296.1,233.3 300.0,233.3C303.9,233.3 308.0,232.7 311.8,231.8C315.5,230.9 315.1,232.3 322.3,227.8C329.5,223.2 348.0,208.9 354.9,204.7C361.7,200.5 360.6,202.8 363.3,202.4C366.0,202.1 368.7,202.2 371.3,202.7C373.8,203.2 376.2,204.1 378.4,205.4C380.7,206.8 381.6,206.2 384.7,210.9C387.7,215.6 392.5,223.4 396.8,233.7C401.1,244.0 408.0,263.7 410.3,272.5C412.7,281.3 411.3,282.3 410.8,286.7C410.3,291.2 412.8,289.7 407.4,299.1C402.1,308.5 387.8,327.8 378.7,343.2C369.6,358.6 359.7,380.9 352.8,391.3C345.9,401.7 343.0,402.0 337.3,405.8C331.7,409.7 324.8,412.4 318.7,414.1C312.6,415.9 306.7,416.4 300.9,416.5C295.1,416.6 289.1,415.9 283.7,414.7C278.3,413.5 273.0,411.6 268.3,409.2C263.6,406.7 259.7,404.3 255.3,400.1C251.0,396.0 247.9,393.5 242.3,384.2C236.8,374.9 230.3,358.6 222.1,344.4C213.8,330.3 198.1,309.9 192.6,299.1C187.1,288.3 188.6,286.9 188.9,279.6C189.2,272.4 190.4,266.5 194.3,255.8C198.1,245.1 207.9,223.6 212.0,215.5C216.1,207.5 216.2,209.5 218.8,207.4C221.3,205.3 225.6,203.7 227.2,202.9C228.7,202.1 226.6,202.7 228.2,202.6Z" fill="#ec6530"/>
  <path d="M231.6,212.9C234.1,213.2 237.8,211.4 245.6,215.3C253.4,219.1 269.5,231.8 278.6,235.9C287.6,240.0 292.9,240.0 300.0,240.0C307.1,240.0 312.5,240.0 321.4,235.9C330.4,231.8 346.0,219.4 353.8,215.6C361.5,211.8 364.4,213.0 367.8,212.9C371.2,212.8 372.1,213.9 374.1,215.1C376.1,216.2 377.2,216.2 379.7,219.9C382.3,223.5 386.7,231.2 389.3,237.2C392.0,243.1 394.2,250.0 395.8,255.7C397.3,261.3 398.3,266.3 398.7,271.1C399.1,275.9 399.0,280.2 398.4,284.5C397.7,288.7 401.1,286.2 394.9,296.4C388.6,306.6 370.3,329.6 361.1,345.6C351.9,361.5 345.1,382.5 339.6,392.1C334.0,401.7 332.3,400.3 327.8,403.2C323.2,406.2 317.1,408.3 312.4,409.6C307.6,410.9 303.7,411.1 299.2,411.0C294.6,410.9 289.6,410.2 285.3,409.0C281.0,407.9 277.0,406.1 273.5,404.0C269.9,401.9 267.1,399.9 264.1,396.4C261.0,393.0 259.4,391.9 255.2,383.3C250.9,374.8 245.8,357.5 238.6,344.9C231.3,332.4 217.3,316.0 211.7,307.8C206.0,299.6 206.6,301.1 204.8,295.7C203.1,290.3 200.9,282.8 201.1,275.3C201.2,267.9 202.8,259.8 205.6,251.1C208.4,242.4 214.7,229.0 217.7,223.2C220.7,217.5 221.5,218.3 223.7,216.6C225.9,214.9 229.5,213.7 230.8,213.0C232.1,212.4 229.1,212.5 231.6,212.9Z" fill="#f08828"/>
  <path d="M234.3,225.8C236.4,226.1 238.9,224.6 246.3,227.6C253.7,230.6 269.6,240.6 278.6,243.9C287.5,247.2 292.7,247.4 300.0,247.4C307.3,247.3 313.2,246.9 322.2,243.7C331.1,240.4 346.7,230.6 353.7,227.6C360.8,224.6 361.1,225.2 364.4,225.6C367.7,226.1 370.9,227.3 373.7,230.1C376.5,232.8 379.3,237.9 381.3,242.2C383.2,246.5 384.5,251.2 385.5,255.9C386.5,260.6 387.2,265.8 387.4,270.4C387.5,274.9 387.2,279.2 386.4,283.2C385.7,287.2 384.9,290.3 382.9,294.4C380.9,298.5 381.2,299.1 374.5,308.0C367.8,316.9 350.7,334.1 342.5,348.0C334.2,361.9 329.2,383.0 325.0,391.5C320.8,400.0 320.3,397.0 317.4,398.9C314.6,400.8 312.4,402.3 307.8,402.9C303.3,403.5 294.1,403.0 289.9,402.3C285.7,401.6 284.9,400.4 282.6,398.9C280.3,397.4 278.3,395.7 276.3,393.2C274.3,390.7 273.0,389.2 270.8,383.7C268.6,378.2 265.6,366.1 263.3,360.2C261.1,354.2 263.9,356.8 257.5,348.0C251.1,339.2 231.9,316.6 225.1,307.4C218.2,298.3 218.6,298.5 216.5,293.0C214.4,287.6 212.9,281.4 212.6,274.7C212.4,268.0 213.5,259.6 215.3,252.7C217.0,245.9 221.1,237.8 223.2,233.8C225.3,229.8 226.1,230.1 227.8,228.8C229.6,227.5 232.5,226.4 233.6,225.9C234.7,225.4 232.2,225.5 234.3,225.8Z" fill="#f5a623"/>
  <path d="M239.3,242.1C241.2,242.2 243.0,240.8 250.1,242.8C257.2,244.7 273.5,251.5 281.9,253.6C290.2,255.8 293.7,255.7 300.0,255.6C306.3,255.5 311.6,255.4 319.8,253.3C328.0,251.1 342.7,244.9 349.2,243.0C355.7,241.0 355.7,241.4 358.6,241.8C361.5,242.1 364.5,243.3 366.7,245.1C368.9,246.9 370.4,247.9 371.8,252.7C373.2,257.5 375.4,266.9 375.1,273.7C374.8,280.6 373.0,287.4 370.0,293.5C367.1,299.7 365.5,301.8 357.2,310.7C349.0,319.6 327.5,339.0 320.4,346.9C313.3,354.8 316.6,352.3 314.6,358.1C312.6,363.9 310.7,376.9 308.5,381.9C306.4,387.0 303.8,387.4 301.7,388.3C299.6,389.2 297.8,388.4 296.1,387.4C294.5,386.5 293.6,387.5 291.8,382.6C290.0,377.7 287.5,364.1 285.4,358.1C283.3,352.0 286.5,354.5 279.2,346.3C271.8,338.2 249.8,318.4 241.3,309.2C232.9,299.9 231.4,296.3 228.7,290.8C226.0,285.4 225.5,281.6 225.1,276.4C224.7,271.2 225.1,264.4 226.1,259.6C227.0,254.8 228.9,250.5 231.0,247.6C233.1,244.7 237.3,243.2 238.6,242.2C240.0,241.3 237.4,242.0 239.3,242.1Z" fill="#f8cc50"/>
  <path d="M253.9,263.4C255.5,263.2 255.5,262.3 262.7,262.8C269.9,263.4 284.3,266.6 297.0,266.6C309.7,266.6 330.2,262.9 339.1,262.7C348.0,262.5 347.8,264.1 350.2,265.3C352.7,266.4 352.9,267.8 353.7,269.8C354.4,271.7 355.5,273.3 354.9,276.9C354.2,280.5 353.0,286.7 349.9,291.4C346.7,296.0 341.4,301.1 336.1,304.6C330.9,308.2 323.8,311.1 318.4,312.9C313.0,314.7 308.9,315.1 303.9,315.4C298.8,315.6 293.0,315.3 288.1,314.4C283.1,313.6 278.6,312.2 274.2,310.3C269.8,308.4 265.4,305.9 261.5,303.0C257.6,300.0 253.6,296.2 251.0,292.5C248.3,288.9 246.4,284.8 245.6,281.0C244.8,277.2 245.1,272.7 246.3,269.8C247.6,266.9 251.9,264.7 253.1,263.6C254.4,262.5 252.3,263.5 253.9,263.4Z" fill="#fae878"/>
</svg>
