<svg xmlns="http://www.w3.org/2000/svg" viewBox="24 -1 452 336" width="452" height="336">
  <rect x="24" y="-1" width="452" height="336" fill="white"/>
  <rect x="36.0" y="11.0" width="428.0" height="312.5" fill="#e8eef5"/>
  <rect x="166.5" y="25.0" width="167.0" height="257.9" fill="#d0dff0"/>
  <rect x="50.0" y="271.5" width="400.0" height="37.9" fill="#bdd0e6"/>
  <path d="M165.0,69.2C166.0,69.1 168.3,68.5 170.1,68.7C171.9,69.0 171.4,68.0 176.1,70.7C180.8,73.5 189.8,80.9 198.2,85.3C206.6,89.6 218.8,92.9 226.5,97.0C234.1,101.2 240.0,107.6 243.9,110.2C247.9,112.7 248.0,112.2 250.0,112.2C252.0,112.2 252.1,112.7 256.1,110.2C260.0,107.6 265.9,101.2 273.5,97.0C281.2,92.9 293.3,89.7 301.8,85.3C310.2,80.8 319.5,73.2 324.5,70.5C329.5,67.7 329.8,68.6 331.8,68.8C333.9,68.9 335.6,69.5 336.8,71.6C338.0,73.6 339.1,75.2 338.8,81.0C338.6,86.9 335.7,100.1 335.1,106.4C334.5,112.8 334.9,115.2 335.5,119.1C336.0,123.1 335.9,124.1 338.4,130.3C340.9,136.4 347.5,149.4 350.3,156.2C353.1,163.0 354.0,165.8 355.3,171.2C356.6,176.7 357.7,182.9 358.2,189.0C358.7,195.1 358.7,201.4 358.0,207.8C357.3,214.2 356.0,221.1 353.9,227.4C351.9,233.8 349.1,240.0 345.6,246.1C342.0,252.2 337.4,258.6 332.5,264.0C327.7,269.5 322.1,274.8 316.5,279.0C311.0,283.3 304.9,287.0 299.2,289.6C293.4,292.2 288.4,293.7 281.9,294.8C275.4,295.8 270.7,296.0 260.2,296.0C249.6,296.1 228.4,295.8 218.9,294.9C209.3,294.0 208.0,292.6 202.9,290.5C197.8,288.4 193.0,285.8 188.1,282.4C183.2,279.0 177.9,274.7 173.3,270.2C168.7,265.7 164.0,260.0 160.3,255.2C156.7,250.3 154.0,245.6 151.6,240.9C149.2,236.1 147.4,231.6 145.8,226.7C144.3,221.7 143.1,216.5 142.4,211.3C141.7,206.0 140.9,202.7 141.5,195.2C142.1,187.8 142.8,177.1 146.0,166.5C149.3,155.9 158.0,139.3 161.0,131.7C164.1,124.0 163.6,124.8 164.3,120.7C164.9,116.6 165.5,114.1 165.0,107.2C164.4,100.4 161.6,85.3 161.1,79.7C160.6,74.1 161.4,75.4 162.0,73.7C162.5,72.0 163.9,70.4 164.4,69.7C165.0,68.9 164.1,69.4 165.0,69.2Z" fill="none" stroke="#0b1034" stroke-width="3.5" stroke-linejoin="round"/>
  <path d="M173.9,83.6C175.2,83.6 176.9,82.3 181.2,84.2C185.6,86.0 193.3,91.5 199.8,94.7C206.4,97.8 213.6,99.1 220.4,103.1C227.3,107.1 236.1,115.7 241.0,118.8C245.9,121.8 247.0,121.5 250.0,121.5C253.0,121.5 254.4,121.7 259.0,118.8C263.6,115.9 270.7,108.1 277.6,104.1C284.5,100.1 293.5,97.9 300.2,94.7C306.8,91.4 313.8,86.6 317.7,84.7C321.5,82.7 321.6,83.1 323.2,83.1C324.8,83.2 326.3,83.7 327.2,84.9C328.1,86.2 328.8,86.4 328.8,90.8C328.8,95.2 327.3,106.1 327.2,111.5C327.0,116.8 324.8,113.0 328.1,122.8C331.5,132.6 343.5,159.7 347.2,170.3C350.9,180.8 349.7,180.8 350.2,186.1C350.8,191.4 351.0,196.6 350.4,202.2C349.9,207.7 348.8,214.0 347.0,219.5C345.2,225.0 342.8,230.0 339.6,235.1C336.4,240.2 332.4,245.4 327.8,250.3C323.2,255.2 317.6,260.2 312.0,264.5C306.4,268.7 300.1,272.9 294.3,275.8C288.5,278.7 284.1,280.4 277.3,281.9C270.6,283.3 262.0,284.2 253.8,284.4C245.7,284.6 235.5,283.9 228.6,283.0C221.7,282.1 218.0,280.9 212.7,278.8C207.4,276.8 202.4,274.3 196.8,270.7C191.3,267.1 184.6,261.9 179.3,257.2C174.1,252.4 169.0,246.7 165.3,242.2C161.7,237.7 159.6,234.1 157.5,230.0C155.4,226.0 153.8,222.2 152.5,218.0C151.3,213.8 150.4,209.4 149.8,204.8C149.3,200.3 148.7,197.1 149.4,190.6C150.2,184.0 150.5,176.7 154.2,165.7C157.9,154.6 168.5,133.3 171.6,124.4C174.7,115.5 172.9,118.0 172.9,112.3C172.8,106.6 171.1,94.9 171.2,90.2C171.3,85.5 173.1,85.0 173.5,83.9C174.0,82.8 172.6,83.6 173.9,83.6Z" fill="none" stroke="#3d207a" stroke-width="3.0" stroke-linejoin="round"/>
  <path d="M197.6,116.3C199.0,116.0 202.9,114.9 205.7,115.0C208.4,115.0 209.1,113.9 214.1,116.5C219.1,119.1 230.3,127.7 235.9,130.6C241.5,133.5 243.3,133.9 247.6,134.1C251.9,134.3 255.8,134.5 261.4,131.9C267.0,129.3 276.1,121.5 281.2,118.7C286.2,115.9 288.2,115.4 292.0,115.1C295.7,114.9 300.4,115.2 303.7,117.0C307.0,118.7 307.9,119.3 311.8,125.7C315.6,132.2 323.5,148.3 326.9,155.6C330.3,162.9 330.8,164.1 332.1,169.4C333.5,174.7 334.8,181.5 335.0,187.3C335.3,193.1 334.9,198.6 333.6,204.1C332.3,209.5 330.4,214.7 327.4,219.9C324.5,225.2 321.2,229.9 316.1,235.6C311.0,241.4 302.9,249.6 297.0,254.5C291.0,259.4 285.5,262.6 280.5,265.0C275.6,267.4 272.3,268.0 267.4,268.9C262.5,269.8 256.6,270.2 251.0,270.2C245.3,270.3 238.6,269.9 233.5,269.0C228.3,268.2 224.3,267.0 220.2,265.3C216.0,263.6 212.8,261.7 208.7,258.8C204.6,255.9 200.1,252.2 195.6,247.9C191.1,243.6 185.4,237.6 181.6,232.9C177.7,228.3 174.8,223.8 172.6,219.9C170.3,216.0 169.1,213.2 167.9,209.6C166.7,205.9 165.9,202.1 165.4,198.1C164.9,194.1 164.8,189.7 165.1,185.5C165.4,181.2 165.8,177.3 167.1,172.6C168.3,167.8 169.0,164.7 172.5,157.0C175.9,149.3 184.7,132.5 187.9,126.4C191.1,120.3 190.4,122.0 191.9,120.4C193.4,118.8 195.9,117.3 196.9,116.6C197.8,115.9 196.1,116.6 197.6,116.3Z" fill="none" stroke="#952c85" stroke-width="2.5" stroke-linejoin="round"/>
  <path d="M210.0,140.1C211.4,140.1 213.1,139.2 217.7,140.2C222.3,141.2 232.2,144.8 237.6,145.9C243.0,147.1 245.9,147.3 250.0,147.3C254.1,147.3 257.0,147.1 262.4,145.9C267.8,144.8 277.9,141.2 282.3,140.2C286.8,139.2 286.8,139.4 289.3,139.9C291.8,140.5 294.6,141.4 297.1,143.4C299.6,145.5 302.1,148.7 304.3,152.2C306.4,155.7 308.6,160.4 310.0,164.5C311.4,168.6 312.2,172.6 312.6,176.7C313.0,180.7 312.9,184.8 312.3,189.0C311.7,193.1 310.7,197.2 308.9,201.4C307.2,205.6 304.6,210.1 301.7,214.2C298.8,218.3 294.9,222.6 291.4,225.9C287.9,229.2 284.2,232.0 280.5,234.0C276.9,236.1 275.6,237.1 269.6,238.1C263.5,239.0 251.6,239.9 244.1,239.6C236.5,239.3 230.1,238.4 224.3,236.2C218.4,234.0 213.9,230.8 209.1,226.4C204.3,222.0 199.0,215.8 195.5,210.0C192.0,204.2 189.3,197.9 188.1,191.5C186.9,185.1 187.6,176.7 188.1,171.6C188.7,166.5 189.9,164.4 191.4,160.9C192.8,157.3 195.0,153.3 196.9,150.4C198.8,147.5 200.8,145.1 202.9,143.4C205.0,141.7 208.1,140.8 209.2,140.2C210.4,139.7 208.6,140.1 210.0,140.1Z" fill="none" stroke="#e04550" stroke-width="2.2" stroke-linejoin="round"/>
  <path d="M235.4,169.0C241.8,169.2 264.9,169.3 272.5,170.0C280.1,170.7 279.0,171.8 281.3,173.2C283.5,174.7 284.9,176.7 285.9,178.6C287.0,180.4 287.2,182.0 287.4,184.2C287.6,186.3 288.1,188.1 287.0,191.4C285.9,194.8 283.5,200.7 280.8,204.3C278.0,207.8 274.3,210.8 270.3,212.8C266.3,214.8 261.5,215.6 256.7,216.1C251.9,216.7 245.9,216.5 241.5,216.0C237.1,215.5 233.7,214.7 230.4,213.1C227.0,211.6 224.1,209.5 221.6,206.9C219.0,204.3 216.6,200.9 215.0,197.5C213.5,194.0 212.5,189.5 212.5,186.0C212.5,182.6 213.6,179.1 215.2,176.7C216.8,174.2 218.8,172.8 222.0,171.5C225.3,170.3 232.3,169.5 234.5,169.1C236.8,168.7 229.1,168.9 235.4,169.0Z" fill="none" stroke="#f08828" stroke-width="2.0" stroke-linejoin="round"/>
</svg>
